<svg width="494" height="570" viewBox="0 0 494 570" fill="none" xmlns="http://www.w3.org/2000/svg">
<path d="M168.55 8.11796C175.782 5.90397 187.442 3.39478 194.379 2.21399C201.316 1.18079 210.467 0.295198 214.747 0.147599C221.094 0 223.013 0.590397 229.802 7.37996V61.2537C229.802 115.127 229.802 115.127 226.555 118.67C223.603 121.769 220.651 122.655 205.449 124.869C195.707 126.197 179.176 129.445 168.55 132.101C158.07 134.758 144.049 139.038 125.747 146.123L129.289 158.374C131.208 165.016 133.274 171.068 133.717 171.658C134.16 172.396 138.292 171.658 142.72 170.034C147.148 168.411 156.151 166.344 162.646 165.311C169.878 164.13 180.505 163.688 189.951 164.278C199.545 164.721 209.434 166.197 215.78 168.263C221.537 170.034 230.688 173.724 246.776 181.695L256.074 177.267C261.093 174.757 270.982 170.92 278.214 168.706C289.726 165.164 293.416 164.721 313.194 164.721C333.415 164.721 336.367 165.016 347.141 168.706C353.636 170.92 359.392 172.691 360.13 172.691C360.72 172.691 362.787 167.23 364.853 160.588C366.919 153.798 368.543 147.894 368.543 147.304C368.543 146.566 366.034 145.09 363.082 143.762C359.982 142.581 351.569 139.481 344.189 137.12C336.957 134.758 321.312 130.773 309.504 128.411C297.697 126.05 284.413 123.836 279.985 123.245C275.557 122.803 270.686 121.622 269.21 120.589C267.439 119.555 265.963 115.865 265.225 111.437C264.487 107.452 263.897 82.508 263.749 56.0877C263.602 10.0367 263.749 7.97036 266.701 3.98518C269.358 0.295199 270.539 0 279.247 0C284.56 0 295.63 1.32839 304.043 3.09958C312.309 4.72318 324.412 7.82276 330.906 9.88915C337.4 11.9555 349.06 16.8263 356.735 20.6639C364.41 24.6491 375.628 31.1434 381.531 35.2762C387.288 39.409 396.291 46.9366 410.756 61.2537L420.792 93.7255C426.253 111.585 437.471 147.156 445.588 172.691C453.854 198.226 464.776 232.764 469.942 249.443C475.108 266.121 482.635 289.59 486.62 301.84C490.753 313.944 494 326.194 494 328.703C494 333.131 484.259 343.316 377.989 448.997C314.08 512.612 260.207 565.748 257.993 567.076C255.779 568.7 251.351 569.733 247.514 569.733C243.676 569.733 239.248 568.7 237.034 567.076C234.968 565.748 180.948 512.76 117.186 449.44C30.104 362.946 0.879835 333.279 0.141852 329.884C-0.596131 326.637 1.47022 318.519 8.11207 298.15C12.9828 283.095 24.0525 249 32.4655 222.137C41.0261 195.274 53.7194 155.127 60.804 132.839C67.7411 110.552 75.8589 85.3123 78.5156 76.7516C83.3863 61.5489 83.8291 60.9585 94.3085 50.9217C100.212 45.1654 110.396 36.8998 116.891 32.4718C123.385 28.1915 134.75 21.6971 141.982 18.1547C149.214 14.7599 161.317 10.1843 168.55 8.11796Z" fill="#203272"/>
<path fill-rule="evenodd" clip-rule="evenodd" d="M207.958 21.697C208.844 22.1398 209.434 37.933 209.139 103.319L203.678 104.205C200.578 104.648 196.593 105.238 194.822 105.681C192.165 106.124 190.984 105.238 189.361 101.401C188.328 98.8914 182.276 82.2127 176.077 64.6484C169.878 46.9365 164.86 32.1766 164.86 31.7338C164.86 31.291 168.697 29.9626 173.42 28.6342C177.996 27.3058 187.442 24.9442 194.231 23.6158C201.021 22.1398 207.22 21.4018 207.958 21.697ZM284.856 20.3687L290.169 21.2542C293.121 21.8446 302.42 23.911 310.98 25.9774C319.541 28.0438 327.068 30.2578 327.659 30.7006C328.397 31.291 323.526 48.1173 317.032 68.1908C310.39 88.4119 304.634 105.091 304.043 105.386C303.305 105.681 298.73 105.238 284.413 102.581L284.856 20.3687ZM144.491 39.8517C145.229 39.8517 146.115 41.0325 146.558 42.5085C147.001 43.8369 152.314 59.0396 158.365 76.0136C164.417 93.1351 169.435 108.043 169.73 109.076C169.878 110.552 166.483 111.88 158.218 113.799C151.724 115.275 140.359 118.522 133.126 121.031C125.747 123.54 119.548 125.164 119.105 124.574C118.662 124.131 114.824 111.585 103.017 70.1096L109.954 63.7628C113.791 60.2204 122.795 53.4309 130.175 48.7077C137.407 43.8369 143.901 39.8517 144.491 39.8517ZM348.913 39.8517C349.651 39.8517 357.03 44.4273 365.591 50.1837C374.152 55.7925 383.303 62.4344 385.812 64.9436C388.469 67.4528 390.683 70.2572 390.683 71.2904C390.683 72.3236 387.583 84.4267 383.598 98.4486C379.76 112.323 376.366 123.983 375.923 124.426C375.48 125.016 368.543 123.098 360.425 120.293C352.307 117.637 340.942 114.389 335.334 113.209C327.954 111.733 325.15 110.552 325.445 109.076C325.74 107.895 330.906 92.6923 336.957 75.2756C342.861 57.8589 347.879 42.8037 347.879 41.7705C347.879 40.7373 348.322 39.8517 348.913 39.8517ZM91.947 105.091C92.0946 105.386 94.899 114.832 98.1461 126.197C101.393 137.562 104.493 148.042 104.936 149.518C105.674 151.88 104.493 152.027 91.0614 152.027C79.9917 152.027 76.4494 151.584 76.8922 150.256C77.1874 149.223 80.5821 138.596 84.5672 126.492C88.5523 114.537 91.7994 104.943 91.947 105.091ZM402.933 107.009L410.018 128.411C413.855 140.219 417.102 150.404 417.102 150.994C417.25 151.584 410.903 152.027 403.228 152.027C395.553 152.027 389.207 151.88 389.207 151.732C389.207 151.437 390.092 148.337 391.273 144.647C392.454 140.957 395.553 131.068 398.21 122.507L402.933 107.009ZM69.3648 172.691H112.463L116.005 185.68C117.924 192.765 119.695 199.406 119.99 200.44C120.433 201.768 113.939 202.211 91.0614 202.211C74.8258 202.211 61.5421 201.768 61.5421 201.178C61.5421 200.587 63.3133 193.945 65.3796 186.418L69.3648 172.691ZM382.27 172.691H403.523C415.184 172.691 424.63 172.839 424.63 172.986C424.63 173.281 426.696 179.923 433.486 202.211H403.966C376.661 202.211 374.594 201.916 375.037 199.554C375.332 198.226 377.104 191.584 379.022 184.794L382.27 172.691ZM186.261 183.613C194.969 184.056 203.825 185.68 212.091 188.189C219.028 190.403 225.079 192.617 225.67 193.207C226.26 193.65 219.47 215.347 210.467 241.325C201.464 267.302 192.46 293.427 190.542 299.331C187.737 307.597 187.294 310.844 188.475 313.648C189.213 315.715 191.722 319.847 193.936 322.947C196.298 326.047 207.663 340.659 219.47 355.566C232.164 371.802 242.348 383.315 244.562 384.053C246.923 384.939 249.58 384.791 251.942 383.758C254.008 383.02 257.255 379.773 259.322 376.821C261.388 373.869 271.572 360.437 282.051 347.006C292.531 333.574 302.42 320.585 303.896 318.076C305.372 315.715 306.552 312.32 306.552 310.696C306.552 309.073 299.173 286.49 290.317 260.513C281.313 234.535 272.458 209.148 270.391 204.13C267.587 197.045 267.144 194.683 268.473 193.798C269.506 193.355 274.967 191.289 280.723 189.37C286.332 187.451 296.664 185.237 303.601 184.351C313.932 182.875 318.065 183.023 327.216 184.942C333.267 186.123 341.828 188.632 346.108 190.551C350.684 192.617 353.931 195.126 353.783 196.307C353.783 197.488 348.765 214.462 342.861 233.945C336.81 253.428 328.397 280.734 324.264 294.46C320.131 308.335 315.408 324.866 313.785 331.36C312.309 337.855 310.833 347.153 310.685 352.024C310.39 356.895 310.685 372.393 312.456 411.802H181.095L182.129 379.773C182.719 356.157 182.571 344.939 181.095 337.264C180.062 331.655 175.634 314.386 171.206 298.888C166.778 283.538 158.956 257.265 153.79 240.587C148.624 223.908 143.458 206.934 139.768 194.831L145.967 191.731C149.51 189.96 156.89 187.303 162.646 185.827C170.468 183.761 176.225 183.171 186.261 183.613ZM247.809 202.211C248.695 202.211 250.171 205.458 251.204 209.296C252.237 213.133 256.517 225.679 260.65 237.339C264.783 248.852 267.735 258.594 267.144 259.037C266.701 259.479 257.403 259.775 246.481 259.775C234.378 259.775 226.85 259.184 226.85 258.299C226.85 257.561 229.802 248.409 233.492 238.077C237.182 227.746 241.61 215.347 243.234 210.772C245.005 206.048 246.923 202.211 247.809 202.211ZM53.1291 222.875H127.961L129.584 229.222C130.47 232.616 132.536 239.258 136.816 252.395H91.0614C65.8224 252.395 45.3065 251.952 45.3065 251.361C45.3065 250.771 47.0777 244.129 49.2916 236.602L53.1291 222.875ZM440.865 222.875L442.932 230.55C444.26 234.83 446.179 241.472 449.721 252.395H403.966C361.016 252.395 358.211 252.247 358.949 249.738C359.392 248.409 361.163 242.505 362.787 236.897C364.41 231.14 366.034 225.679 366.329 224.646C366.772 223.318 375.628 222.875 440.865 222.875ZM383.893 272.025C400.129 272.616 423.154 273.059 456.363 273.059L460.791 287.08C463.152 294.903 464.924 301.545 464.481 301.84C464.186 302.283 436.733 302.578 403.671 302.578C370.462 302.578 343.452 301.988 343.452 301.398C343.452 300.807 345.223 294.608 347.437 287.818C349.798 280.881 352.16 274.239 352.898 273.206C354.079 271.435 359.392 271.287 383.893 272.025ZM38.0743 273.059L141.982 272.911L145.967 286.933C148.181 294.756 150.1 301.398 150.1 301.84C150.1 302.136 122.795 302.578 89.5855 302.578C56.2286 302.578 29.0709 301.988 29.0709 301.398C29.0709 300.807 30.9896 294.165 33.4988 286.638L38.0743 273.059ZM218.585 277.486L225.227 278.52C228.917 279.258 239.248 279.7 248.252 279.7C257.108 279.7 266.997 279.258 275.557 277.486L279.247 288.999C281.313 295.198 282.937 300.955 282.937 301.545C282.937 302.136 266.701 302.578 246.776 302.578C218.585 302.578 210.762 302.136 211.205 300.807C211.5 299.774 213.271 294.018 215.19 288.114L218.585 277.486ZM156.594 321.914L159.399 334.755C160.875 341.987 162.351 348.629 162.793 349.663C163.236 350.991 150.986 351.434 47.3729 351.434L34.532 338.445C27.4473 331.36 21.5435 324.718 21.5435 323.833C21.5435 322.357 36.1555 321.914 156.594 321.914ZM246.481 321.914C262.421 321.914 272.753 322.504 273.196 323.39C273.638 324.275 271.424 327.965 268.473 331.951C265.373 335.788 259.469 343.316 255.484 348.777C251.499 354.238 247.809 358.666 247.366 358.666C247.071 358.666 241.167 351.434 234.525 342.43C227.883 333.574 221.832 325.309 221.389 324.128C220.504 322.209 223.898 321.914 246.481 321.914ZM336.515 321.914H397.177C430.534 321.914 460.938 322.357 464.776 322.947C468.614 323.685 471.861 324.571 471.861 325.309C471.861 325.899 466.104 331.951 446.622 351.434H388.321C342.418 351.434 330.168 350.991 330.611 349.663C330.906 348.629 332.382 341.987 333.858 334.903L336.515 321.914ZM69.0696 372.098H163.236L162.498 375.345C162.055 377.116 161.76 383.463 161.76 400.141H96.8177L69.0696 372.098ZM330.758 372.098H424.187L398.653 399.699L365.739 399.846C347.732 399.994 332.825 399.551 332.825 398.961C332.677 398.37 332.234 392.023 331.644 384.939L330.758 372.098ZM118.514 420.805H160.284L159.694 424.938C159.251 427.152 158.661 434.68 158.218 441.912C157.48 454.015 157.185 454.753 154.085 454.753C151.724 454.753 145.82 449.44 134.602 437.779L118.514 420.805ZM334.153 420.805H376.513L358.802 438.517C349.06 448.259 340.352 456.229 339.319 456.229C338.286 456.229 337.105 454.31 336.81 452.096C336.367 449.882 335.629 441.912 335.186 434.384L334.153 420.805ZM179.767 432.613H315.261L315.703 443.388C315.851 449.292 315.408 454.606 314.523 455.196C313.785 455.786 283.675 456.229 247.809 456.229C211.795 456.229 181.391 455.934 180.21 455.491C179.029 455.048 177.996 452.982 177.996 450.768C177.996 448.554 178.439 443.536 178.881 439.698L179.767 432.613ZM247.366 475.712C283.527 475.565 314.228 476.007 315.703 476.598C318.065 477.483 317.327 478.812 301.239 497.262L194.231 497.557L185.671 488.553C181.095 483.535 177.11 478.959 176.815 478.221C176.667 477.483 177.701 476.598 179.029 476.303C180.505 476.007 211.205 475.712 247.366 475.712ZM279.099 518.221L247.366 549.955L232.607 535.195C224.489 527.077 217.847 519.844 217.847 519.254C217.847 518.664 231.573 518.221 279.099 518.221Z" fill="#FAC896"/>
</svg>
