<svg width="2190" height="570" viewBox="0 0 2190 570" fill="none" xmlns="http://www.w3.org/2000/svg">
<mask id="path-1-outside-1_26_2" maskUnits="userSpaceOnUse" x="590" y="287" width="1579" height="117" fill="black">
<rect fill="white" x="590" y="287" width="1579" height="117"/>
<path d="M591.989 400V291.602H607.37V337.305H658.933V291.602H674.313V400H658.933V348.804H607.37V400H591.989ZM717.219 400V291.602H732.6V400H717.219ZM775.505 400V291.602H836.076V303.101H790.886V337.891H828.752V349.243H790.886V388.501H839.226V400H775.505ZM871.804 400V291.602H904.616C915.017 291.602 922.976 293.896 928.493 298.486C934.06 303.076 936.843 309.741 936.843 318.481C936.843 325.366 934.914 331.494 931.057 336.865C927.248 342.236 921.877 346.362 914.943 349.243L951.125 400H932.229L901.394 354.15H887.038V400H871.804ZM887.038 342.651H892.019C901.491 342.651 908.693 340.723 913.625 336.865C918.557 333.008 921.022 327.368 921.022 319.946C921.022 308.716 912.917 303.101 896.706 303.101H887.038V342.651ZM1026.04 402.71C1010.66 402.71 998.352 397.559 989.123 387.256C979.943 376.904 975.354 363.086 975.354 345.801C975.354 328.516 979.943 314.722 989.123 304.419C998.352 294.067 1010.66 288.892 1026.04 288.892C1041.42 288.892 1053.7 294.067 1062.88 304.419C1072.11 314.722 1076.72 328.516 1076.72 345.801C1076.72 363.086 1072.11 376.904 1062.88 387.256C1053.7 397.559 1041.42 402.71 1026.04 402.71ZM1026.04 391.211C1036.83 391.211 1045.25 387.207 1051.31 379.199C1057.36 371.143 1060.39 359.961 1060.39 345.654C1060.39 331.445 1057.36 320.361 1051.31 312.402C1045.25 304.395 1036.83 300.391 1026.04 300.391C1015.25 300.391 1006.82 304.395 1000.77 312.402C994.714 320.361 991.687 331.445 991.687 345.654C991.687 359.961 994.714 371.143 1000.77 379.199C1006.82 387.207 1015.25 391.211 1026.04 391.211ZM1194.77 397.07C1181.64 400.83 1170.19 402.71 1160.42 402.71C1143.19 402.71 1129.95 397.827 1120.72 388.062C1111.54 378.247 1106.96 364.16 1106.96 345.801C1106.96 327.734 1111.62 313.745 1120.94 303.833C1130.32 293.872 1143.48 288.892 1160.42 288.892C1171.31 288.892 1182.71 290.527 1194.63 293.799V308.008C1179.68 302.93 1168.23 300.391 1160.28 300.391C1148.56 300.391 1139.45 304.37 1132.96 312.329C1126.51 320.239 1123.29 331.421 1123.29 345.874C1123.29 360.181 1126.75 371.313 1133.69 379.272C1140.62 387.231 1150.34 391.211 1162.84 391.211C1167.97 391.211 1173.51 390.308 1179.46 388.501V353.198H1194.77V397.07ZM1236.73 400V291.602H1252.11V388.501H1300.89V400H1236.73ZM1355.14 400V354.736L1318.96 291.602H1336.54L1364.67 340.527L1394.99 291.602H1409.27L1370.52 354.443V400H1355.14ZM1440.16 400V291.602H1469.68C1478.18 291.602 1484.72 292.31 1489.31 293.726C1493.95 295.093 1497.73 297.534 1500.66 301.05C1504.52 305.688 1506.45 312.012 1506.45 320.02C1506.45 331.543 1502.54 340.576 1494.73 347.119C1486.92 353.662 1476.08 356.934 1462.21 356.934H1455.4V400H1440.16ZM1455.4 345.288H1461.62C1470.75 345.288 1477.81 343.188 1482.79 338.989C1487.77 334.79 1490.26 328.833 1490.26 321.118C1490.26 314.673 1488.28 310.059 1484.33 307.275C1480.42 304.492 1473.93 303.101 1464.85 303.101H1455.4V345.288ZM1538.07 400V291.602H1553.45V337.305H1605.02V291.602H1620.4V400H1605.02V348.804H1553.45V400H1538.07ZM1807.28 394.434C1796.59 399.951 1784.92 402.71 1772.27 402.71C1755.43 402.71 1742.41 397.778 1733.23 387.915C1724.05 378.052 1719.46 364.038 1719.46 345.874C1719.46 327.759 1724.13 313.745 1733.45 303.833C1742.83 293.872 1756.04 288.892 1773.08 288.892C1782.75 288.892 1794.1 290.479 1807.14 293.652V308.081C1792.29 302.954 1780.84 300.391 1772.79 300.391C1761.02 300.391 1751.91 304.37 1745.47 312.329C1739.02 320.288 1735.8 331.519 1735.8 346.021C1735.8 359.888 1739.24 370.801 1746.12 378.76C1753.01 386.719 1762.43 390.698 1774.4 390.698C1784.6 390.698 1795.56 387.549 1807.28 381.25V394.434ZM1889.01 402.71C1873.62 402.71 1861.32 397.559 1852.09 387.256C1842.91 376.904 1838.32 363.086 1838.32 345.801C1838.32 328.516 1842.91 314.722 1852.09 304.419C1861.32 294.067 1873.62 288.892 1889.01 288.892C1904.39 288.892 1916.67 294.067 1925.85 304.419C1935.08 314.722 1939.69 328.516 1939.69 345.801C1939.69 363.086 1935.08 376.904 1925.85 387.256C1916.67 397.559 1904.39 402.71 1889.01 402.71ZM1889.01 391.211C1899.8 391.211 1908.22 387.207 1914.27 379.199C1920.33 371.143 1923.36 359.961 1923.36 345.654C1923.36 331.445 1920.33 320.361 1914.27 312.402C1908.22 304.395 1899.8 300.391 1889.01 300.391C1878.21 300.391 1869.79 304.395 1863.74 312.402C1857.68 320.361 1854.66 331.445 1854.66 345.654C1854.66 359.961 1857.68 371.143 1863.74 379.199C1869.79 387.207 1878.21 391.211 1889.01 391.211ZM1976.3 400V291.602H2012.33C2023.07 291.602 2031.74 292.798 2038.33 295.19C2044.97 297.583 2050.71 301.636 2055.54 307.349C2063.21 316.431 2067.04 328.394 2067.04 343.237C2067.04 359.985 2062.55 373.56 2053.57 383.96C2048.68 389.673 2043.02 393.774 2036.57 396.265C2030.18 398.755 2022.17 400 2012.55 400H1976.3ZM1991.68 388.501H2011.38C2025.44 388.501 2035.4 384.717 2041.26 377.148C2047.56 369.092 2050.71 358.276 2050.71 344.702C2050.71 331.958 2047.61 321.948 2041.41 314.673C2037.65 310.229 2033.16 307.202 2027.93 305.591C2022.71 303.931 2014.85 303.101 2004.35 303.101H1991.68V388.501ZM2103.65 400V291.602H2164.22V303.101H2119.03V337.891H2156.9V349.243H2119.03V388.501H2167.37V400H2103.65Z"/>
</mask>
<path d="M591.989 400V291.602H607.37V337.305H658.933V291.602H674.313V400H658.933V348.804H607.37V400H591.989ZM717.219 400V291.602H732.6V400H717.219ZM775.505 400V291.602H836.076V303.101H790.886V337.891H828.752V349.243H790.886V388.501H839.226V400H775.505ZM871.804 400V291.602H904.616C915.017 291.602 922.976 293.896 928.493 298.486C934.06 303.076 936.843 309.741 936.843 318.481C936.843 325.366 934.914 331.494 931.057 336.865C927.248 342.236 921.877 346.362 914.943 349.243L951.125 400H932.229L901.394 354.15H887.038V400H871.804ZM887.038 342.651H892.019C901.491 342.651 908.693 340.723 913.625 336.865C918.557 333.008 921.022 327.368 921.022 319.946C921.022 308.716 912.917 303.101 896.706 303.101H887.038V342.651ZM1026.04 402.71C1010.66 402.71 998.352 397.559 989.123 387.256C979.943 376.904 975.354 363.086 975.354 345.801C975.354 328.516 979.943 314.722 989.123 304.419C998.352 294.067 1010.66 288.892 1026.04 288.892C1041.42 288.892 1053.7 294.067 1062.88 304.419C1072.11 314.722 1076.72 328.516 1076.72 345.801C1076.72 363.086 1072.11 376.904 1062.88 387.256C1053.7 397.559 1041.42 402.71 1026.04 402.71ZM1026.04 391.211C1036.83 391.211 1045.25 387.207 1051.31 379.199C1057.36 371.143 1060.39 359.961 1060.39 345.654C1060.39 331.445 1057.36 320.361 1051.31 312.402C1045.25 304.395 1036.83 300.391 1026.04 300.391C1015.25 300.391 1006.82 304.395 1000.77 312.402C994.714 320.361 991.687 331.445 991.687 345.654C991.687 359.961 994.714 371.143 1000.77 379.199C1006.82 387.207 1015.25 391.211 1026.04 391.211ZM1194.77 397.07C1181.64 400.83 1170.19 402.71 1160.42 402.71C1143.19 402.71 1129.95 397.827 1120.72 388.062C1111.54 378.247 1106.96 364.16 1106.96 345.801C1106.96 327.734 1111.62 313.745 1120.94 303.833C1130.32 293.872 1143.48 288.892 1160.42 288.892C1171.31 288.892 1182.71 290.527 1194.63 293.799V308.008C1179.68 302.93 1168.23 300.391 1160.28 300.391C1148.56 300.391 1139.45 304.37 1132.96 312.329C1126.51 320.239 1123.29 331.421 1123.29 345.874C1123.29 360.181 1126.75 371.313 1133.69 379.272C1140.62 387.231 1150.34 391.211 1162.84 391.211C1167.97 391.211 1173.51 390.308 1179.46 388.501V353.198H1194.77V397.07ZM1236.73 400V291.602H1252.11V388.501H1300.89V400H1236.73ZM1355.14 400V354.736L1318.96 291.602H1336.54L1364.67 340.527L1394.99 291.602H1409.27L1370.52 354.443V400H1355.14ZM1440.16 400V291.602H1469.68C1478.18 291.602 1484.72 292.31 1489.31 293.726C1493.95 295.093 1497.73 297.534 1500.66 301.05C1504.52 305.688 1506.45 312.012 1506.45 320.02C1506.45 331.543 1502.54 340.576 1494.73 347.119C1486.92 353.662 1476.08 356.934 1462.21 356.934H1455.4V400H1440.16ZM1455.4 345.288H1461.62C1470.75 345.288 1477.81 343.188 1482.79 338.989C1487.77 334.79 1490.26 328.833 1490.26 321.118C1490.26 314.673 1488.28 310.059 1484.33 307.275C1480.42 304.492 1473.93 303.101 1464.85 303.101H1455.4V345.288ZM1538.07 400V291.602H1553.45V337.305H1605.02V291.602H1620.4V400H1605.02V348.804H1553.45V400H1538.07ZM1807.28 394.434C1796.59 399.951 1784.92 402.71 1772.27 402.71C1755.43 402.71 1742.41 397.778 1733.23 387.915C1724.05 378.052 1719.46 364.038 1719.46 345.874C1719.46 327.759 1724.13 313.745 1733.45 303.833C1742.83 293.872 1756.04 288.892 1773.08 288.892C1782.75 288.892 1794.1 290.479 1807.14 293.652V308.081C1792.29 302.954 1780.84 300.391 1772.79 300.391C1761.02 300.391 1751.91 304.37 1745.47 312.329C1739.02 320.288 1735.8 331.519 1735.8 346.021C1735.8 359.888 1739.24 370.801 1746.12 378.76C1753.01 386.719 1762.43 390.698 1774.4 390.698C1784.6 390.698 1795.56 387.549 1807.28 381.25V394.434ZM1889.01 402.71C1873.62 402.71 1861.32 397.559 1852.09 387.256C1842.91 376.904 1838.32 363.086 1838.32 345.801C1838.32 328.516 1842.91 314.722 1852.09 304.419C1861.32 294.067 1873.62 288.892 1889.01 288.892C1904.39 288.892 1916.67 294.067 1925.85 304.419C1935.08 314.722 1939.69 328.516 1939.69 345.801C1939.69 363.086 1935.08 376.904 1925.85 387.256C1916.67 397.559 1904.39 402.71 1889.01 402.71ZM1889.01 391.211C1899.8 391.211 1908.22 387.207 1914.27 379.199C1920.33 371.143 1923.36 359.961 1923.36 345.654C1923.36 331.445 1920.33 320.361 1914.27 312.402C1908.22 304.395 1899.8 300.391 1889.01 300.391C1878.21 300.391 1869.79 304.395 1863.74 312.402C1857.68 320.361 1854.66 331.445 1854.66 345.654C1854.66 359.961 1857.68 371.143 1863.74 379.199C1869.79 387.207 1878.21 391.211 1889.01 391.211ZM1976.3 400V291.602H2012.33C2023.07 291.602 2031.74 292.798 2038.33 295.19C2044.97 297.583 2050.71 301.636 2055.54 307.349C2063.21 316.431 2067.04 328.394 2067.04 343.237C2067.04 359.985 2062.55 373.56 2053.57 383.96C2048.68 389.673 2043.02 393.774 2036.57 396.265C2030.18 398.755 2022.17 400 2012.55 400H1976.3ZM1991.68 388.501H2011.38C2025.44 388.501 2035.4 384.717 2041.26 377.148C2047.56 369.092 2050.71 358.276 2050.71 344.702C2050.71 331.958 2047.61 321.948 2041.41 314.673C2037.65 310.229 2033.16 307.202 2027.93 305.591C2022.71 303.931 2014.85 303.101 2004.35 303.101H1991.68V388.501ZM2103.65 400V291.602H2164.22V303.101H2119.03V337.891H2156.9V349.243H2119.03V388.501H2167.37V400H2103.65Z" fill="#203272"/>
<path d="M591.989 400H590.989V401H591.989V400ZM591.989 291.602V290.602H590.989V291.602H591.989ZM607.37 291.602H608.37V290.602H607.37V291.602ZM607.37 337.305H606.37V338.305H607.37V337.305ZM658.933 337.305V338.305H659.933V337.305H658.933ZM658.933 291.602V290.602H657.933V291.602H658.933ZM674.313 291.602H675.313V290.602H674.313V291.602ZM674.313 400V401H675.313V400H674.313ZM658.933 400H657.933V401H658.933V400ZM658.933 348.804H659.933V347.804H658.933V348.804ZM607.37 348.804V347.804H606.37V348.804H607.37ZM607.37 400V401H608.37V400H607.37ZM591.989 400H592.989V291.602H591.989H590.989V400H591.989ZM591.989 291.602V292.602H607.37V291.602V290.602H591.989V291.602ZM607.37 291.602H606.37V337.305H607.37H608.37V291.602H607.37ZM607.37 337.305V338.305H658.933V337.305V336.305H607.37V337.305ZM658.933 337.305H659.933V291.602H658.933H657.933V337.305H658.933ZM658.933 291.602V292.602H674.313V291.602V290.602H658.933V291.602ZM674.313 291.602H673.313V400H674.313H675.313V291.602H674.313ZM674.313 400V399H658.933V400V401H674.313V400ZM658.933 400H659.933V348.804H658.933H657.933V400H658.933ZM658.933 348.804V347.804H607.37V348.804V349.804H658.933V348.804ZM607.37 348.804H606.37V400H607.37H608.37V348.804H607.37ZM607.37 400V399H591.989V400V401H607.37V400ZM717.219 400H716.219V401H717.219V400ZM717.219 291.602V290.602H716.219V291.602H717.219ZM732.6 291.602H733.6V290.602H732.6V291.602ZM732.6 400V401H733.6V400H732.6ZM717.219 400H718.219V291.602H717.219H716.219V400H717.219ZM717.219 291.602V292.602H732.6V291.602V290.602H717.219V291.602ZM732.6 291.602H731.6V400H732.6H733.6V291.602H732.6ZM732.6 400V399H717.219V400V401H732.6V400ZM775.505 400H774.505V401H775.505V400ZM775.505 291.602V290.602H774.505V291.602H775.505ZM836.076 291.602H837.076V290.602H836.076V291.602ZM836.076 303.101V304.101H837.076V303.101H836.076ZM790.886 303.101V302.101H789.886V303.101H790.886ZM790.886 337.891H789.886V338.891H790.886V337.891ZM828.752 337.891H829.752V336.891H828.752V337.891ZM828.752 349.243V350.243H829.752V349.243H828.752ZM790.886 349.243V348.243H789.886V349.243H790.886ZM790.886 388.501H789.886V389.501H790.886V388.501ZM839.226 388.501H840.226V387.501H839.226V388.501ZM839.226 400V401H840.226V400H839.226ZM775.505 400H776.505V291.602H775.505H774.505V400H775.505ZM775.505 291.602V292.602H836.076V291.602V290.602H775.505V291.602ZM836.076 291.602H835.076V303.101H836.076H837.076V291.602H836.076ZM836.076 303.101V302.101H790.886V303.101V304.101H836.076V303.101ZM790.886 303.101H789.886V337.891H790.886H791.886V303.101H790.886ZM790.886 337.891V338.891H828.752V337.891V336.891H790.886V337.891ZM828.752 337.891H827.752V349.243H828.752H829.752V337.891H828.752ZM828.752 349.243V348.243H790.886V349.243V350.243H828.752V349.243ZM790.886 349.243H789.886V388.501H790.886H791.886V349.243H790.886ZM790.886 388.501V389.501H839.226V388.501V387.501H790.886V388.501ZM839.226 388.501H838.226V400H839.226H840.226V388.501H839.226ZM839.226 400V399H775.505V400V401H839.226V400ZM871.804 400H870.804V401H871.804V400ZM871.804 291.602V290.602H870.804V291.602H871.804ZM928.493 298.486L927.854 299.255L927.857 299.258L928.493 298.486ZM931.057 336.865L930.244 336.282L930.241 336.287L931.057 336.865ZM914.943 349.243L914.56 348.32L913.4 348.801L914.129 349.824L914.943 349.243ZM951.125 400V401H953.066L951.939 399.42L951.125 400ZM932.229 400L931.399 400.558L931.696 401H932.229V400ZM901.394 354.15L902.223 353.592L901.926 353.15H901.394V354.15ZM887.038 354.15V353.15H886.038V354.15H887.038ZM887.038 400V401H888.038V400H887.038ZM887.038 342.651H886.038V343.651H887.038V342.651ZM887.038 303.101V302.101H886.038V303.101H887.038ZM871.804 400H872.804V291.602H871.804H870.804V400H871.804ZM871.804 291.602V292.602H904.616V291.602V290.602H871.804V291.602ZM904.616 291.602V292.602C914.885 292.602 922.581 294.869 927.854 299.255L928.493 298.486L929.133 297.718C923.37 292.924 915.148 290.602 904.616 290.602V291.602ZM928.493 298.486L927.857 299.258C933.144 303.618 935.843 309.97 935.843 318.481H936.843H937.843C937.843 309.512 934.975 302.535 929.129 297.715L928.493 298.486ZM936.843 318.481H935.843C935.843 325.166 933.974 331.088 930.244 336.282L931.057 336.865L931.869 337.449C935.854 331.9 937.843 325.566 937.843 318.481H936.843ZM931.057 336.865L930.241 336.287C926.556 341.484 921.345 345.501 914.56 348.32L914.943 349.243L915.327 350.167C922.409 347.224 927.94 342.989 931.872 337.444L931.057 336.865ZM914.943 349.243L914.129 349.824L950.311 400.58L951.125 400L951.939 399.42L915.758 348.663L914.943 349.243ZM951.125 400V399H932.229V400V401H951.125V400ZM932.229 400L933.058 399.442L902.223 353.592L901.394 354.15L900.564 354.708L931.399 400.558L932.229 400ZM901.394 354.15V353.15H887.038V354.15V355.15H901.394V354.15ZM887.038 354.15H886.038V400H887.038H888.038V354.15H887.038ZM887.038 400V399H871.804V400V401H887.038V400ZM887.038 342.651V343.651H892.019V342.651V341.651H887.038V342.651ZM892.019 342.651V343.651C901.605 343.651 909.064 341.703 914.241 337.653L913.625 336.865L913.009 336.078C908.323 339.743 901.377 341.651 892.019 341.651V342.651ZM913.625 336.865L914.241 337.653C919.461 333.57 922.022 327.612 922.022 319.946H921.022H920.022C920.022 327.124 917.652 332.446 913.009 336.078L913.625 336.865ZM921.022 319.946H922.022C922.022 314.056 919.876 309.513 915.513 306.49C911.216 303.513 904.896 302.101 896.706 302.101V303.101V304.101C904.727 304.101 910.565 305.495 914.374 308.134C918.116 310.727 920.022 314.606 920.022 319.946H921.022ZM896.706 303.101V302.101H887.038V303.101V304.101H896.706V303.101ZM887.038 303.101H886.038V342.651H887.038H888.038V303.101H887.038ZM989.123 387.256L988.375 387.919L988.378 387.923L989.123 387.256ZM989.123 304.419L988.377 303.753L988.376 303.754L989.123 304.419ZM1062.88 304.419L1062.13 305.082L1062.13 305.086L1062.88 304.419ZM1062.88 387.256L1062.13 386.59L1062.13 386.591L1062.88 387.256ZM1051.31 379.199L1052.1 379.802L1052.11 379.8L1051.31 379.199ZM1051.31 312.402L1050.51 313.005L1050.51 313.008L1051.31 312.402ZM1000.77 312.402L1001.56 313.008L1001.57 313.005L1000.77 312.402ZM1000.77 379.199L999.969 379.8L999.971 379.802L1000.77 379.199ZM1026.04 402.71V401.71C1010.91 401.71 998.884 396.655 989.868 386.589L989.123 387.256L988.378 387.923C997.819 398.463 1010.41 403.71 1026.04 403.71V402.71ZM989.123 387.256L989.871 386.592C980.891 376.466 976.354 362.905 976.354 345.801H975.354H974.354C974.354 363.267 978.995 377.342 988.375 387.919L989.123 387.256ZM975.354 345.801H976.354C976.354 328.697 980.891 315.161 989.87 305.084L989.123 304.419L988.376 303.754C978.995 314.283 974.354 328.335 974.354 345.801H975.354ZM989.123 304.419L989.869 305.084C998.886 294.97 1010.91 289.892 1026.04 289.892V288.892V287.892C1010.41 287.892 997.817 293.164 988.377 303.753L989.123 304.419ZM1026.04 288.892V289.892C1041.17 289.892 1053.16 294.97 1062.13 305.082L1062.88 304.419L1063.63 303.755C1054.23 293.165 1041.67 287.892 1026.04 287.892V288.892ZM1062.88 304.419L1062.13 305.086C1071.16 315.163 1075.72 328.698 1075.72 345.801H1076.72H1077.72C1077.72 328.333 1073.05 314.28 1063.62 303.752L1062.88 304.419ZM1076.72 345.801H1075.72C1075.72 362.903 1071.16 376.464 1062.13 386.59L1062.88 387.256L1063.62 387.921C1073.05 377.345 1077.72 363.269 1077.72 345.801H1076.72ZM1062.88 387.256L1062.13 386.591C1053.16 396.655 1041.17 401.71 1026.04 401.71V402.71V403.71C1041.67 403.71 1054.23 398.463 1063.62 387.921L1062.88 387.256ZM1026.04 391.211V392.211C1037.11 392.211 1045.84 388.081 1052.1 379.802L1051.31 379.199L1050.51 378.596C1044.66 386.333 1036.54 390.211 1026.04 390.211V391.211ZM1051.31 379.199L1052.11 379.8C1058.33 371.511 1061.39 360.089 1061.39 345.654H1060.39H1059.39C1059.39 359.833 1056.39 370.774 1050.51 378.598L1051.31 379.199ZM1060.39 345.654H1061.39C1061.39 331.316 1058.33 319.99 1052.1 311.797L1051.31 312.402L1050.51 313.008C1056.39 320.733 1059.39 331.575 1059.39 345.654H1060.39ZM1051.31 312.402L1052.1 311.799C1045.84 303.521 1037.11 299.391 1026.04 299.391V300.391V301.391C1036.54 301.391 1044.66 305.269 1050.51 313.005L1051.31 312.402ZM1026.04 300.391V299.391C1014.96 299.391 1006.23 303.521 999.971 311.799L1000.77 312.402L1001.57 313.005C1007.42 305.269 1015.53 301.391 1026.04 301.391V300.391ZM1000.77 312.402L999.973 311.797C993.74 319.99 990.687 331.316 990.687 345.654H991.687H992.687C992.687 331.575 995.688 320.733 1001.56 313.008L1000.77 312.402ZM991.687 345.654H990.687C990.687 360.089 993.74 371.511 999.969 379.8L1000.77 379.199L1001.57 378.598C995.688 370.774 992.687 359.833 992.687 345.654H991.687ZM1000.77 379.199L999.971 379.802C1006.23 388.081 1014.96 392.211 1026.04 392.211V391.211V390.211C1015.53 390.211 1007.42 386.333 1001.57 378.596L1000.77 379.199ZM1194.77 397.07L1195.05 398.032L1195.77 397.824V397.07H1194.77ZM1120.72 388.062L1119.99 388.745L1120 388.748L1120.72 388.062ZM1120.94 303.833L1120.22 303.148L1120.22 303.148L1120.94 303.833ZM1194.63 293.799H1195.63V293.036L1194.89 292.835L1194.63 293.799ZM1194.63 308.008L1194.3 308.955L1195.63 309.404V308.008H1194.63ZM1132.96 312.329L1132.18 311.697L1132.18 311.697L1132.96 312.329ZM1179.46 388.501L1179.76 389.458L1180.46 389.243V388.501H1179.46ZM1179.46 353.198V352.198H1178.46V353.198H1179.46ZM1194.77 353.198H1195.77V352.198H1194.77V353.198ZM1194.77 397.07L1194.5 396.109C1181.42 399.852 1170.07 401.71 1160.42 401.71V402.71V403.71C1170.31 403.71 1181.86 401.808 1195.05 398.032L1194.77 397.07ZM1160.42 402.71V401.71C1143.38 401.71 1130.44 396.888 1121.45 387.375L1120.72 388.062L1120 388.748C1129.47 398.767 1142.99 403.71 1160.42 403.71V402.71ZM1120.72 388.062L1121.45 387.378C1112.5 377.808 1107.96 364.001 1107.96 345.801H1106.96H1105.96C1105.96 364.32 1110.59 378.686 1119.99 388.745L1120.72 388.062ZM1106.96 345.801H1107.96C1107.96 327.904 1112.57 314.191 1121.67 304.518L1120.94 303.833L1120.22 303.148C1110.66 313.299 1105.96 327.565 1105.96 345.801H1106.96ZM1120.94 303.833L1121.67 304.518C1130.82 294.804 1143.68 289.892 1160.42 289.892V288.892V287.892C1143.27 287.892 1129.82 292.94 1120.22 303.148L1120.94 303.833ZM1160.42 288.892V289.892C1171.21 289.892 1182.52 291.512 1194.36 294.763L1194.63 293.799L1194.89 292.835C1182.9 289.542 1171.41 287.892 1160.42 287.892V288.892ZM1194.63 293.799H1193.63V308.008H1194.63H1195.63V293.799H1194.63ZM1194.63 308.008L1194.95 307.061C1179.98 301.975 1168.41 299.391 1160.28 299.391V300.391V301.391C1168.06 301.391 1179.39 303.884 1194.3 308.955L1194.63 308.008ZM1160.28 300.391V299.391C1148.3 299.391 1138.89 303.471 1132.18 311.697L1132.96 312.329L1133.73 312.961C1140.01 305.27 1148.81 301.391 1160.28 301.391V300.391ZM1132.96 312.329L1132.18 311.697C1125.54 319.847 1122.29 331.285 1122.29 345.874H1123.29H1124.29C1124.29 331.557 1127.48 320.631 1133.73 312.961L1132.96 312.329ZM1123.29 345.874H1122.29C1122.29 360.336 1125.79 371.732 1132.93 379.929L1133.69 379.272L1134.44 378.616C1127.72 370.895 1124.29 360.026 1124.29 345.874H1123.29ZM1133.69 379.272L1132.93 379.929C1140.09 388.147 1150.11 392.211 1162.84 392.211V391.211V390.211C1150.57 390.211 1141.15 386.316 1134.44 378.616L1133.69 379.272ZM1162.84 391.211V392.211C1168.08 392.211 1173.72 391.287 1179.76 389.458L1179.46 388.501L1179.17 387.544C1173.29 389.328 1167.85 390.211 1162.84 390.211V391.211ZM1179.46 388.501H1180.46V353.198H1179.46H1178.46V388.501H1179.46ZM1179.46 353.198V354.198H1194.77V353.198V352.198H1179.46V353.198ZM1194.77 353.198H1193.77V397.07H1194.77H1195.77V353.198H1194.77ZM1236.73 400H1235.73V401H1236.73V400ZM1236.73 291.602V290.602H1235.73V291.602H1236.73ZM1252.11 291.602H1253.11V290.602H1252.11V291.602ZM1252.11 388.501H1251.11V389.501H1252.11V388.501ZM1300.89 388.501H1301.89V387.501H1300.89V388.501ZM1300.89 400V401H1301.89V400H1300.89ZM1236.73 400H1237.73V291.602H1236.73H1235.73V400H1236.73ZM1236.73 291.602V292.602H1252.11V291.602V290.602H1236.73V291.602ZM1252.11 291.602H1251.11V388.501H1252.11H1253.11V291.602H1252.11ZM1252.11 388.501V389.501H1300.89V388.501V387.501H1252.11V388.501ZM1300.89 388.501H1299.89V400H1300.89H1301.89V388.501H1300.89ZM1300.89 400V399H1236.73V400V401H1300.89V400ZM1355.14 400H1354.14V401H1355.14V400ZM1355.14 354.736H1356.14V354.47L1356.01 354.239L1355.14 354.736ZM1318.96 291.602V290.602H1317.24L1318.09 292.099L1318.96 291.602ZM1336.54 291.602L1337.41 291.103L1337.12 290.602H1336.54V291.602ZM1364.67 340.527L1363.8 341.026L1364.63 342.478L1365.52 341.054L1364.67 340.527ZM1394.99 291.602V290.602H1394.43L1394.14 291.075L1394.99 291.602ZM1409.27 291.602L1410.12 292.126L1411.06 290.602H1409.27V291.602ZM1370.52 354.443L1369.67 353.919L1369.52 354.16V354.443H1370.52ZM1370.52 400V401H1371.52V400H1370.52ZM1355.14 400H1356.14V354.736H1355.14H1354.14V400H1355.14ZM1355.14 354.736L1356.01 354.239L1319.83 291.104L1318.96 291.602L1318.09 292.099L1354.28 355.234L1355.14 354.736ZM1318.96 291.602V292.602H1336.54V291.602V290.602H1318.96V291.602ZM1336.54 291.602L1335.67 292.1L1363.8 341.026L1364.67 340.527L1365.53 340.029L1337.41 291.103L1336.54 291.602ZM1364.67 340.527L1365.52 341.054L1395.84 292.128L1394.99 291.602L1394.14 291.075L1363.82 340.001L1364.67 340.527ZM1394.99 291.602V292.602H1409.27V291.602V290.602H1394.99V291.602ZM1409.27 291.602L1408.42 291.077L1369.67 353.919L1370.52 354.443L1371.38 354.968L1410.12 292.126L1409.27 291.602ZM1370.52 354.443H1369.52V400H1370.52H1371.52V354.443H1370.52ZM1370.52 400V399H1355.14V400V401H1370.52V400ZM1440.16 400H1439.16V401H1440.16V400ZM1440.16 291.602V290.602H1439.16V291.602H1440.16ZM1489.31 293.726L1489.01 294.681L1489.03 294.685L1489.31 293.726ZM1500.66 301.05L1501.43 300.41L1501.43 300.41L1500.66 301.05ZM1455.4 356.934V355.934H1454.4V356.934H1455.4ZM1455.4 400V401H1456.4V400H1455.4ZM1455.4 345.288H1454.4V346.288H1455.4V345.288ZM1484.33 307.275L1483.75 308.09L1483.75 308.093L1484.33 307.275ZM1455.4 303.101V302.101H1454.4V303.101H1455.4ZM1440.16 400H1441.16V291.602H1440.16H1439.16V400H1440.16ZM1440.16 291.602V292.602H1469.68V291.602V290.602H1440.16V291.602ZM1469.68 291.602V292.602C1478.14 292.602 1484.57 293.309 1489.01 294.681L1489.31 293.726L1489.6 292.77C1484.87 291.31 1478.21 290.602 1469.68 290.602V291.602ZM1489.31 293.726L1489.03 294.685C1493.49 295.999 1497.1 298.335 1499.89 301.69L1500.66 301.05L1501.43 300.41C1498.37 296.733 1494.41 294.186 1489.59 292.766L1489.31 293.726ZM1500.66 301.05L1499.89 301.689C1503.56 306.097 1505.45 312.168 1505.45 320.02H1506.45H1507.45C1507.45 311.855 1505.48 305.28 1501.43 300.41L1500.66 301.05ZM1506.45 320.02H1505.45C1505.45 331.29 1501.64 340.026 1494.09 346.352L1494.73 347.119L1495.37 347.886C1503.44 341.127 1507.45 331.795 1507.45 320.02H1506.45ZM1494.73 347.119L1494.09 346.352C1486.51 352.698 1475.93 355.934 1462.21 355.934V356.934V357.934C1476.23 357.934 1487.32 354.626 1495.37 347.886L1494.73 347.119ZM1462.21 356.934V355.934H1455.4V356.934V357.934H1462.21V356.934ZM1455.4 356.934H1454.4V400H1455.4H1456.4V356.934H1455.4ZM1455.4 400V399H1440.16V400V401H1455.4V400ZM1455.4 345.288V346.288H1461.62V345.288V344.288H1455.4V345.288ZM1461.62 345.288V346.288C1470.9 346.288 1478.21 344.156 1483.43 339.754L1482.79 338.989L1482.15 338.225C1477.41 342.221 1470.61 344.288 1461.62 344.288V345.288ZM1482.79 338.989L1483.43 339.754C1488.68 335.329 1491.26 329.068 1491.26 321.118H1490.26H1489.26C1489.26 328.598 1486.86 334.251 1482.15 338.225L1482.79 338.989ZM1490.26 321.118H1491.26C1491.26 314.466 1489.21 309.487 1484.9 306.458L1484.33 307.275L1483.75 308.093C1487.36 310.63 1489.26 314.879 1489.26 321.118H1490.26ZM1484.33 307.275L1484.91 306.461C1480.74 303.49 1473.98 302.101 1464.85 302.101V303.101V304.101C1473.88 304.101 1480.11 305.495 1483.75 308.09L1484.33 307.275ZM1464.85 303.101V302.101H1455.4V303.101V304.101H1464.85V303.101ZM1455.4 303.101H1454.4V345.288H1455.4H1456.4V303.101H1455.4ZM1538.07 400H1537.07V401H1538.07V400ZM1538.07 291.602V290.602H1537.07V291.602H1538.07ZM1553.45 291.602H1554.45V290.602H1553.45V291.602ZM1553.45 337.305H1552.45V338.305H1553.45V337.305ZM1605.02 337.305V338.305H1606.02V337.305H1605.02ZM1605.02 291.602V290.602H1604.02V291.602H1605.02ZM1620.4 291.602H1621.4V290.602H1620.4V291.602ZM1620.4 400V401H1621.4V400H1620.4ZM1605.02 400H1604.02V401H1605.02V400ZM1605.02 348.804H1606.02V347.804H1605.02V348.804ZM1553.45 348.804V347.804H1552.45V348.804H1553.45ZM1553.45 400V401H1554.45V400H1553.45ZM1538.07 400H1539.07V291.602H1538.07H1537.07V400H1538.07ZM1538.07 291.602V292.602H1553.45V291.602V290.602H1538.07V291.602ZM1553.45 291.602H1552.45V337.305H1553.45H1554.45V291.602H1553.45ZM1553.45 337.305V338.305H1605.02V337.305V336.305H1553.45V337.305ZM1605.02 337.305H1606.02V291.602H1605.02H1604.02V337.305H1605.02ZM1605.02 291.602V292.602H1620.4V291.602V290.602H1605.02V291.602ZM1620.4 291.602H1619.4V400H1620.4H1621.4V291.602H1620.4ZM1620.4 400V399H1605.02V400V401H1620.4V400ZM1605.02 400H1606.02V348.804H1605.02H1604.02V400H1605.02ZM1605.02 348.804V347.804H1553.45V348.804V349.804H1605.02V348.804ZM1553.45 348.804H1552.45V400H1553.45H1554.45V348.804H1553.45ZM1553.45 400V399H1538.07V400V401H1553.45V400ZM1807.28 394.434L1807.74 395.322L1808.28 395.043V394.434H1807.28ZM1733.45 303.833L1732.73 303.148L1732.73 303.148L1733.45 303.833ZM1807.14 293.652H1808.14V292.867L1807.37 292.681L1807.14 293.652ZM1807.14 308.081L1806.81 309.026L1808.14 309.484V308.081H1807.14ZM1807.28 381.25H1808.28V379.577L1806.81 380.369L1807.28 381.25ZM1807.28 394.434L1806.82 393.545C1796.28 398.986 1784.77 401.71 1772.27 401.71V402.71V403.71C1785.07 403.71 1796.9 400.917 1807.74 395.322L1807.28 394.434ZM1772.27 402.71V401.71C1755.63 401.71 1742.91 396.845 1733.97 387.234L1733.23 387.915L1732.5 388.596C1741.92 398.711 1755.22 403.71 1772.27 403.71V402.71ZM1733.23 387.915L1733.97 387.234C1725.01 377.612 1720.46 363.875 1720.46 345.874H1719.46H1718.46C1718.46 364.201 1723.1 378.491 1732.5 388.596L1733.23 387.915ZM1719.46 345.874H1720.46C1720.46 327.927 1725.08 314.19 1734.18 304.518L1733.45 303.833L1732.73 303.148C1723.17 313.3 1718.46 327.59 1718.46 345.874H1719.46ZM1733.45 303.833L1734.18 304.518C1743.32 294.805 1756.24 289.892 1773.08 289.892V288.892V287.892C1755.83 287.892 1742.33 292.939 1732.73 303.148L1733.45 303.833ZM1773.08 288.892V289.892C1782.64 289.892 1793.91 291.462 1806.9 294.624L1807.14 293.652L1807.37 292.681C1794.29 289.495 1782.85 287.892 1773.08 287.892V288.892ZM1807.14 293.652H1806.14V308.081H1807.14H1808.14V293.652H1807.14ZM1807.14 308.081L1807.46 307.136C1792.59 302 1781.01 299.391 1772.79 299.391V300.391V301.391C1780.67 301.391 1791.99 303.908 1806.81 309.026L1807.14 308.081ZM1772.79 300.391V299.391C1760.77 299.391 1751.35 303.47 1744.69 311.7L1745.47 312.329L1746.24 312.958C1752.47 305.271 1761.27 301.391 1772.79 301.391V300.391ZM1745.47 312.329L1744.69 311.7C1738.05 319.898 1734.8 331.383 1734.8 346.021H1735.8H1736.8C1736.8 331.654 1739.99 320.678 1746.24 312.958L1745.47 312.329ZM1735.8 346.021H1734.8C1734.8 360.05 1738.28 371.222 1745.37 379.414L1746.12 378.76L1746.88 378.106C1740.2 370.379 1736.8 359.725 1736.8 346.021H1735.8ZM1746.12 378.76L1745.37 379.414C1752.47 387.624 1762.19 391.698 1774.4 391.698V390.698V389.698C1762.68 389.698 1753.55 385.814 1746.88 378.106L1746.12 378.76ZM1774.4 390.698V391.698C1784.81 391.698 1795.93 388.485 1807.76 382.131L1807.28 381.25L1806.81 380.369C1795.19 386.613 1784.39 389.698 1774.4 389.698V390.698ZM1807.28 381.25H1806.28V394.434H1807.28H1808.28V381.25H1807.28ZM1852.09 387.256L1851.34 387.919L1851.35 387.923L1852.09 387.256ZM1852.09 304.419L1851.35 303.753L1851.35 303.754L1852.09 304.419ZM1925.85 304.419L1925.1 305.082L1925.1 305.086L1925.85 304.419ZM1925.85 387.256L1925.1 386.59L1925.1 386.591L1925.85 387.256ZM1914.27 379.199L1915.07 379.802L1915.07 379.8L1914.27 379.199ZM1914.27 312.402L1913.48 313.005L1913.48 313.008L1914.27 312.402ZM1863.74 312.402L1864.53 313.008L1864.53 313.005L1863.74 312.402ZM1863.74 379.199L1862.94 379.8L1862.94 379.802L1863.74 379.199ZM1889.01 402.71V401.71C1873.87 401.71 1861.85 396.655 1852.84 386.589L1852.09 387.256L1851.35 387.923C1860.79 398.463 1873.38 403.71 1889.01 403.71V402.71ZM1852.09 387.256L1852.84 386.592C1843.86 376.466 1839.32 362.905 1839.32 345.801H1838.32H1837.32C1837.32 363.267 1841.96 377.342 1851.34 387.919L1852.09 387.256ZM1838.32 345.801H1839.32C1839.32 328.697 1843.86 315.161 1852.84 305.084L1852.09 304.419L1851.35 303.754C1841.96 314.283 1837.32 328.335 1837.32 345.801H1838.32ZM1852.09 304.419L1852.84 305.084C1861.86 294.97 1873.88 289.892 1889.01 289.892V288.892V287.892C1873.37 287.892 1860.79 293.164 1851.35 303.753L1852.09 304.419ZM1889.01 288.892V289.892C1904.14 289.892 1916.13 294.97 1925.1 305.082L1925.85 304.419L1926.59 303.755C1917.2 293.165 1904.64 287.892 1889.01 287.892V288.892ZM1925.85 304.419L1925.1 305.086C1934.13 315.163 1938.69 328.698 1938.69 345.801H1939.69H1940.69C1940.69 328.333 1936.02 314.28 1926.59 303.752L1925.85 304.419ZM1939.69 345.801H1938.69C1938.69 362.903 1934.13 376.464 1925.1 386.59L1925.85 387.256L1926.59 387.921C1936.02 377.345 1940.69 363.269 1940.69 345.801H1939.69ZM1925.85 387.256L1925.1 386.591C1916.13 396.655 1904.14 401.71 1889.01 401.71V402.71V403.71C1904.64 403.71 1917.2 398.463 1926.59 387.921L1925.85 387.256ZM1889.01 391.211V392.211C1900.08 392.211 1908.81 388.081 1915.07 379.802L1914.27 379.199L1913.48 378.596C1907.63 386.333 1899.51 390.211 1889.01 390.211V391.211ZM1914.27 379.199L1915.07 379.8C1921.3 371.511 1924.36 360.089 1924.36 345.654H1923.36H1922.36C1922.36 359.833 1919.35 370.774 1913.47 378.598L1914.27 379.199ZM1923.36 345.654H1924.36C1924.36 331.316 1921.3 319.99 1915.07 311.797L1914.27 312.402L1913.48 313.008C1919.36 320.733 1922.36 331.575 1922.36 345.654H1923.36ZM1914.27 312.402L1915.07 311.799C1908.81 303.521 1900.08 299.391 1889.01 299.391V300.391V301.391C1899.51 301.391 1907.63 305.269 1913.48 313.005L1914.27 312.402ZM1889.01 300.391V299.391C1877.93 299.391 1869.2 303.521 1862.94 311.799L1863.74 312.402L1864.53 313.005C1870.38 305.269 1878.5 301.391 1889.01 301.391V300.391ZM1863.74 312.402L1862.94 311.797C1856.71 319.99 1853.66 331.316 1853.66 345.654H1854.66H1855.66C1855.66 331.575 1858.66 320.733 1864.53 313.008L1863.74 312.402ZM1854.66 345.654H1853.66C1853.66 360.089 1856.71 371.511 1862.94 379.8L1863.74 379.199L1864.54 378.598C1858.66 370.774 1855.66 359.833 1855.66 345.654H1854.66ZM1863.74 379.199L1862.94 379.802C1869.2 388.081 1877.93 392.211 1889.01 392.211V391.211V390.211C1878.5 390.211 1870.38 386.333 1864.53 378.596L1863.74 379.199ZM1976.3 400H1975.3V401H1976.3V400ZM1976.3 291.602V290.602H1975.3V291.602H1976.3ZM2038.33 295.19L2037.99 296.13L2037.99 296.131L2038.33 295.19ZM2055.54 307.349L2056.31 306.704L2056.31 306.703L2055.54 307.349ZM2053.57 383.96L2052.81 383.306L2052.81 383.31L2053.57 383.96ZM2036.57 396.265L2036.21 395.332L2036.21 395.333L2036.57 396.265ZM1991.68 388.501H1990.68V389.501H1991.68V388.501ZM2041.26 377.148L2040.47 376.533L2040.47 376.536L2041.26 377.148ZM2041.41 314.673L2040.64 315.319L2040.65 315.322L2041.41 314.673ZM2027.93 305.591L2027.63 306.544L2027.64 306.546L2027.93 305.591ZM1991.68 303.101V302.101H1990.68V303.101H1991.68ZM1976.3 400H1977.3V291.602H1976.3H1975.3V400H1976.3ZM1976.3 291.602V292.602H2012.33V291.602V290.602H1976.3V291.602ZM2012.33 291.602V292.602C2023.01 292.602 2031.55 293.793 2037.99 296.13L2038.33 295.19L2038.67 294.25C2031.93 291.803 2023.13 290.602 2012.33 290.602V291.602ZM2038.33 295.19L2037.99 296.131C2044.46 298.461 2050.05 302.407 2054.78 307.995L2055.54 307.349L2056.31 306.703C2051.37 300.864 2045.49 296.705 2038.67 294.25L2038.33 295.19ZM2055.54 307.349L2054.78 307.994C2062.26 316.854 2066.04 328.569 2066.04 343.237H2067.04H2068.04C2068.04 328.218 2064.16 316.008 2056.31 306.704L2055.54 307.349ZM2067.04 343.237H2066.04C2066.04 359.8 2061.6 373.125 2052.81 383.306L2053.57 383.96L2054.32 384.614C2063.5 373.994 2068.04 360.171 2068.04 343.237H2067.04ZM2053.57 383.96L2052.81 383.31C2048.02 388.908 2042.49 392.907 2036.21 395.332L2036.57 396.265L2036.93 397.197C2043.55 394.642 2049.35 390.437 2054.33 384.61L2053.57 383.96ZM2036.57 396.265L2036.21 395.333C2029.97 397.764 2022.09 399 2012.55 399V400V401C2022.25 401 2030.39 399.746 2036.94 397.197L2036.57 396.265ZM2012.55 400V399H1976.3V400V401H2012.55V400ZM1991.68 388.501V389.501H2011.38V388.501V387.501H1991.68V388.501ZM2011.38 388.501V389.501C2025.6 389.501 2035.93 385.672 2042.05 377.761L2041.26 377.148L2040.47 376.536C2034.88 383.761 2025.28 387.501 2011.38 387.501V388.501ZM2041.26 377.148L2042.05 377.764C2048.52 369.482 2051.71 358.427 2051.71 344.702H2050.71H2049.71C2049.71 358.126 2046.6 368.702 2040.47 376.533L2041.26 377.148ZM2050.71 344.702H2051.71C2051.71 331.8 2048.57 321.533 2042.17 314.024L2041.41 314.673L2040.65 315.322C2046.65 322.363 2049.71 332.116 2049.71 344.702H2050.71ZM2041.41 314.673L2042.17 314.027C2038.3 309.448 2033.65 306.307 2028.23 304.635L2027.93 305.591L2027.64 306.546C2032.67 308.098 2037 311.011 2040.64 315.319L2041.41 314.673ZM2027.93 305.591L2028.23 304.638C2022.86 302.93 2014.87 302.101 2004.35 302.101V303.101V304.101C2014.82 304.101 2022.55 304.932 2027.63 306.544L2027.93 305.591ZM2004.35 303.101V302.101H1991.68V303.101V304.101H2004.35V303.101ZM1991.68 303.101H1990.68V388.501H1991.68H1992.68V303.101H1991.68ZM2103.65 400H2102.65V401H2103.65V400ZM2103.65 291.602V290.602H2102.65V291.602H2103.65ZM2164.22 291.602H2165.22V290.602H2164.22V291.602ZM2164.22 303.101V304.101H2165.22V303.101H2164.22ZM2119.03 303.101V302.101H2118.03V303.101H2119.03ZM2119.03 337.891H2118.03V338.891H2119.03V337.891ZM2156.9 337.891H2157.9V336.891H2156.9V337.891ZM2156.9 349.243V350.243H2157.9V349.243H2156.9ZM2119.03 349.243V348.243H2118.03V349.243H2119.03ZM2119.03 388.501H2118.03V389.501H2119.03V388.501ZM2167.37 388.501H2168.37V387.501H2167.37V388.501ZM2167.37 400V401H2168.37V400H2167.37ZM2103.65 400H2104.65V291.602H2103.65H2102.65V400H2103.65ZM2103.65 291.602V292.602H2164.22V291.602V290.602H2103.65V291.602ZM2164.22 291.602H2163.22V303.101H2164.22H2165.22V291.602H2164.22ZM2164.22 303.101V302.101H2119.03V303.101V304.101H2164.22V303.101ZM2119.03 303.101H2118.03V337.891H2119.03H2120.03V303.101H2119.03ZM2119.03 337.891V338.891H2156.9V337.891V336.891H2119.03V337.891ZM2156.9 337.891H2155.9V349.243H2156.9H2157.9V337.891H2156.9ZM2156.9 349.243V348.243H2119.03V349.243V350.243H2156.9V349.243ZM2119.03 349.243H2118.03V388.501H2119.03H2120.03V349.243H2119.03ZM2119.03 388.501V389.501H2167.37V388.501V387.501H2119.03V388.501ZM2167.37 388.501H2166.37V400H2167.37H2168.37V388.501H2167.37ZM2167.37 400V399H2103.65V400V401H2167.37V400Z" fill="#14264A" mask="url(#path-1-outside-1_26_2)"/>
<path d="M168.55 8.11796C175.782 5.90397 187.442 3.39478 194.379 2.21399C201.316 1.18079 210.467 0.295198 214.747 0.147599C221.094 0 223.013 0.590397 229.802 7.37996V61.2537C229.802 115.127 229.802 115.127 226.555 118.67C223.603 121.769 220.651 122.655 205.449 124.869C195.707 126.197 179.176 129.445 168.55 132.101C158.07 134.758 144.049 139.038 125.747 146.123L129.289 158.374C131.208 165.016 133.274 171.068 133.717 171.658C134.16 172.396 138.292 171.658 142.72 170.034C147.148 168.411 156.151 166.344 162.646 165.311C169.878 164.13 180.505 163.688 189.951 164.278C199.545 164.721 209.434 166.197 215.78 168.263C221.537 170.034 230.688 173.724 246.776 181.695L256.074 177.267C261.093 174.757 270.982 170.92 278.214 168.706C289.726 165.164 293.416 164.721 313.194 164.721C333.415 164.721 336.367 165.016 347.141 168.706C353.636 170.92 359.392 172.691 360.13 172.691C360.72 172.691 362.787 167.23 364.853 160.588C366.919 153.798 368.543 147.894 368.543 147.304C368.543 146.566 366.034 145.09 363.082 143.762C359.982 142.581 351.569 139.481 344.189 137.12C336.957 134.758 321.312 130.773 309.504 128.411C297.697 126.05 284.413 123.836 279.985 123.245C275.557 122.803 270.686 121.622 269.21 120.589C267.439 119.555 265.963 115.865 265.225 111.437C264.487 107.452 263.897 82.508 263.749 56.0877C263.602 10.0367 263.749 7.97036 266.701 3.98518C269.358 0.295199 270.539 0 279.247 0C284.56 0 295.63 1.32839 304.043 3.09958C312.309 4.72318 324.412 7.82276 330.906 9.88915C337.4 11.9555 349.06 16.8263 356.735 20.6639C364.41 24.6491 375.628 31.1434 381.531 35.2762C387.288 39.409 396.291 46.9366 410.756 61.2537L420.792 93.7255C426.253 111.585 437.471 147.156 445.588 172.691C453.854 198.226 464.776 232.764 469.942 249.443C475.108 266.121 482.635 289.59 486.62 301.84C490.753 313.944 494 326.194 494 328.703C494 333.131 484.259 343.316 377.989 448.997C314.08 512.612 260.207 565.748 257.993 567.076C255.779 568.7 251.351 569.733 247.514 569.733C243.676 569.733 239.248 568.7 237.034 567.076C234.968 565.748 180.948 512.76 117.186 449.44C30.104 362.946 0.879835 333.279 0.141852 329.884C-0.596131 326.637 1.47022 318.519 8.11207 298.15C12.9828 283.095 24.0525 249 32.4655 222.137C41.0261 195.274 53.7194 155.127 60.804 132.839C67.7411 110.552 75.8589 85.3123 78.5156 76.7516C83.3863 61.5489 83.8291 60.9585 94.3085 50.9217C100.212 45.1654 110.396 36.8998 116.891 32.4718C123.385 28.1915 134.75 21.6971 141.982 18.1547C149.214 14.7599 161.317 10.1843 168.55 8.11796Z" fill="#203272"/>
<path fill-rule="evenodd" clip-rule="evenodd" d="M207.957 21.6971C208.843 22.1399 209.433 37.933 209.138 103.319L203.677 104.205C200.578 104.648 196.593 105.238 194.821 105.681C192.165 106.124 190.984 105.238 189.36 101.401C188.327 98.8915 182.276 82.2128 176.077 64.6484C169.878 46.9365 164.859 32.1766 164.859 31.7338C164.859 31.291 168.697 29.9626 173.42 28.6342C177.995 27.3058 187.442 24.9443 194.231 23.6159C201.02 22.1399 207.219 21.4019 207.957 21.6971ZM284.855 20.3687L290.169 21.2543C293.121 21.8447 302.419 23.9111 310.98 25.9775C319.54 28.0438 327.068 30.2578 327.658 30.7006C328.396 31.291 323.526 48.1173 317.031 68.1908C310.389 88.4119 304.633 105.091 304.043 105.386C303.305 105.681 298.729 105.238 284.413 102.581L284.855 20.3687ZM144.491 39.8518C145.229 39.8518 146.114 41.0326 146.557 42.5086C147 43.837 152.314 59.0397 158.365 76.0136C164.416 93.1351 169.435 108.043 169.73 109.076C169.878 110.552 166.483 111.88 158.217 113.799C151.723 115.275 140.358 118.522 133.126 121.031C125.746 123.541 119.547 125.164 119.104 124.574C118.662 124.131 114.824 111.585 103.016 70.1096L109.953 63.7629C113.791 60.2205 122.794 53.4309 130.174 48.7077C137.406 43.837 143.901 39.8518 144.491 39.8518ZM348.912 39.8518C349.65 39.8518 357.03 44.4274 365.591 50.1837C374.151 55.7925 383.302 62.4345 385.811 64.9436C388.468 67.4528 390.682 70.2572 390.682 71.2904C390.682 72.3236 387.582 84.4267 383.597 98.4487C379.76 112.323 376.365 123.983 375.922 124.426C375.48 125.017 368.543 123.098 360.425 120.293C352.307 117.637 340.942 114.389 335.333 113.209C327.953 111.733 325.149 110.552 325.444 109.076C325.74 107.895 330.905 92.6923 336.957 75.2756C342.861 57.8589 347.879 42.8038 347.879 41.7706C347.879 40.7374 348.322 39.8518 348.912 39.8518ZM91.9465 105.091C92.0941 105.386 94.8985 114.832 98.1456 126.197C101.393 137.562 104.492 148.042 104.935 149.518C105.673 151.88 104.492 152.027 91.061 152.027C79.9912 152.027 76.4489 151.584 76.8917 150.256C77.1869 149.223 80.5816 138.596 84.5667 126.493C88.5518 114.537 91.7989 104.943 91.9465 105.091ZM402.933 107.009L410.017 128.411C413.855 140.219 417.102 150.404 417.102 150.994C417.249 151.584 410.903 152.027 403.228 152.027C395.553 152.027 389.206 151.88 389.206 151.732C389.206 151.437 390.092 148.337 391.272 144.647C392.453 140.957 395.553 131.068 398.209 122.507L402.933 107.009ZM69.3643 172.691H112.462L116.005 185.68C117.924 192.765 119.695 199.407 119.99 200.44C120.433 201.768 113.938 202.211 91.061 202.211C74.8253 202.211 61.5416 201.768 61.5416 201.178C61.5416 200.587 63.3128 193.945 65.3792 186.418L69.3643 172.691ZM382.269 172.691H403.523C415.183 172.691 424.629 172.839 424.629 172.986C424.629 173.281 426.696 179.923 433.485 202.211H403.966C376.66 202.211 374.594 201.916 375.037 199.554C375.332 198.226 377.103 191.584 379.022 184.794L382.269 172.691ZM186.261 183.613C194.969 184.056 203.825 185.68 212.09 188.189C219.027 190.403 225.079 192.617 225.669 193.207C226.259 193.65 219.47 215.347 210.467 241.325C201.463 267.302 192.46 293.427 190.541 299.331C187.737 307.597 187.294 310.844 188.475 313.648C189.213 315.715 191.722 319.848 193.936 322.947C196.297 326.047 207.662 340.659 219.47 355.566C232.163 371.802 242.347 383.315 244.561 384.053C246.923 384.939 249.58 384.791 251.941 383.758C254.008 383.02 257.255 379.773 259.321 376.821C261.387 373.869 271.572 360.437 282.051 347.006C292.53 333.574 302.419 320.585 303.895 318.076C305.371 315.715 306.552 312.32 306.552 310.696C306.552 309.073 299.172 286.49 290.316 260.513C281.313 234.535 272.457 209.148 270.391 204.13C267.586 197.045 267.144 194.683 268.472 193.798C269.505 193.355 274.966 191.289 280.723 189.37C286.331 187.451 296.663 185.237 303.6 184.351C313.932 182.875 318.065 183.023 327.216 184.942C333.267 186.123 341.828 188.632 346.108 190.551C350.683 192.617 353.93 195.126 353.783 196.307C353.783 197.488 348.765 214.462 342.861 233.945C336.809 253.428 328.396 280.734 324.264 294.46C320.131 308.335 315.408 324.866 313.784 331.36C312.308 337.855 310.832 347.153 310.685 352.024C310.389 356.895 310.685 372.393 312.456 411.802H181.095L182.128 379.773C182.718 356.157 182.571 344.939 181.095 337.264C180.062 331.655 175.634 314.386 171.206 298.888C166.778 283.538 158.955 257.265 153.79 240.587C148.624 223.908 143.458 206.934 139.768 194.831L145.967 191.731C149.509 189.96 156.889 187.303 162.645 185.827C170.468 183.761 176.224 183.171 186.261 183.613ZM247.809 202.211C248.694 202.211 250.17 205.458 251.203 209.296C252.236 213.133 256.517 225.679 260.649 237.34C264.782 248.852 267.734 258.594 267.144 259.037C266.701 259.479 257.402 259.775 246.48 259.775C234.377 259.775 226.85 259.184 226.85 258.299C226.85 257.561 229.802 248.409 233.492 238.078C237.182 227.746 241.609 215.347 243.233 210.772C245.004 206.048 246.923 202.211 247.809 202.211ZM53.1286 222.875H127.96L129.584 229.222C130.469 232.616 132.536 239.258 136.816 252.395H91.061C65.8219 252.395 45.306 251.952 45.306 251.361C45.306 250.771 47.0772 244.129 49.2911 236.602L53.1286 222.875ZM440.865 222.875L442.931 230.55C444.26 234.83 446.178 241.472 449.721 252.395H403.966C361.015 252.395 358.211 252.247 358.949 249.738C359.392 248.409 361.163 242.505 362.786 236.897C364.41 231.14 366.033 225.679 366.329 224.646C366.771 223.318 375.627 222.875 440.865 222.875ZM383.893 272.025C400.128 272.616 423.153 273.059 456.363 273.059L460.79 287.08C463.152 294.903 464.923 301.545 464.48 301.84C464.185 302.283 436.732 302.578 403.671 302.578C370.461 302.578 343.451 301.988 343.451 301.398C343.451 300.807 345.222 294.608 347.436 287.818C349.798 280.881 352.159 274.239 352.897 273.206C354.078 271.435 359.392 271.287 383.893 272.025ZM38.0738 273.059L141.982 272.911L145.967 286.933C148.181 294.756 150.1 301.398 150.1 301.84C150.1 302.136 122.794 302.578 89.585 302.578C56.2282 302.578 29.0704 301.988 29.0704 301.398C29.0704 300.807 30.9892 294.165 33.4983 286.638L38.0738 273.059ZM218.584 277.487L225.226 278.52C228.916 279.258 239.248 279.701 248.251 279.701C257.107 279.701 266.996 279.258 275.557 277.487L279.247 288.999C281.313 295.198 282.937 300.955 282.937 301.545C282.937 302.136 266.701 302.578 246.775 302.578C218.584 302.578 210.762 302.136 211.205 300.807C211.5 299.774 213.271 294.018 215.19 288.114L218.584 277.487ZM156.594 321.914L159.398 334.755C160.874 341.987 162.35 348.629 162.793 349.663C163.236 350.991 150.985 351.434 47.3724 351.434L34.5315 338.445C27.4468 331.36 21.543 324.718 21.543 323.833C21.543 322.357 36.155 321.914 156.594 321.914ZM246.48 321.914C262.421 321.914 272.752 322.504 273.195 323.39C273.638 324.275 271.424 327.965 268.472 331.951C265.373 335.788 259.469 343.316 255.484 348.777C251.498 354.238 247.809 358.666 247.366 358.666C247.071 358.666 241.167 351.434 234.525 342.43C227.883 333.574 221.832 325.309 221.389 324.128C220.503 322.209 223.898 321.914 246.48 321.914ZM336.514 321.914H397.176C430.533 321.914 460.938 322.357 464.776 322.947C468.613 323.685 471.86 324.571 471.86 325.309C471.86 325.899 466.104 331.951 446.621 351.434H388.32C342.418 351.434 330.167 350.991 330.61 349.663C330.905 348.629 332.381 341.987 333.857 334.903L336.514 321.914ZM69.0691 372.098H163.236L162.498 375.345C162.055 377.116 161.76 383.463 161.76 400.141H96.8172L69.0691 372.098ZM330.758 372.098H424.186L398.652 399.699L365.738 399.846C347.731 399.994 332.824 399.551 332.824 398.961C332.677 398.37 332.234 392.023 331.643 384.939L330.758 372.098ZM118.514 420.805H160.284L159.693 424.938C159.251 427.152 158.66 434.68 158.217 441.912C157.479 454.015 157.184 454.753 154.085 454.753C151.723 454.753 145.819 449.44 134.602 437.779L118.514 420.805ZM334.153 420.805H376.513L358.801 438.517C349.06 448.259 340.352 456.229 339.318 456.229C338.285 456.229 337.104 454.31 336.809 452.096C336.366 449.882 335.628 441.912 335.186 434.384L334.153 420.805ZM179.766 432.613H315.26L315.703 443.388C315.851 449.292 315.408 454.606 314.522 455.196C313.784 455.786 283.674 456.229 247.809 456.229C211.795 456.229 181.39 455.934 180.209 455.491C179.029 455.048 177.995 452.982 177.995 450.768C177.995 448.554 178.438 443.536 178.881 439.698L179.766 432.613ZM247.366 475.712C283.527 475.565 314.227 476.007 315.703 476.598C318.065 477.483 317.327 478.812 301.238 497.262L194.231 497.557L185.67 488.553C181.095 483.535 177.11 478.959 176.815 478.221C176.667 477.483 177.7 476.598 179.029 476.303C180.504 476.007 211.205 475.712 247.366 475.712ZM279.099 518.221L247.366 549.955L232.606 535.195C224.488 527.077 217.846 519.844 217.846 519.254C217.846 518.664 231.573 518.221 279.099 518.221Z" fill="#FAC896"/>
<path d="M784.719 525.625C780.156 527.979 775.177 529.156 769.781 529.156C762.594 529.156 757.042 527.052 753.125 522.844C749.208 518.635 747.25 512.656 747.25 504.906C747.25 497.177 749.24 491.198 753.219 486.969C757.219 482.719 762.854 480.594 770.125 480.594C774.25 480.594 779.094 481.271 784.656 482.625V488.781C778.323 486.594 773.438 485.5 770 485.5C764.979 485.5 761.094 487.198 758.344 490.594C755.594 493.99 754.219 498.781 754.219 504.969C754.219 510.885 755.688 515.542 758.625 518.938C761.562 522.333 765.583 524.031 770.688 524.031C775.042 524.031 779.719 522.688 784.719 520V525.625ZM803.506 481.75H810.069V510.938C810.069 515.583 810.923 518.969 812.631 521.094C814.36 523.198 817.1 524.25 820.85 524.25C824.517 524.25 827.11 523.26 828.631 521.281C830.173 519.281 830.944 515.906 830.944 511.156V481.75H836.694V511.062C836.694 515.104 836.298 518.208 835.506 520.375C834.715 522.542 833.287 524.448 831.225 526.094C828.642 528.135 825.09 529.156 820.569 529.156C814.715 529.156 810.402 527.677 807.631 524.719C804.881 521.76 803.506 517.146 803.506 510.875V481.75ZM855.012 527.125V520.625C860.221 523.042 864.512 524.25 867.887 524.25C870.45 524.25 872.512 523.573 874.075 522.219C875.658 520.844 876.45 519.062 876.45 516.875C876.45 515.062 875.929 513.521 874.887 512.25C873.867 510.979 871.971 509.562 869.2 508L866.012 506.156C862.075 503.906 859.294 501.792 857.669 499.812C856.065 497.812 855.262 495.5 855.262 492.875C855.262 489.292 856.554 486.354 859.137 484.062C861.721 481.75 865.012 480.594 869.012 480.594C872.575 480.594 876.335 481.188 880.294 482.375V488.375C875.419 486.458 871.783 485.5 869.387 485.5C867.117 485.5 865.242 486.104 863.762 487.312C862.283 488.521 861.544 490.042 861.544 491.875C861.544 493.417 862.085 494.781 863.169 495.969C864.252 497.156 866.231 498.573 869.106 500.219L872.419 502.094C876.419 504.365 879.21 506.51 880.794 508.531C882.377 510.552 883.169 512.979 883.169 515.812C883.169 519.833 881.69 523.062 878.731 525.5C875.773 527.938 871.846 529.156 866.95 529.156C863.825 529.156 859.846 528.479 855.012 527.125ZM912.956 528V486.656H896.55V481.75H935.925V486.656H919.519V528H912.956ZM970.962 529.156C964.4 529.156 959.15 526.958 955.212 522.562C951.296 518.146 949.337 512.25 949.337 504.875C949.337 497.5 951.296 491.615 955.212 487.219C959.15 482.802 964.4 480.594 970.962 480.594C977.525 480.594 982.765 482.802 986.681 487.219C990.619 491.615 992.587 497.5 992.587 504.875C992.587 512.25 990.619 518.146 986.681 522.562C982.765 526.958 977.525 529.156 970.962 529.156ZM970.962 524.25C975.567 524.25 979.16 522.542 981.744 519.125C984.327 515.688 985.619 510.917 985.619 504.812C985.619 498.75 984.327 494.021 981.744 490.625C979.16 487.208 975.567 485.5 970.962 485.5C966.358 485.5 962.765 487.208 960.181 490.625C957.598 494.021 956.306 498.75 956.306 504.812C956.306 510.917 957.598 515.688 960.181 519.125C962.765 522.542 966.358 524.25 970.962 524.25ZM1011.41 528V481.75H1020.5L1033.31 517.531L1046.5 481.75H1054.62V528H1048.5V490.375L1035.75 524.906H1029.41L1017.03 490.281V528H1011.41ZM1103.14 527.125V520.625C1108.35 523.042 1112.64 524.25 1116.01 524.25C1118.58 524.25 1120.64 523.573 1122.2 522.219C1123.78 520.844 1124.58 519.062 1124.58 516.875C1124.58 515.062 1124.05 513.521 1123.01 512.25C1121.99 510.979 1120.1 509.562 1117.33 508L1114.14 506.156C1110.2 503.906 1107.42 501.792 1105.79 499.812C1104.19 497.812 1103.39 495.5 1103.39 492.875C1103.39 489.292 1104.68 486.354 1107.26 484.062C1109.85 481.75 1113.14 480.594 1117.14 480.594C1120.7 480.594 1124.46 481.188 1128.42 482.375V488.375C1123.54 486.458 1119.91 485.5 1117.51 485.5C1115.24 485.5 1113.37 486.104 1111.89 487.312C1110.41 488.521 1109.67 490.042 1109.67 491.875C1109.67 493.417 1110.21 494.781 1111.29 495.969C1112.38 497.156 1114.36 498.573 1117.23 500.219L1120.54 502.094C1124.54 504.365 1127.34 506.51 1128.92 508.531C1130.5 510.552 1131.29 512.979 1131.29 515.812C1131.29 519.833 1129.81 523.062 1126.86 525.5C1123.9 527.938 1119.97 529.156 1115.08 529.156C1111.95 529.156 1107.97 528.479 1103.14 527.125ZM1168.99 529.156C1162.42 529.156 1157.17 526.958 1153.24 522.562C1149.32 518.146 1147.36 512.25 1147.36 504.875C1147.36 497.5 1149.32 491.615 1153.24 487.219C1157.17 482.802 1162.42 480.594 1168.99 480.594C1175.55 480.594 1180.79 482.802 1184.71 487.219C1188.64 491.615 1190.61 497.5 1190.61 504.875C1190.61 512.25 1188.64 518.146 1184.71 522.562C1180.79 526.958 1175.55 529.156 1168.99 529.156ZM1168.99 524.25C1173.59 524.25 1177.19 522.542 1179.77 519.125C1182.35 515.688 1183.64 510.917 1183.64 504.812C1183.64 498.75 1182.35 494.021 1179.77 490.625C1177.19 487.208 1173.59 485.5 1168.99 485.5C1164.38 485.5 1160.79 487.208 1158.21 490.625C1155.62 494.021 1154.33 498.75 1154.33 504.812C1154.33 510.917 1155.62 515.688 1158.21 519.125C1160.79 522.542 1164.38 524.25 1168.99 524.25ZM1209.43 528V481.75H1235.27V486.656H1215.99V502.156H1232.18V507H1215.99V528H1209.43ZM1264.34 528V486.656H1247.94V481.75H1287.31V486.656H1270.91V528H1264.34ZM1309.44 528L1297.54 481.75H1303.85L1313.32 518.281L1322.04 481.75H1328.35L1336.6 517.781L1346.79 481.75H1352.13L1339.16 528H1332.63L1324.47 492.344L1315.94 528H1309.44ZM1362.36 528L1380.7 481.75H1387.2L1405.26 528H1398.17L1393.14 515.188H1373.54L1368.45 528H1362.36ZM1375.45 510.312H1391.23L1383.36 490.375L1375.45 510.312ZM1421.58 528V481.75H1435.58C1440.02 481.75 1443.41 482.729 1445.77 484.688C1448.14 486.646 1449.33 489.49 1449.33 493.219C1449.33 496.156 1448.51 498.771 1446.86 501.062C1445.24 503.354 1442.95 505.115 1439.99 506.344L1455.42 528H1447.36L1434.21 508.438H1428.08V528H1421.58ZM1428.08 503.531H1430.21C1434.25 503.531 1437.32 502.708 1439.42 501.062C1441.53 499.417 1442.58 497.01 1442.58 493.844C1442.58 489.052 1439.12 486.656 1432.21 486.656H1428.08V503.531ZM1471.68 528V481.75H1497.53V486.656H1478.24V501.5H1494.4V506.344H1478.24V523.094H1498.87V528H1471.68ZM1542.97 527.125V520.625C1548.18 523.042 1552.47 524.25 1555.85 524.25C1558.41 524.25 1560.47 523.573 1562.04 522.219C1563.62 520.844 1564.41 519.062 1564.41 516.875C1564.41 515.062 1563.89 513.521 1562.85 512.25C1561.83 510.979 1559.93 509.562 1557.16 508L1553.97 506.156C1550.04 503.906 1547.26 501.792 1545.63 499.812C1544.03 497.812 1543.22 495.5 1543.22 492.875C1543.22 489.292 1544.52 486.354 1547.1 484.062C1549.68 481.75 1552.97 480.594 1556.97 480.594C1560.54 480.594 1564.3 481.188 1568.26 482.375V488.375C1563.38 486.458 1559.75 485.5 1557.35 485.5C1555.08 485.5 1553.2 486.104 1551.72 487.312C1550.25 488.521 1549.51 490.042 1549.51 491.875C1549.51 493.417 1550.05 494.781 1551.13 495.969C1552.21 497.156 1554.19 498.573 1557.07 500.219L1560.38 502.094C1564.38 504.365 1567.17 506.51 1568.76 508.531C1570.34 510.552 1571.13 512.979 1571.13 515.812C1571.13 519.833 1569.65 523.062 1566.69 525.5C1563.74 527.938 1559.81 529.156 1554.91 529.156C1551.79 529.156 1547.81 528.479 1542.97 527.125ZM1608.83 529.156C1602.26 529.156 1597.01 526.958 1593.08 522.562C1589.16 518.146 1587.2 512.25 1587.2 504.875C1587.2 497.5 1589.16 491.615 1593.08 487.219C1597.01 482.802 1602.26 480.594 1608.83 480.594C1615.39 480.594 1620.63 482.802 1624.54 487.219C1628.48 491.615 1630.45 497.5 1630.45 504.875C1630.45 512.25 1628.48 518.146 1624.54 522.562C1620.63 526.958 1615.39 529.156 1608.83 529.156ZM1608.83 524.25C1613.43 524.25 1617.02 522.542 1619.61 519.125C1622.19 515.688 1623.48 510.917 1623.48 504.812C1623.48 498.75 1622.19 494.021 1619.61 490.625C1617.02 487.208 1613.43 485.5 1608.83 485.5C1604.22 485.5 1600.63 487.208 1598.04 490.625C1595.46 494.021 1594.17 498.75 1594.17 504.812C1594.17 510.917 1595.46 515.688 1598.04 519.125C1600.63 522.542 1604.22 524.25 1608.83 524.25ZM1649.27 528V481.75H1655.83V523.094H1676.64V528H1649.27ZM1692.62 481.75H1699.18V510.938C1699.18 515.583 1700.04 518.969 1701.74 521.094C1703.47 523.198 1706.21 524.25 1709.96 524.25C1713.63 524.25 1716.22 523.26 1717.74 521.281C1719.29 519.281 1720.06 515.906 1720.06 511.156V481.75H1725.81V511.062C1725.81 515.104 1725.41 518.208 1724.62 520.375C1723.83 522.542 1722.4 524.448 1720.34 526.094C1717.75 528.135 1714.2 529.156 1709.68 529.156C1703.83 529.156 1699.51 527.677 1696.74 524.719C1693.99 521.76 1692.62 517.146 1692.62 510.875V481.75ZM1757.97 528V486.656H1741.56V481.75H1780.94V486.656H1764.53V528H1757.97ZM1797.04 528V481.75H1803.6V528H1797.04ZM1844.01 529.156C1837.45 529.156 1832.2 526.958 1828.26 522.562C1824.35 518.146 1822.39 512.25 1822.39 504.875C1822.39 497.5 1824.35 491.615 1828.26 487.219C1832.2 482.802 1837.45 480.594 1844.01 480.594C1850.57 480.594 1855.81 482.802 1859.73 487.219C1863.67 491.615 1865.64 497.5 1865.64 504.875C1865.64 512.25 1863.67 518.146 1859.73 522.562C1855.81 526.958 1850.57 529.156 1844.01 529.156ZM1844.01 524.25C1848.62 524.25 1852.21 522.542 1854.79 519.125C1857.38 515.688 1858.67 510.917 1858.67 504.812C1858.67 498.75 1857.38 494.021 1854.79 490.625C1852.21 487.208 1848.62 485.5 1844.01 485.5C1839.41 485.5 1835.81 487.208 1833.23 490.625C1830.65 494.021 1829.36 498.75 1829.36 504.812C1829.36 510.917 1830.65 515.688 1833.23 519.125C1835.81 522.542 1839.41 524.25 1844.01 524.25ZM1884.46 528V481.75H1890.89L1914.18 517.469V481.75H1919.8V528H1913.39L1890.08 492.281V528H1884.46ZM1938.53 527.125V520.625C1943.73 523.042 1948.03 524.25 1951.4 524.25C1953.96 524.25 1956.03 523.573 1957.59 522.219C1959.17 520.844 1959.96 519.062 1959.96 516.875C1959.96 515.062 1959.44 513.521 1958.4 512.25C1957.38 510.979 1955.48 509.562 1952.71 508L1949.53 506.156C1945.59 503.906 1942.81 501.792 1941.18 499.812C1939.58 497.812 1938.78 495.5 1938.78 492.875C1938.78 489.292 1940.07 486.354 1942.65 484.062C1945.23 481.75 1948.53 480.594 1952.53 480.594C1956.09 480.594 1959.85 481.188 1963.81 482.375V488.375C1958.93 486.458 1955.3 485.5 1952.9 485.5C1950.63 485.5 1948.75 486.104 1947.28 487.312C1945.8 488.521 1945.06 490.042 1945.06 491.875C1945.06 493.417 1945.6 494.781 1946.68 495.969C1947.76 497.156 1949.74 498.573 1952.62 500.219L1955.93 502.094C1959.93 504.365 1962.72 506.51 1964.31 508.531C1965.89 510.552 1966.68 512.979 1966.68 515.812C1966.68 519.833 1965.2 523.062 1962.24 525.5C1959.29 527.938 1955.36 529.156 1950.46 529.156C1947.34 529.156 1943.36 528.479 1938.53 527.125Z" fill="#203272"/>
</svg>
