<svg width="2078" height="350" viewBox="0 0 2078 350" fill="none" xmlns="http://www.w3.org/2000/svg">
<g filter="url(#filter0_d_51_50)">
<path d="M381.2 171V59.55H398.9V108H449.75V59.55H467.3V171H449.75V121.5H398.9V171H381.2ZM510.575 171V59.55H528.275V171H510.575ZM571.747 171V59.55H636.547V73.05H589.447V106.95H624.397V120.3H589.447V157.2H641.797V171H571.747ZM693.07 171H675.37V59.55C676.27 59.55 677.145 59.55 677.995 59.55C678.845 59.55 679.695 59.55 680.545 59.55C681.395 59.55 682.27 59.55 683.17 59.55C686.72 59.55 690.92 59.35 695.77 58.95C700.62 58.55 705.97 58.35 711.82 58.35C717.42 58.35 722.545 58.95 727.195 60.15C731.845 61.3 735.87 63.15 739.27 65.7C742.72 68.2 745.37 71.475 747.22 75.525C749.12 79.525 750.07 84.4 750.07 90.15C750.07 96.85 748.945 102.5 746.695 107.1C744.445 111.7 741.22 115.325 737.02 117.975C732.87 120.625 727.92 122.4 722.17 123.3C720.12 123.6 717.995 123.85 715.795 124.05C713.645 124.2 710.82 124.325 707.32 124.425C703.82 124.475 699.07 124.5 693.07 124.5V171ZM693.07 111.9C694.12 112.05 695.72 112.175 697.87 112.275C700.07 112.325 702.295 112.35 704.545 112.35C706.795 112.35 708.57 112.35 709.87 112.35C717.07 112.35 722.62 110.6 726.52 107.1C730.42 103.55 732.37 98.15 732.37 90.9C732.37 86.6 731.645 83 730.195 80.1C728.745 77.15 726.32 74.95 722.92 73.5C719.57 72 715.02 71.25 709.27 71.25C706.37 71.25 703.495 71.375 700.645 71.625C697.845 71.825 695.32 72.15 693.07 72.6V111.9ZM738.07 171C737.42 170 736.87 168.975 736.42 167.925C735.97 166.875 735.17 165.15 734.02 162.75C732.47 159.4 730.945 155.625 729.445 151.425C727.945 147.175 726.295 143.05 724.495 139.05C722.745 135.05 720.72 131.675 718.42 128.925C716.12 126.125 713.42 124.5 710.32 124.05L717.07 118.8L727.57 119.7C730.52 120.95 733.145 123.2 735.445 126.45C737.795 129.7 739.945 133.475 741.895 137.775C743.895 142.025 745.795 146.35 747.595 150.75C749.445 155.15 751.37 159.15 753.37 162.75C754.12 164.15 754.87 165.55 755.62 166.95C756.37 168.3 757.12 169.65 757.87 171H738.07ZM831.871 172.2C821.521 172.4 812.571 170.05 805.021 165.15C797.471 160.2 791.696 153.35 787.696 144.6C783.696 135.8 781.821 125.75 782.071 114.45C782.321 102 784.771 91.625 789.421 83.325C794.121 75.025 800.346 68.8 808.096 64.65C815.896 60.5 824.571 58.4 834.121 58.35C844.021 58.3 852.646 60.625 859.996 65.325C867.346 69.975 872.996 76.575 876.946 85.125C880.946 93.675 882.821 103.7 882.571 115.2C882.321 127.65 879.971 138.075 875.521 146.475C871.071 154.825 865.071 161.15 857.521 165.45C849.971 169.75 841.421 172 831.871 172.2ZM832.321 158.7C842.221 158.7 850.096 154.975 855.946 147.525C861.796 140.025 864.721 129 864.721 114.45C864.721 106.75 863.546 99.675 861.196 93.225C858.896 86.725 855.421 81.525 850.771 77.625C846.171 73.675 840.421 71.7 833.521 71.7C827.471 71.7 821.896 73.25 816.796 76.35C811.696 79.45 807.596 84.225 804.496 90.675C801.446 97.125 799.921 105.4 799.921 115.5C799.921 123.15 801.121 130.275 803.521 136.875C805.971 143.425 809.596 148.7 814.396 152.7C819.196 156.7 825.171 158.7 832.321 158.7ZM911.772 115.8C911.772 106.15 913.122 97.75 915.822 90.6C918.522 83.4 922.247 77.425 926.997 72.675C931.797 67.875 937.372 64.3 943.722 61.95C950.072 59.55 956.897 58.35 964.197 58.35C969.797 58.35 974.272 58.6 977.622 59.1C981.022 59.55 984.022 60.125 986.622 60.825C989.272 61.475 992.222 62.1 995.472 62.7L994.722 78.375C991.172 76.575 987.097 75.1 982.497 73.95C977.947 72.75 971.572 72.15 963.372 72.15C956.872 72.15 951.097 73.8 946.047 77.1C941.047 80.4 937.122 85.15 934.272 91.35C931.422 97.55 929.997 105.05 929.997 113.85C929.997 122.25 931.197 129.85 933.597 136.65C935.997 143.45 939.647 148.85 944.547 152.85C949.497 156.8 955.772 158.775 963.372 158.775C967.422 158.775 971.472 158.45 975.522 157.8C979.622 157.15 982.722 156.15 984.822 154.8V125.25L989.247 128.325L965.172 127.275V114.45H1001.77V164.175C1000.12 164.275 998.272 164.75 996.222 165.6C994.172 166.4 991.722 167.325 988.872 168.375C986.022 169.375 982.547 170.25 978.447 171C974.397 171.8 969.522 172.2 963.822 172.2C952.772 172.2 943.372 169.775 935.622 164.925C927.872 160.025 921.947 153.325 917.847 144.825C913.797 136.325 911.772 126.65 911.772 115.8ZM1038.53 171V59.55H1056.08V157.05H1099.88V171H1038.53ZM1145.29 171V123.6L1147.91 133.275L1108.61 59.55H1127.44L1151.44 106.95L1156.09 118.35H1153.39L1157.29 106.95L1180.91 59.55H1199.44L1160.51 133.275L1163.14 123.825V171H1145.29ZM1228.35 171V59.55H1236C1240.6 59.55 1245.15 59.35 1249.65 58.95C1254.15 58.55 1258.9 58.35 1263.9 58.35C1272 58.35 1278.97 59.625 1284.82 62.175C1290.67 64.675 1295.17 68.625 1298.32 74.025C1301.47 79.375 1303.05 86.35 1303.05 94.95C1303.05 107.1 1299.37 116.575 1292.02 123.375C1284.72 130.125 1274.1 133.5 1260.15 133.5C1256.65 133.5 1253.75 133.475 1251.45 133.425C1249.2 133.375 1247.4 133.35 1246.05 133.35V171H1228.35ZM1246.05 119.85C1248.3 120.15 1250.52 120.35 1252.72 120.45C1254.97 120.55 1257.1 120.6 1259.1 120.6C1263.75 120.6 1268.1 119.95 1272.15 118.65C1276.2 117.3 1279.45 114.8 1281.9 111.15C1284.4 107.45 1285.65 102.05 1285.65 94.95C1285.65 86.4 1283.35 80.2 1278.75 76.35C1274.2 72.45 1267.6 70.65 1258.95 70.95C1256.8 71 1254.6 71.125 1252.35 71.325C1250.1 71.525 1248 71.85 1246.05 72.3V119.85ZM1336.66 171V59.55H1354.36V108H1405.21V59.55H1422.76V171H1405.21V121.5H1354.36V171H1336.66ZM1498.42 115.725C1498.42 106.475 1499.8 98.3 1502.55 91.2C1505.35 84.1 1509.17 78.1 1514.02 73.2C1518.87 68.3 1524.42 64.6 1530.67 62.1C1536.97 59.6 1543.6 58.35 1550.55 58.35C1556.15 58.35 1560.85 58.65 1564.65 59.25C1568.5 59.8 1571.65 60.4 1574.1 61.05C1576.55 61.7 1578.52 62.2 1580.02 62.55L1577.47 78.225C1576.67 77.725 1575.3 77.025 1573.35 76.125C1571.4 75.225 1568.67 74.4 1565.17 73.65C1561.67 72.85 1557.17 72.45 1551.67 72.45C1544.47 72.45 1538.2 74.175 1532.85 77.625C1527.5 81.025 1523.35 85.9 1520.4 92.25C1517.5 98.55 1516.05 106.025 1516.05 114.675C1516.05 123.175 1517.47 130.725 1520.32 137.325C1523.22 143.875 1527.37 149.025 1532.77 152.775C1538.17 156.525 1544.6 158.4 1552.05 158.4C1555.75 158.4 1559.42 158.05 1563.07 157.35C1566.77 156.65 1570.05 155.775 1572.9 154.725C1575.8 153.675 1577.9 152.6 1579.2 151.5V166.35C1577.05 167.2 1574.67 168.075 1572.07 168.975C1569.47 169.875 1566.47 170.625 1563.07 171.225C1559.72 171.875 1555.75 172.2 1551.15 172.2C1540.5 172.2 1531.22 169.85 1523.32 165.15C1515.42 160.4 1509.3 153.8 1504.95 145.35C1500.6 136.85 1498.42 126.975 1498.42 115.725ZM1659.24 172.2C1648.89 172.4 1639.94 170.05 1632.39 165.15C1624.84 160.2 1619.07 153.35 1615.07 144.6C1611.07 135.8 1609.19 125.75 1609.44 114.45C1609.69 102 1612.14 91.625 1616.79 83.325C1621.49 75.025 1627.72 68.8 1635.47 64.65C1643.27 60.5 1651.94 58.4 1661.49 58.35C1671.39 58.3 1680.02 60.625 1687.37 65.325C1694.72 69.975 1700.37 76.575 1704.32 85.125C1708.32 93.675 1710.19 103.7 1709.94 115.2C1709.69 127.65 1707.34 138.075 1702.89 146.475C1698.44 154.825 1692.44 161.15 1684.89 165.45C1677.34 169.75 1668.79 172 1659.24 172.2ZM1659.69 158.7C1669.59 158.7 1677.47 154.975 1683.32 147.525C1689.17 140.025 1692.09 129 1692.09 114.45C1692.09 106.75 1690.92 99.675 1688.57 93.225C1686.27 86.725 1682.79 81.525 1678.14 77.625C1673.54 73.675 1667.79 71.7 1660.89 71.7C1654.84 71.7 1649.27 73.25 1644.17 76.35C1639.07 79.45 1634.97 84.225 1631.87 90.675C1628.82 97.125 1627.29 105.4 1627.29 115.5C1627.29 123.15 1628.49 130.275 1630.89 136.875C1633.34 143.425 1636.97 148.7 1641.77 152.7C1646.57 156.7 1652.54 158.7 1659.69 158.7ZM1745.15 171V59.55C1746.15 59.55 1747.12 59.55 1748.07 59.55C1749.07 59.55 1750.05 59.55 1751 59.55C1751.95 59.55 1752.9 59.55 1753.85 59.55C1756.2 59.55 1758.8 59.45 1761.65 59.25C1764.5 59.05 1767.5 58.85 1770.65 58.65C1773.85 58.45 1777.1 58.35 1780.4 58.35C1798.5 58.35 1811.9 63.075 1820.6 72.525C1829.3 81.925 1833.65 95.1 1833.65 112.05C1833.65 124.75 1831.4 135.625 1826.9 144.675C1822.45 153.725 1816.1 160.625 1807.85 165.375C1799.6 170.125 1789.85 172.4 1778.6 172.2C1774.65 172.1 1770.25 171.875 1765.4 171.525C1760.55 171.175 1756.2 171 1752.35 171C1751.55 171 1750.75 171 1749.95 171C1749.15 171 1748.35 171 1747.55 171C1746.75 171 1745.95 171 1745.15 171ZM1762.85 157.65C1765.25 158.15 1768.12 158.525 1771.47 158.775C1774.87 158.975 1778.1 159.05 1781.15 159C1787.8 158.9 1793.67 157.325 1798.77 154.275C1803.92 151.225 1807.95 146.45 1810.85 139.95C1813.75 133.45 1815.2 125 1815.2 114.6C1815.2 103.85 1813.77 95.325 1810.92 89.025C1808.07 82.675 1803.8 78.125 1798.1 75.375C1792.45 72.625 1785.4 71.25 1776.95 71.25C1774.05 71.25 1771.37 71.35 1768.92 71.55C1766.47 71.75 1764.45 72 1762.85 72.3V157.65ZM1868.1 171V59.55H1932.9V73.05H1885.8V106.95H1920.75V120.3H1885.8V157.2H1938.15V171H1868.1Z" fill="#824342"/>
</g>
<path d="M574.719 312.625C570.156 314.979 565.177 316.156 559.781 316.156C552.594 316.156 547.042 314.052 543.125 309.844C539.208 305.635 537.25 299.656 537.25 291.906C537.25 284.177 539.24 278.198 543.219 273.969C547.219 269.719 552.854 267.594 560.125 267.594C564.25 267.594 569.094 268.271 574.656 269.625V275.781C568.323 273.594 563.438 272.5 560 272.5C554.979 272.5 551.094 274.198 548.344 277.594C545.594 280.99 544.219 285.781 544.219 291.969C544.219 297.885 545.688 302.542 548.625 305.938C551.562 309.333 555.583 311.031 560.688 311.031C565.042 311.031 569.719 309.688 574.719 307V312.625ZM593.506 268.75H600.069V297.938C600.069 302.583 600.923 305.969 602.631 308.094C604.36 310.198 607.1 311.25 610.85 311.25C614.517 311.25 617.11 310.26 618.631 308.281C620.173 306.281 620.944 302.906 620.944 298.156V268.75H626.694V298.062C626.694 302.104 626.298 305.208 625.506 307.375C624.715 309.542 623.287 311.448 621.225 313.094C618.642 315.135 615.09 316.156 610.569 316.156C604.715 316.156 600.402 314.677 597.631 311.719C594.881 308.76 593.506 304.146 593.506 297.875V268.75ZM645.012 314.125V307.625C650.221 310.042 654.512 311.25 657.887 311.25C660.45 311.25 662.512 310.573 664.075 309.219C665.658 307.844 666.45 306.062 666.45 303.875C666.45 302.062 665.929 300.521 664.887 299.25C663.867 297.979 661.971 296.562 659.2 295L656.012 293.156C652.075 290.906 649.294 288.792 647.669 286.812C646.065 284.812 645.262 282.5 645.262 279.875C645.262 276.292 646.554 273.354 649.137 271.062C651.721 268.75 655.012 267.594 659.012 267.594C662.575 267.594 666.335 268.188 670.294 269.375V275.375C665.419 273.458 661.783 272.5 659.387 272.5C657.117 272.5 655.242 273.104 653.762 274.312C652.283 275.521 651.544 277.042 651.544 278.875C651.544 280.417 652.085 281.781 653.169 282.969C654.252 284.156 656.231 285.573 659.106 287.219L662.419 289.094C666.419 291.365 669.21 293.51 670.794 295.531C672.377 297.552 673.169 299.979 673.169 302.812C673.169 306.833 671.69 310.062 668.731 312.5C665.773 314.938 661.846 316.156 656.95 316.156C653.825 316.156 649.846 315.479 645.012 314.125ZM702.956 315V273.656H686.55V268.75H725.925V273.656H709.519V315H702.956ZM760.962 316.156C754.4 316.156 749.15 313.958 745.212 309.562C741.296 305.146 739.337 299.25 739.337 291.875C739.337 284.5 741.296 278.615 745.212 274.219C749.15 269.802 754.4 267.594 760.962 267.594C767.525 267.594 772.765 269.802 776.681 274.219C780.619 278.615 782.587 284.5 782.587 291.875C782.587 299.25 780.619 305.146 776.681 309.562C772.765 313.958 767.525 316.156 760.962 316.156ZM760.962 311.25C765.567 311.25 769.16 309.542 771.744 306.125C774.327 302.688 775.619 297.917 775.619 291.812C775.619 285.75 774.327 281.021 771.744 277.625C769.16 274.208 765.567 272.5 760.962 272.5C756.358 272.5 752.765 274.208 750.181 277.625C747.598 281.021 746.306 285.75 746.306 291.812C746.306 297.917 747.598 302.688 750.181 306.125C752.765 309.542 756.358 311.25 760.962 311.25ZM801.406 315V268.75H810.5L823.312 304.531L836.5 268.75H844.625V315H838.5V277.375L825.75 311.906H819.406L807.031 277.281V315H801.406ZM893.138 314.125V307.625C898.346 310.042 902.638 311.25 906.013 311.25C908.575 311.25 910.638 310.573 912.2 309.219C913.783 307.844 914.575 306.062 914.575 303.875C914.575 302.062 914.054 300.521 913.013 299.25C911.992 297.979 910.096 296.562 907.325 295L904.138 293.156C900.2 290.906 897.419 288.792 895.794 286.812C894.19 284.812 893.388 282.5 893.388 279.875C893.388 276.292 894.679 273.354 897.263 271.062C899.846 268.75 903.138 267.594 907.138 267.594C910.7 267.594 914.46 268.188 918.419 269.375V275.375C913.544 273.458 909.908 272.5 907.513 272.5C905.242 272.5 903.367 273.104 901.888 274.312C900.408 275.521 899.669 277.042 899.669 278.875C899.669 280.417 900.21 281.781 901.294 282.969C902.377 284.156 904.356 285.573 907.231 287.219L910.544 289.094C914.544 291.365 917.335 293.51 918.919 295.531C920.502 297.552 921.294 299.979 921.294 302.812C921.294 306.833 919.815 310.062 916.856 312.5C913.898 314.938 909.971 316.156 905.075 316.156C901.95 316.156 897.971 315.479 893.138 314.125ZM958.987 316.156C952.425 316.156 947.175 313.958 943.237 309.562C939.321 305.146 937.362 299.25 937.362 291.875C937.362 284.5 939.321 278.615 943.237 274.219C947.175 269.802 952.425 267.594 958.987 267.594C965.55 267.594 970.79 269.802 974.706 274.219C978.644 278.615 980.612 284.5 980.612 291.875C980.612 299.25 978.644 305.146 974.706 309.562C970.79 313.958 965.55 316.156 958.987 316.156ZM958.987 311.25C963.592 311.25 967.185 309.542 969.769 306.125C972.352 302.688 973.644 297.917 973.644 291.812C973.644 285.75 972.352 281.021 969.769 277.625C967.185 274.208 963.592 272.5 958.987 272.5C954.383 272.5 950.79 274.208 948.206 277.625C945.623 281.021 944.331 285.75 944.331 291.812C944.331 297.917 945.623 302.688 948.206 306.125C950.79 309.542 954.383 311.25 958.987 311.25ZM999.431 315V268.75H1025.27V273.656H1005.99V289.156H1022.18V294H1005.99V315H999.431ZM1054.34 315V273.656H1037.94V268.75H1077.31V273.656H1060.91V315H1054.34ZM1099.44 315L1087.54 268.75H1093.85L1103.32 305.281L1112.04 268.75H1118.35L1126.6 304.781L1136.79 268.75H1142.13L1129.16 315H1122.63L1114.47 279.344L1105.94 315H1099.44ZM1152.36 315L1170.7 268.75H1177.2L1195.26 315H1188.17L1183.14 302.188H1163.54L1158.45 315H1152.36ZM1165.45 297.312H1181.23L1173.36 277.375L1165.45 297.312ZM1211.58 315V268.75H1225.58C1230.02 268.75 1233.41 269.729 1235.77 271.688C1238.14 273.646 1239.33 276.49 1239.33 280.219C1239.33 283.156 1238.51 285.771 1236.86 288.062C1235.24 290.354 1232.95 292.115 1229.99 293.344L1245.42 315H1237.36L1224.21 295.438H1218.08V315H1211.58ZM1218.08 290.531H1220.21C1224.25 290.531 1227.32 289.708 1229.42 288.062C1231.53 286.417 1232.58 284.01 1232.58 280.844C1232.58 276.052 1229.12 273.656 1222.21 273.656H1218.08V290.531ZM1261.68 315V268.75H1287.53V273.656H1268.24V288.5H1284.4V293.344H1268.24V310.094H1288.87V315H1261.68ZM1332.97 314.125V307.625C1338.18 310.042 1342.47 311.25 1345.85 311.25C1348.41 311.25 1350.47 310.573 1352.04 309.219C1353.62 307.844 1354.41 306.062 1354.41 303.875C1354.41 302.062 1353.89 300.521 1352.85 299.25C1351.83 297.979 1349.93 296.562 1347.16 295L1343.97 293.156C1340.04 290.906 1337.26 288.792 1335.63 286.812C1334.03 284.812 1333.22 282.5 1333.22 279.875C1333.22 276.292 1334.52 273.354 1337.1 271.062C1339.68 268.75 1342.97 267.594 1346.97 267.594C1350.54 267.594 1354.3 268.188 1358.26 269.375V275.375C1353.38 273.458 1349.75 272.5 1347.35 272.5C1345.08 272.5 1343.2 273.104 1341.72 274.312C1340.25 275.521 1339.51 277.042 1339.51 278.875C1339.51 280.417 1340.05 281.781 1341.13 282.969C1342.21 284.156 1344.19 285.573 1347.07 287.219L1350.38 289.094C1354.38 291.365 1357.17 293.51 1358.76 295.531C1360.34 297.552 1361.13 299.979 1361.13 302.812C1361.13 306.833 1359.65 310.062 1356.69 312.5C1353.74 314.938 1349.81 316.156 1344.91 316.156C1341.79 316.156 1337.81 315.479 1332.97 314.125ZM1398.83 316.156C1392.26 316.156 1387.01 313.958 1383.08 309.562C1379.16 305.146 1377.2 299.25 1377.2 291.875C1377.2 284.5 1379.16 278.615 1383.08 274.219C1387.01 269.802 1392.26 267.594 1398.83 267.594C1405.39 267.594 1410.63 269.802 1414.54 274.219C1418.48 278.615 1420.45 284.5 1420.45 291.875C1420.45 299.25 1418.48 305.146 1414.54 309.562C1410.63 313.958 1405.39 316.156 1398.83 316.156ZM1398.83 311.25C1403.43 311.25 1407.02 309.542 1409.61 306.125C1412.19 302.688 1413.48 297.917 1413.48 291.812C1413.48 285.75 1412.19 281.021 1409.61 277.625C1407.02 274.208 1403.43 272.5 1398.83 272.5C1394.22 272.5 1390.63 274.208 1388.04 277.625C1385.46 281.021 1384.17 285.75 1384.17 291.812C1384.17 297.917 1385.46 302.688 1388.04 306.125C1390.63 309.542 1394.22 311.25 1398.83 311.25ZM1439.27 315V268.75H1445.83V310.094H1466.64V315H1439.27ZM1482.62 268.75H1489.18V297.938C1489.18 302.583 1490.04 305.969 1491.74 308.094C1493.47 310.198 1496.21 311.25 1499.96 311.25C1503.63 311.25 1506.22 310.26 1507.74 308.281C1509.29 306.281 1510.06 302.906 1510.06 298.156V268.75H1515.81V298.062C1515.81 302.104 1515.41 305.208 1514.62 307.375C1513.83 309.542 1512.4 311.448 1510.34 313.094C1507.75 315.135 1504.2 316.156 1499.68 316.156C1493.83 316.156 1489.51 314.677 1486.74 311.719C1483.99 308.76 1482.62 304.146 1482.62 297.875V268.75ZM1547.97 315V273.656H1531.56V268.75H1570.94V273.656H1554.53V315H1547.97ZM1587.04 315V268.75H1593.6V315H1587.04ZM1634.01 316.156C1627.45 316.156 1622.2 313.958 1618.26 309.562C1614.35 305.146 1612.39 299.25 1612.39 291.875C1612.39 284.5 1614.35 278.615 1618.26 274.219C1622.2 269.802 1627.45 267.594 1634.01 267.594C1640.57 267.594 1645.81 269.802 1649.73 274.219C1653.67 278.615 1655.64 284.5 1655.64 291.875C1655.64 299.25 1653.67 305.146 1649.73 309.562C1645.81 313.958 1640.57 316.156 1634.01 316.156ZM1634.01 311.25C1638.62 311.25 1642.21 309.542 1644.79 306.125C1647.38 302.688 1648.67 297.917 1648.67 291.812C1648.67 285.75 1647.38 281.021 1644.79 277.625C1642.21 274.208 1638.62 272.5 1634.01 272.5C1629.41 272.5 1625.81 274.208 1623.23 277.625C1620.65 281.021 1619.36 285.75 1619.36 291.812C1619.36 297.917 1620.65 302.688 1623.23 306.125C1625.81 309.542 1629.41 311.25 1634.01 311.25ZM1674.46 315V268.75H1680.89L1704.18 304.469V268.75H1709.8V315H1703.39L1680.08 279.281V315H1674.46ZM1728.53 314.125V307.625C1733.73 310.042 1738.03 311.25 1741.4 311.25C1743.96 311.25 1746.03 310.573 1747.59 309.219C1749.17 307.844 1749.96 306.062 1749.96 303.875C1749.96 302.062 1749.44 300.521 1748.4 299.25C1747.38 297.979 1745.48 296.562 1742.71 295L1739.53 293.156C1735.59 290.906 1732.81 288.792 1731.18 286.812C1729.58 284.812 1728.78 282.5 1728.78 279.875C1728.78 276.292 1730.07 273.354 1732.65 271.062C1735.23 268.75 1738.53 267.594 1742.53 267.594C1746.09 267.594 1749.85 268.188 1753.81 269.375V275.375C1748.93 273.458 1745.3 272.5 1742.9 272.5C1740.63 272.5 1738.75 273.104 1737.28 274.312C1735.8 275.521 1735.06 277.042 1735.06 278.875C1735.06 280.417 1735.6 281.781 1736.68 282.969C1737.76 284.156 1739.74 285.573 1742.62 287.219L1745.93 289.094C1749.93 291.365 1752.72 293.51 1754.31 295.531C1755.89 297.552 1756.68 299.979 1756.68 302.812C1756.68 306.833 1755.2 310.062 1752.24 312.5C1749.29 314.938 1745.36 316.156 1740.46 316.156C1737.34 316.156 1733.36 315.479 1728.53 314.125Z" fill="#512727"/>
<g filter="url(#filter1_d_51_50)">
<path d="M75.2819 0H179.718L204.584 8.28859L221.161 19.8926L234.423 33.1544L246.027 53.047L251 69.6242V159.141H229.45L227.792 72.9396L219.503 53.047L209.557 39.7852L191.322 28.1812L183.034 24.8658L171.43 23.2081H78.5973L63.6779 28.1812L47.1007 38.1275L37.1544 49.7315L28.8658 66.3087L27.2081 72.9396L25.5503 319.94H229.45V237.054H251V341.49H4V71.2819L10.6309 49.7315L20.5772 33.1544L37.1544 16.5772L57.047 4.97315L75.2819 0Z" fill="#FF3700"/>
<path d="M108.514 90.8932H144.984L168.192 94.2086L194.716 104.155L203.004 109.128V122.39L186.427 130.678L164.877 137.309L144.984 140.625H111.83L88.6217 137.309L63.7559 129.021L52.1519 122.39V109.128L72.0445 99.1818L93.5948 92.5509L108.514 90.8932Z" fill="#FF3700"/>
<path d="M141.205 153.653L154.467 156.968L152.809 168.572L144.521 193.438L137.89 214.988L127.943 249.8L113.024 294.559L99.7622 291.243L101.42 277.982L119.655 219.961L134.574 171.888L141.205 153.653Z" fill="#FF3700"/>
</g>
<defs>
<filter id="filter0_d_51_50" x="377.2" y="58.275" width="1564.95" height="122.225" filterUnits="userSpaceOnUse" color-interpolation-filters="sRGB">
<feFlood flood-opacity="0" result="BackgroundImageFix"/>
<feColorMatrix in="SourceAlpha" type="matrix" values="0 0 0 0 0 0 0 0 0 0 0 0 0 0 0 0 0 0 127 0" result="hardAlpha"/>
<feOffset dy="4"/>
<feGaussianBlur stdDeviation="2"/>
<feComposite in2="hardAlpha" operator="out"/>
<feColorMatrix type="matrix" values="0 0 0 0 0 0 0 0 0 0 0 0 0 0 0 0 0 0 0.25 0"/>
<feBlend mode="normal" in2="BackgroundImageFix" result="effect1_dropShadow_51_50"/>
<feBlend mode="normal" in="SourceGraphic" in2="effect1_dropShadow_51_50" result="shape"/>
</filter>
<filter id="filter1_d_51_50" x="0" y="0" width="255" height="349.49" filterUnits="userSpaceOnUse" color-interpolation-filters="sRGB">
<feFlood flood-opacity="0" result="BackgroundImageFix"/>
<feColorMatrix in="SourceAlpha" type="matrix" values="0 0 0 0 0 0 0 0 0 0 0 0 0 0 0 0 0 0 127 0" result="hardAlpha"/>
<feOffset dy="4"/>
<feGaussianBlur stdDeviation="2"/>
<feComposite in2="hardAlpha" operator="out"/>
<feColorMatrix type="matrix" values="0 0 0 0 0 0 0 0 0 0 0 0 0 0 0 0 0 0 0.25 0"/>
<feBlend mode="normal" in2="BackgroundImageFix" result="effect1_dropShadow_51_50"/>
<feBlend mode="normal" in="SourceGraphic" in2="effect1_dropShadow_51_50" result="shape"/>
</filter>
</defs>
</svg>
