<svg width="2001" height="301" viewBox="0 0 2001 301" fill="none" xmlns="http://www.w3.org/2000/svg">
<g filter="url(#filter0_d_54_51)">
<path d="M302.44 137V40.41H317.78V82.4H361.85V40.41H377.06V137H361.85V94.1H317.78V137H302.44ZM414.565 137V40.41H429.905V137H414.565ZM467.581 137V40.41H523.741V52.11H482.921V81.49H513.211V93.06H482.921V125.04H528.291V137H467.581ZM572.727 137H557.387V40.41C558.167 40.41 558.926 40.41 559.662 40.41C560.399 40.41 561.136 40.41 561.872 40.41C562.609 40.41 563.367 40.41 564.147 40.41C567.224 40.41 570.864 40.2367 575.067 39.89C579.271 39.5433 583.907 39.37 588.977 39.37C593.831 39.37 598.272 39.89 602.302 40.93C606.332 41.9267 609.821 43.53 612.767 45.74C615.757 47.9067 618.054 50.745 619.657 54.255C621.304 57.7217 622.127 61.9467 622.127 66.93C622.127 72.7367 621.152 77.6333 619.202 81.62C617.252 85.6067 614.457 88.7483 610.817 91.045C607.221 93.3417 602.931 94.88 597.947 95.66C596.171 95.92 594.329 96.1367 592.422 96.31C590.559 96.44 588.111 96.5483 585.077 96.635C582.044 96.6783 577.927 96.7 572.727 96.7V137ZM572.727 85.78C573.637 85.91 575.024 86.0183 576.887 86.105C578.794 86.1483 580.722 86.17 582.672 86.17C584.622 86.17 586.161 86.17 587.287 86.17C593.527 86.17 598.337 84.6533 601.717 81.62C605.097 78.5433 606.787 73.8633 606.787 67.58C606.787 63.8533 606.159 60.7333 604.902 58.22C603.646 55.6633 601.544 53.7567 598.597 52.5C595.694 51.2 591.751 50.55 586.767 50.55C584.254 50.55 581.762 50.6583 579.292 50.875C576.866 51.0483 574.677 51.33 572.727 51.72V85.78ZM611.727 137C611.164 136.133 610.687 135.245 610.297 134.335C609.907 133.425 609.214 131.93 608.217 129.85C606.874 126.947 605.552 123.675 604.252 120.035C602.952 116.352 601.522 112.777 599.962 109.31C598.446 105.843 596.691 102.918 594.697 100.535C592.704 98.1083 590.364 96.7 587.677 96.31L593.527 91.76L602.627 92.54C605.184 93.6233 607.459 95.5733 609.452 98.39C611.489 101.207 613.352 104.478 615.042 108.205C616.776 111.888 618.422 115.637 619.982 119.45C621.586 123.263 623.254 126.73 624.987 129.85C625.637 131.063 626.287 132.277 626.937 133.49C627.587 134.66 628.237 135.83 628.887 137H611.727ZM693.022 138.04C684.052 138.213 676.295 136.177 669.752 131.93C663.209 127.64 658.204 121.703 654.737 114.12C651.27 106.493 649.645 97.7833 649.862 87.99C650.079 77.2 652.202 68.2083 656.232 61.015C660.305 53.8217 665.7 48.4267 672.417 44.83C679.177 41.2333 686.695 39.4133 694.972 39.37C703.552 39.3267 711.027 41.3417 717.397 45.415C723.767 49.445 728.664 55.165 732.087 62.575C735.554 69.985 737.179 78.6733 736.962 88.64C736.745 99.43 734.709 108.465 730.852 115.745C726.995 122.982 721.795 128.463 715.252 132.19C708.709 135.917 701.299 137.867 693.022 138.04ZM693.412 126.34C701.992 126.34 708.817 123.112 713.887 116.655C718.957 110.155 721.492 100.6 721.492 87.99C721.492 81.3167 720.474 75.185 718.437 69.595C716.444 63.9617 713.432 59.455 709.402 56.075C705.415 52.6517 700.432 50.94 694.452 50.94C689.209 50.94 684.377 52.2833 679.957 54.97C675.537 57.6567 671.984 61.795 669.297 67.385C666.654 72.975 665.332 80.1467 665.332 88.9C665.332 95.53 666.372 101.705 668.452 107.425C670.575 113.102 673.717 117.673 677.877 121.14C682.037 124.607 687.215 126.34 693.412 126.34ZM762.269 89.16C762.269 80.7967 763.439 73.5167 765.779 67.32C768.119 61.08 771.348 55.9017 775.464 51.785C779.624 47.625 784.456 44.5267 789.959 42.49C795.463 40.41 801.378 39.37 807.704 39.37C812.558 39.37 816.436 39.5867 819.339 40.02C822.286 40.41 824.886 40.9083 827.139 41.515C829.436 42.0783 831.993 42.62 834.809 43.14L834.159 56.725C831.083 55.165 827.551 53.8867 823.564 52.89C819.621 51.85 814.096 51.33 806.989 51.33C801.356 51.33 796.351 52.76 791.974 55.62C787.641 58.48 784.239 62.5967 781.769 67.97C779.299 73.3433 778.064 79.8433 778.064 87.47C778.064 94.75 779.104 101.337 781.184 107.23C783.264 113.123 786.428 117.803 790.674 121.27C794.964 124.693 800.403 126.405 806.989 126.405C810.499 126.405 814.009 126.123 817.519 125.56C821.073 124.997 823.759 124.13 825.579 122.96V97.35L829.414 100.015L808.549 99.105V87.99H840.269V131.085C838.839 131.172 837.236 131.583 835.459 132.32C833.683 133.013 831.559 133.815 829.089 134.725C826.619 135.592 823.608 136.35 820.054 137C816.544 137.693 812.319 138.04 807.379 138.04C797.803 138.04 789.656 135.938 782.939 131.735C776.223 127.488 771.088 121.682 767.534 114.315C764.024 106.948 762.269 98.5633 762.269 89.16ZM872.129 137V40.41H887.339V124.91H925.299V137H872.129ZM964.65 137V95.92L966.925 104.305L932.865 40.41H949.18L969.98 81.49L974.01 91.37H971.67L975.05 81.49L995.525 40.41H1011.58L977.845 104.305L980.12 96.115V137H964.65ZM1036.64 137V40.41H1043.27C1047.25 40.41 1051.2 40.2367 1055.1 39.89C1059 39.5433 1063.11 39.37 1067.45 39.37C1074.47 39.37 1080.51 40.475 1085.58 42.685C1090.65 44.8517 1094.55 48.275 1097.28 52.955C1100.01 57.5917 1101.38 63.6367 1101.38 71.09C1101.38 81.62 1098.19 89.8317 1091.82 95.725C1085.49 101.575 1076.29 104.5 1064.2 104.5C1061.16 104.5 1058.65 104.478 1056.66 104.435C1054.71 104.392 1053.15 104.37 1051.98 104.37V137H1036.64ZM1051.98 92.67C1053.93 92.93 1055.85 93.1033 1057.76 93.19C1059.71 93.2767 1061.55 93.32 1063.29 93.32C1067.32 93.32 1071.09 92.7567 1074.6 91.63C1078.11 90.46 1080.92 88.2933 1083.05 85.13C1085.21 81.9233 1086.3 77.2433 1086.3 71.09C1086.3 63.68 1084.3 58.3067 1080.32 54.97C1076.37 51.59 1070.65 50.03 1063.16 50.29C1061.29 50.3333 1059.39 50.4417 1057.44 50.615C1055.49 50.7883 1053.67 51.07 1051.98 51.46V92.67ZM1130.5 137V40.41H1145.84V82.4H1189.91V40.41H1205.12V137H1189.91V94.1H1145.84V137H1130.5ZM1270.7 89.095C1270.7 81.0783 1271.89 73.9933 1274.27 67.84C1276.7 61.6867 1280.02 56.4867 1284.22 52.24C1288.42 47.9933 1293.23 44.7867 1298.65 42.62C1304.11 40.4533 1309.85 39.37 1315.87 39.37C1320.73 39.37 1324.8 39.63 1328.09 40.15C1331.43 40.6267 1334.16 41.1467 1336.28 41.71C1338.41 42.2733 1340.12 42.7067 1341.42 43.01L1339.21 56.595C1338.52 56.1617 1337.32 55.555 1335.63 54.775C1333.94 53.995 1331.58 53.28 1328.55 52.63C1325.52 51.9367 1321.62 51.59 1316.85 51.59C1310.61 51.59 1305.17 53.085 1300.53 56.075C1295.9 59.0217 1292.3 63.2467 1289.74 68.75C1287.23 74.21 1285.97 80.6883 1285.97 88.185C1285.97 95.5517 1287.21 102.095 1289.68 107.815C1292.19 113.492 1295.79 117.955 1300.47 121.205C1305.15 124.455 1310.72 126.08 1317.17 126.08C1320.38 126.08 1323.57 125.777 1326.73 125.17C1329.94 124.563 1332.77 123.805 1335.24 122.895C1337.76 121.985 1339.58 121.053 1340.7 120.1V132.97C1338.84 133.707 1336.78 134.465 1334.53 135.245C1332.28 136.025 1329.68 136.675 1326.73 137.195C1323.83 137.758 1320.38 138.04 1316.39 138.04C1307.16 138.04 1299.13 136.003 1292.28 131.93C1285.43 127.813 1280.12 122.093 1276.35 114.77C1272.58 107.403 1270.7 98.845 1270.7 89.095ZM1410.08 138.04C1401.11 138.213 1393.35 136.177 1386.81 131.93C1380.27 127.64 1375.26 121.703 1371.79 114.12C1368.33 106.493 1366.7 97.7833 1366.92 87.99C1367.14 77.2 1369.26 68.2083 1373.29 61.015C1377.36 53.8217 1382.76 48.4267 1389.47 44.83C1396.23 41.2333 1403.75 39.4133 1412.03 39.37C1420.61 39.3267 1428.08 41.3417 1434.45 45.415C1440.82 49.445 1445.72 55.165 1449.14 62.575C1452.61 69.985 1454.24 78.6733 1454.02 88.64C1453.8 99.43 1451.77 108.465 1447.91 115.745C1444.05 122.982 1438.85 128.463 1432.31 132.19C1425.77 135.917 1418.36 137.867 1410.08 138.04ZM1410.47 126.34C1419.05 126.34 1425.87 123.112 1430.94 116.655C1436.01 110.155 1438.55 100.6 1438.55 87.99C1438.55 81.3167 1437.53 75.185 1435.49 69.595C1433.5 63.9617 1430.49 59.455 1426.46 56.075C1422.47 52.6517 1417.49 50.94 1411.51 50.94C1406.27 50.94 1401.43 52.2833 1397.01 54.97C1392.59 57.6567 1389.04 61.795 1386.35 67.385C1383.71 72.975 1382.39 80.1467 1382.39 88.9C1382.39 95.53 1383.43 101.705 1385.51 107.425C1387.63 113.102 1390.77 117.673 1394.93 121.14C1399.09 124.607 1404.27 126.34 1410.47 126.34ZM1484.53 137V40.41C1485.39 40.41 1486.24 40.41 1487.06 40.41C1487.93 40.41 1488.77 40.41 1489.6 40.41C1490.42 40.41 1491.24 40.41 1492.07 40.41C1494.1 40.41 1496.36 40.3233 1498.83 40.15C1501.3 39.9767 1503.9 39.8033 1506.63 39.63C1509.4 39.4567 1512.22 39.37 1515.08 39.37C1530.76 39.37 1542.38 43.465 1549.92 51.655C1557.46 59.8017 1561.23 71.22 1561.23 85.91C1561.23 96.9167 1559.28 106.342 1555.38 114.185C1551.52 122.028 1546.02 128.008 1538.87 132.125C1531.72 136.242 1523.27 138.213 1513.52 138.04C1510.09 137.953 1506.28 137.758 1502.08 137.455C1497.87 137.152 1494.1 137 1490.77 137C1490.07 137 1489.38 137 1488.69 137C1487.99 137 1487.3 137 1486.61 137C1485.91 137 1485.22 137 1484.53 137ZM1499.87 125.43C1501.95 125.863 1504.44 126.188 1507.34 126.405C1510.29 126.578 1513.08 126.643 1515.73 126.6C1521.49 126.513 1526.58 125.148 1531 122.505C1535.46 119.862 1538.95 115.723 1541.47 110.09C1543.98 104.457 1545.24 97.1333 1545.24 88.12C1545.24 78.8033 1544 71.415 1541.53 65.955C1539.06 60.4517 1535.36 56.5083 1530.42 54.125C1525.52 51.7417 1519.41 50.55 1512.09 50.55C1509.57 50.55 1507.25 50.6367 1505.13 50.81C1503.01 50.9833 1501.25 51.2 1499.87 51.46V125.43ZM1591.09 137V40.41H1647.25V52.11H1606.43V81.49H1636.72V93.06H1606.43V125.04H1651.8V137H1591.09Z" fill="#B88F8F"/>
</g>
<path d="M401.719 256.223C397.156 258.578 392.177 259.755 386.781 259.755C379.594 259.755 374.042 257.65 370.125 253.442C366.208 249.234 364.25 243.255 364.25 235.505C364.25 227.775 366.24 221.796 370.219 217.567C374.219 213.317 379.854 211.192 387.125 211.192C391.25 211.192 396.094 211.869 401.656 213.223V219.38C395.323 217.192 390.438 216.098 387 216.098C381.979 216.098 378.094 217.796 375.344 221.192C372.594 224.588 371.219 229.38 371.219 235.567C371.219 241.484 372.688 246.14 375.625 249.536C378.562 252.932 382.583 254.63 387.688 254.63C392.042 254.63 396.719 253.286 401.719 250.598V256.223ZM420.506 212.348H427.069V241.536C427.069 246.182 427.923 249.567 429.631 251.692C431.36 253.796 434.1 254.848 437.85 254.848C441.517 254.848 444.11 253.859 445.631 251.88C447.173 249.88 447.944 246.505 447.944 241.755V212.348H453.694V241.661C453.694 245.703 453.298 248.807 452.506 250.973C451.715 253.14 450.287 255.046 448.225 256.692C445.642 258.734 442.09 259.755 437.569 259.755C431.715 259.755 427.402 258.275 424.631 255.317C421.881 252.359 420.506 247.744 420.506 241.473V212.348ZM472.012 257.723V251.223C477.221 253.64 481.512 254.848 484.887 254.848C487.45 254.848 489.512 254.171 491.075 252.817C492.658 251.442 493.45 249.661 493.45 247.473C493.45 245.661 492.929 244.119 491.887 242.848C490.867 241.578 488.971 240.161 486.2 238.598L483.012 236.755C479.075 234.505 476.294 232.39 474.669 230.411C473.065 228.411 472.262 226.098 472.262 223.473C472.262 219.89 473.554 216.953 476.137 214.661C478.721 212.348 482.012 211.192 486.012 211.192C489.575 211.192 493.335 211.786 497.294 212.973V218.973C492.419 217.057 488.783 216.098 486.387 216.098C484.117 216.098 482.242 216.703 480.762 217.911C479.283 219.119 478.544 220.64 478.544 222.473C478.544 224.015 479.085 225.38 480.169 226.567C481.252 227.755 483.231 229.171 486.106 230.817L489.419 232.692C493.419 234.963 496.21 237.109 497.794 239.13C499.377 241.15 500.169 243.578 500.169 246.411C500.169 250.432 498.69 253.661 495.731 256.098C492.773 258.536 488.846 259.755 483.95 259.755C480.825 259.755 476.846 259.078 472.012 257.723ZM529.956 258.598V217.255H513.55V212.348H552.925V217.255H536.519V258.598H529.956ZM587.962 259.755C581.4 259.755 576.15 257.557 572.212 253.161C568.296 248.744 566.337 242.848 566.337 235.473C566.337 228.098 568.296 222.213 572.212 217.817C576.15 213.4 581.4 211.192 587.962 211.192C594.525 211.192 599.765 213.4 603.681 217.817C607.619 222.213 609.587 228.098 609.587 235.473C609.587 242.848 607.619 248.744 603.681 253.161C599.765 257.557 594.525 259.755 587.962 259.755ZM587.962 254.848C592.567 254.848 596.16 253.14 598.744 249.723C601.327 246.286 602.619 241.515 602.619 235.411C602.619 229.348 601.327 224.619 598.744 221.223C596.16 217.807 592.567 216.098 587.962 216.098C583.358 216.098 579.765 217.807 577.181 221.223C574.598 224.619 573.306 229.348 573.306 235.411C573.306 241.515 574.598 246.286 577.181 249.723C579.765 253.14 583.358 254.848 587.962 254.848ZM628.406 258.598V212.348H637.5L650.312 248.13L663.5 212.348H671.625V258.598H665.5V220.973L652.75 255.505H646.406L634.031 220.88V258.598H628.406ZM720.138 257.723V251.223C725.346 253.64 729.638 254.848 733.013 254.848C735.575 254.848 737.638 254.171 739.2 252.817C740.783 251.442 741.575 249.661 741.575 247.473C741.575 245.661 741.054 244.119 740.013 242.848C738.992 241.578 737.096 240.161 734.325 238.598L731.138 236.755C727.2 234.505 724.419 232.39 722.794 230.411C721.19 228.411 720.388 226.098 720.388 223.473C720.388 219.89 721.679 216.953 724.263 214.661C726.846 212.348 730.138 211.192 734.138 211.192C737.7 211.192 741.46 211.786 745.419 212.973V218.973C740.544 217.057 736.908 216.098 734.513 216.098C732.242 216.098 730.367 216.703 728.888 217.911C727.408 219.119 726.669 220.64 726.669 222.473C726.669 224.015 727.21 225.38 728.294 226.567C729.377 227.755 731.356 229.171 734.231 230.817L737.544 232.692C741.544 234.963 744.335 237.109 745.919 239.13C747.502 241.15 748.294 243.578 748.294 246.411C748.294 250.432 746.815 253.661 743.856 256.098C740.898 258.536 736.971 259.755 732.075 259.755C728.95 259.755 724.971 259.078 720.138 257.723ZM785.987 259.755C779.425 259.755 774.175 257.557 770.237 253.161C766.321 248.744 764.362 242.848 764.362 235.473C764.362 228.098 766.321 222.213 770.237 217.817C774.175 213.4 779.425 211.192 785.987 211.192C792.55 211.192 797.79 213.4 801.706 217.817C805.644 222.213 807.612 228.098 807.612 235.473C807.612 242.848 805.644 248.744 801.706 253.161C797.79 257.557 792.55 259.755 785.987 259.755ZM785.987 254.848C790.592 254.848 794.185 253.14 796.769 249.723C799.352 246.286 800.644 241.515 800.644 235.411C800.644 229.348 799.352 224.619 796.769 221.223C794.185 217.807 790.592 216.098 785.987 216.098C781.383 216.098 777.79 217.807 775.206 221.223C772.623 224.619 771.331 229.348 771.331 235.411C771.331 241.515 772.623 246.286 775.206 249.723C777.79 253.14 781.383 254.848 785.987 254.848ZM826.431 258.598V212.348H852.275V217.255H832.994V232.755H849.181V237.598H832.994V258.598H826.431ZM881.344 258.598V217.255H864.938V212.348H904.312V217.255H887.906V258.598H881.344ZM926.444 258.598L914.537 212.348H920.85L930.319 248.88L939.037 212.348H945.35L953.6 248.38L963.787 212.348H969.131L956.162 258.598H949.631L941.475 222.942L932.944 258.598H926.444ZM979.356 258.598L997.7 212.348H1004.2L1022.26 258.598H1015.17L1010.14 245.786H990.544L985.45 258.598H979.356ZM992.45 240.911H1008.23L1000.36 220.973L992.45 240.911ZM1038.58 258.598V212.348H1052.58C1057.02 212.348 1060.41 213.328 1062.77 215.286C1065.14 217.244 1066.33 220.088 1066.33 223.817C1066.33 226.755 1065.51 229.369 1063.86 231.661C1062.24 233.953 1059.95 235.713 1056.99 236.942L1072.42 258.598H1064.36L1051.21 239.036H1045.08V258.598H1038.58ZM1045.08 234.13H1047.21C1051.25 234.13 1054.32 233.307 1056.42 231.661C1058.53 230.015 1059.58 227.609 1059.58 224.442C1059.58 219.65 1056.12 217.255 1049.21 217.255H1045.08V234.13ZM1088.68 258.598V212.348H1114.53V217.255H1095.24V232.098H1111.4V236.942H1095.24V253.692H1115.87V258.598H1088.68ZM1159.97 257.723V251.223C1165.18 253.64 1169.47 254.848 1172.85 254.848C1175.41 254.848 1177.47 254.171 1179.04 252.817C1180.62 251.442 1181.41 249.661 1181.41 247.473C1181.41 245.661 1180.89 244.119 1179.85 242.848C1178.83 241.578 1176.93 240.161 1174.16 238.598L1170.97 236.755C1167.04 234.505 1164.26 232.39 1162.63 230.411C1161.03 228.411 1160.22 226.098 1160.22 223.473C1160.22 219.89 1161.52 216.953 1164.1 214.661C1166.68 212.348 1169.97 211.192 1173.97 211.192C1177.54 211.192 1181.3 211.786 1185.26 212.973V218.973C1180.38 217.057 1176.75 216.098 1174.35 216.098C1172.08 216.098 1170.2 216.703 1168.72 217.911C1167.25 219.119 1166.51 220.64 1166.51 222.473C1166.51 224.015 1167.05 225.38 1168.13 226.567C1169.21 227.755 1171.19 229.171 1174.07 230.817L1177.38 232.692C1181.38 234.963 1184.17 237.109 1185.76 239.13C1187.34 241.15 1188.13 243.578 1188.13 246.411C1188.13 250.432 1186.65 253.661 1183.69 256.098C1180.74 258.536 1176.81 259.755 1171.91 259.755C1168.79 259.755 1164.81 259.078 1159.97 257.723ZM1225.83 259.755C1219.26 259.755 1214.01 257.557 1210.08 253.161C1206.16 248.744 1204.2 242.848 1204.2 235.473C1204.2 228.098 1206.16 222.213 1210.08 217.817C1214.01 213.4 1219.26 211.192 1225.83 211.192C1232.39 211.192 1237.63 213.4 1241.54 217.817C1245.48 222.213 1247.45 228.098 1247.45 235.473C1247.45 242.848 1245.48 248.744 1241.54 253.161C1237.63 257.557 1232.39 259.755 1225.83 259.755ZM1225.83 254.848C1230.43 254.848 1234.02 253.14 1236.61 249.723C1239.19 246.286 1240.48 241.515 1240.48 235.411C1240.48 229.348 1239.19 224.619 1236.61 221.223C1234.02 217.807 1230.43 216.098 1225.83 216.098C1221.22 216.098 1217.63 217.807 1215.04 221.223C1212.46 224.619 1211.17 229.348 1211.17 235.411C1211.17 241.515 1212.46 246.286 1215.04 249.723C1217.63 253.14 1221.22 254.848 1225.83 254.848ZM1266.27 258.598V212.348H1272.83V253.692H1293.64V258.598H1266.27ZM1309.62 212.348H1316.18V241.536C1316.18 246.182 1317.04 249.567 1318.74 251.692C1320.47 253.796 1323.21 254.848 1326.96 254.848C1330.63 254.848 1333.22 253.859 1334.74 251.88C1336.29 249.88 1337.06 246.505 1337.06 241.755V212.348H1342.81V241.661C1342.81 245.703 1342.41 248.807 1341.62 250.973C1340.83 253.14 1339.4 255.046 1337.34 256.692C1334.75 258.734 1331.2 259.755 1326.68 259.755C1320.83 259.755 1316.51 258.275 1313.74 255.317C1310.99 252.359 1309.62 247.744 1309.62 241.473V212.348ZM1374.97 258.598V217.255H1358.56V212.348H1397.94V217.255H1381.53V258.598H1374.97ZM1414.04 258.598V212.348H1420.6V258.598H1414.04ZM1461.01 259.755C1454.45 259.755 1449.2 257.557 1445.26 253.161C1441.35 248.744 1439.39 242.848 1439.39 235.473C1439.39 228.098 1441.35 222.213 1445.26 217.817C1449.2 213.4 1454.45 211.192 1461.01 211.192C1467.57 211.192 1472.81 213.4 1476.73 217.817C1480.67 222.213 1482.64 228.098 1482.64 235.473C1482.64 242.848 1480.67 248.744 1476.73 253.161C1472.81 257.557 1467.57 259.755 1461.01 259.755ZM1461.01 254.848C1465.62 254.848 1469.21 253.14 1471.79 249.723C1474.38 246.286 1475.67 241.515 1475.67 235.411C1475.67 229.348 1474.38 224.619 1471.79 221.223C1469.21 217.807 1465.62 216.098 1461.01 216.098C1456.41 216.098 1452.81 217.807 1450.23 221.223C1447.65 224.619 1446.36 229.348 1446.36 235.411C1446.36 241.515 1447.65 246.286 1450.23 249.723C1452.81 253.14 1456.41 254.848 1461.01 254.848ZM1501.46 258.598V212.348H1507.89L1531.18 248.067V212.348H1536.8V258.598H1530.39L1507.08 222.88V258.598H1501.46ZM1555.53 257.723V251.223C1560.73 253.64 1565.03 254.848 1568.4 254.848C1570.96 254.848 1573.03 254.171 1574.59 252.817C1576.17 251.442 1576.96 249.661 1576.96 247.473C1576.96 245.661 1576.44 244.119 1575.4 242.848C1574.38 241.578 1572.48 240.161 1569.71 238.598L1566.53 236.755C1562.59 234.505 1559.81 232.39 1558.18 230.411C1556.58 228.411 1555.78 226.098 1555.78 223.473C1555.78 219.89 1557.07 216.953 1559.65 214.661C1562.23 212.348 1565.53 211.192 1569.53 211.192C1573.09 211.192 1576.85 211.786 1580.81 212.973V218.973C1575.93 217.057 1572.3 216.098 1569.9 216.098C1567.63 216.098 1565.75 216.703 1564.28 217.911C1562.8 219.119 1562.06 220.64 1562.06 222.473C1562.06 224.015 1562.6 225.38 1563.68 226.567C1564.76 227.755 1566.74 229.171 1569.62 230.817L1572.93 232.692C1576.93 234.963 1579.72 237.109 1581.31 239.13C1582.89 241.15 1583.68 243.578 1583.68 246.411C1583.68 250.432 1582.2 253.661 1579.24 256.098C1576.29 258.536 1572.36 259.755 1567.46 259.755C1564.34 259.755 1560.36 259.078 1555.53 257.723Z" fill="#B19B9B"/>
<g filter="url(#filter1_d_54_51)">
<path d="M58.1312 0H137.44L156.323 6.29432L168.911 15.1064L178.982 25.1773L187.794 40.2837L191.571 52.8723V120.851H175.206L173.947 55.39L167.652 40.2837L160.099 30.2127L146.252 21.4007L139.957 18.883L131.145 17.6241H60.6489L49.3191 21.4007L36.7305 28.9539L29.1773 37.7659L22.883 50.3546L21.6241 55.39L20.3652 242.961H175.206V180.018H191.571V259.326H4V54.1312L9.03546 37.7659L16.5886 25.1773L29.1773 12.5886L44.2837 3.77659L58.1312 0Z" fill="#824342"/>
<path d="M83.3678 69.0239H111.063L128.687 71.5417L148.829 79.0948L155.123 82.8714V92.9423L142.534 99.2367L126.169 104.272L111.063 106.79H85.8855L68.2614 104.272L49.3785 97.9778L40.5664 92.9423V82.8714L55.6728 75.3182L72.038 70.2828L83.3678 69.0239Z" fill="#814242"/>
<path d="M108.193 116.683L118.264 119.201L117.005 128.013L110.711 146.896L105.676 163.261L98.1224 189.697L86.7926 223.687L76.7217 221.169L77.9805 211.098L91.8281 167.038L103.158 130.531L108.193 116.683Z" fill="#824342"/>
</g>
<defs>
<filter id="filter0_d_54_51" x="298.44" y="39.3051" width="1357.36" height="106.995" filterUnits="userSpaceOnUse" color-interpolation-filters="sRGB">
<feFlood flood-opacity="0" result="BackgroundImageFix"/>
<feColorMatrix in="SourceAlpha" type="matrix" values="0 0 0 0 0 0 0 0 0 0 0 0 0 0 0 0 0 0 127 0" result="hardAlpha"/>
<feOffset dy="4"/>
<feGaussianBlur stdDeviation="2"/>
<feComposite in2="hardAlpha" operator="out"/>
<feColorMatrix type="matrix" values="0 0 0 0 0 0 0 0 0 0 0 0 0 0 0 0 0 0 0.25 0"/>
<feBlend mode="normal" in2="BackgroundImageFix" result="effect1_dropShadow_54_51"/>
<feBlend mode="normal" in="SourceGraphic" in2="effect1_dropShadow_54_51" result="shape"/>
</filter>
<filter id="filter1_d_54_51" x="0" y="0" width="195.571" height="267.326" filterUnits="userSpaceOnUse" color-interpolation-filters="sRGB">
<feFlood flood-opacity="0" result="BackgroundImageFix"/>
<feColorMatrix in="SourceAlpha" type="matrix" values="0 0 0 0 0 0 0 0 0 0 0 0 0 0 0 0 0 0 127 0" result="hardAlpha"/>
<feOffset dy="4"/>
<feGaussianBlur stdDeviation="2"/>
<feComposite in2="hardAlpha" operator="out"/>
<feColorMatrix type="matrix" values="0 0 0 0 0 0 0 0 0 0 0 0 0 0 0 0 0 0 0.25 0"/>
<feBlend mode="normal" in2="BackgroundImageFix" result="effect1_dropShadow_54_51"/>
<feBlend mode="normal" in="SourceGraphic" in2="effect1_dropShadow_54_51" result="shape"/>
</filter>
</defs>
</svg>
