<svg width="2034" height="292" viewBox="0 0 2034 292" fill="none" xmlns="http://www.w3.org/2000/svg">
<g filter="url(#filter0_d_57_103)">
<path d="M335.44 128V31.41H350.78V73.4H394.85V31.41H410.06V128H394.85V85.1H350.78V128H335.44ZM447.565 128V31.41H462.905V128H447.565ZM500.581 128V31.41H556.741V43.11H515.921V72.49H546.211V84.06H515.921V116.04H561.291V128H500.581ZM605.727 128H590.387V31.41C591.167 31.41 591.926 31.41 592.662 31.41C593.399 31.41 594.136 31.41 594.872 31.41C595.609 31.41 596.367 31.41 597.147 31.41C600.224 31.41 603.864 31.2367 608.067 30.89C612.271 30.5433 616.907 30.37 621.977 30.37C626.831 30.37 631.272 30.89 635.302 31.93C639.332 32.9267 642.821 34.53 645.767 36.74C648.757 38.9067 651.054 41.745 652.657 45.255C654.304 48.7217 655.127 52.9467 655.127 57.93C655.127 63.7367 654.152 68.6333 652.202 72.62C650.252 76.6067 647.457 79.7483 643.817 82.045C640.221 84.3417 635.931 85.88 630.947 86.66C629.171 86.92 627.329 87.1367 625.422 87.31C623.559 87.44 621.111 87.5483 618.077 87.635C615.044 87.6783 610.927 87.7 605.727 87.7V128ZM605.727 76.78C606.637 76.91 608.024 77.0183 609.887 77.105C611.794 77.1483 613.722 77.17 615.672 77.17C617.622 77.17 619.161 77.17 620.287 77.17C626.527 77.17 631.337 75.6533 634.717 72.62C638.097 69.5433 639.787 64.8633 639.787 58.58C639.787 54.8533 639.159 51.7333 637.902 49.22C636.646 46.6633 634.544 44.7567 631.597 43.5C628.694 42.2 624.751 41.55 619.767 41.55C617.254 41.55 614.762 41.6583 612.292 41.875C609.866 42.0483 607.677 42.33 605.727 42.72V76.78ZM644.727 128C644.164 127.133 643.687 126.245 643.297 125.335C642.907 124.425 642.214 122.93 641.217 120.85C639.874 117.947 638.552 114.675 637.252 111.035C635.952 107.352 634.522 103.777 632.962 100.31C631.446 96.8433 629.691 93.9183 627.697 91.535C625.704 89.1083 623.364 87.7 620.677 87.31L626.527 82.76L635.627 83.54C638.184 84.6233 640.459 86.5733 642.452 89.39C644.489 92.2067 646.352 95.4783 648.042 99.205C649.776 102.888 651.422 106.637 652.982 110.45C654.586 114.263 656.254 117.73 657.987 120.85C658.637 122.063 659.287 123.277 659.937 124.49C660.587 125.66 661.237 126.83 661.887 128H644.727ZM726.022 129.04C717.052 129.213 709.295 127.177 702.752 122.93C696.209 118.64 691.204 112.703 687.737 105.12C684.27 97.4933 682.645 88.7833 682.862 78.99C683.079 68.2 685.202 59.2083 689.232 52.015C693.305 44.8217 698.7 39.4267 705.417 35.83C712.177 32.2333 719.695 30.4133 727.972 30.37C736.552 30.3267 744.027 32.3417 750.397 36.415C756.767 40.445 761.664 46.165 765.087 53.575C768.554 60.985 770.179 69.6733 769.962 79.64C769.745 90.43 767.709 99.465 763.852 106.745C759.995 113.982 754.795 119.463 748.252 123.19C741.709 126.917 734.299 128.867 726.022 129.04ZM726.412 117.34C734.992 117.34 741.817 114.112 746.887 107.655C751.957 101.155 754.492 91.6 754.492 78.99C754.492 72.3167 753.474 66.185 751.437 60.595C749.444 54.9617 746.432 50.455 742.402 47.075C738.415 43.6517 733.432 41.94 727.452 41.94C722.209 41.94 717.377 43.2833 712.957 45.97C708.537 48.6567 704.984 52.795 702.297 58.385C699.654 63.975 698.332 71.1467 698.332 79.9C698.332 86.53 699.372 92.705 701.452 98.425C703.575 104.102 706.717 108.673 710.877 112.14C715.037 115.607 720.215 117.34 726.412 117.34ZM795.269 80.16C795.269 71.7967 796.439 64.5167 798.779 58.32C801.119 52.08 804.348 46.9017 808.464 42.785C812.624 38.625 817.456 35.5267 822.959 33.49C828.463 31.41 834.378 30.37 840.704 30.37C845.558 30.37 849.436 30.5867 852.339 31.02C855.286 31.41 857.886 31.9083 860.139 32.515C862.436 33.0783 864.993 33.62 867.809 34.14L867.159 47.725C864.083 46.165 860.551 44.8867 856.564 43.89C852.621 42.85 847.096 42.33 839.989 42.33C834.356 42.33 829.351 43.76 824.974 46.62C820.641 49.48 817.239 53.5967 814.769 58.97C812.299 64.3433 811.064 70.8433 811.064 78.47C811.064 85.75 812.104 92.3367 814.184 98.23C816.264 104.123 819.428 108.803 823.674 112.27C827.964 115.693 833.403 117.405 839.989 117.405C843.499 117.405 847.009 117.123 850.519 116.56C854.073 115.997 856.759 115.13 858.579 113.96V88.35L862.414 91.015L841.549 90.105V78.99H873.269V122.085C871.839 122.172 870.236 122.583 868.459 123.32C866.683 124.013 864.559 124.815 862.089 125.725C859.619 126.592 856.608 127.35 853.054 128C849.544 128.693 845.319 129.04 840.379 129.04C830.803 129.04 822.656 126.938 815.939 122.735C809.223 118.488 804.088 112.682 800.534 105.315C797.024 97.9483 795.269 89.5633 795.269 80.16ZM905.129 128V31.41H920.339V115.91H958.299V128H905.129ZM997.65 128V86.92L999.925 95.305L965.865 31.41H982.18L1002.98 72.49L1007.01 82.37H1004.67L1008.05 72.49L1028.52 31.41H1044.58L1010.84 95.305L1013.12 87.115V128H997.65ZM1069.64 128V31.41H1076.27C1080.25 31.41 1084.2 31.2367 1088.1 30.89C1092 30.5433 1096.11 30.37 1100.45 30.37C1107.47 30.37 1113.51 31.475 1118.58 33.685C1123.65 35.8517 1127.55 39.275 1130.28 43.955C1133.01 48.5917 1134.38 54.6367 1134.38 62.09C1134.38 72.62 1131.19 80.8317 1124.82 86.725C1118.49 92.575 1109.29 95.5 1097.2 95.5C1094.16 95.5 1091.65 95.4783 1089.66 95.435C1087.71 95.3917 1086.15 95.37 1084.98 95.37V128H1069.64ZM1084.98 83.67C1086.93 83.93 1088.85 84.1033 1090.76 84.19C1092.71 84.2767 1094.55 84.32 1096.29 84.32C1100.32 84.32 1104.09 83.7567 1107.6 82.63C1111.11 81.46 1113.92 79.2933 1116.05 76.13C1118.21 72.9233 1119.3 68.2433 1119.3 62.09C1119.3 54.68 1117.3 49.3067 1113.32 45.97C1109.37 42.59 1103.65 41.03 1096.16 41.29C1094.29 41.3333 1092.39 41.4417 1090.44 41.615C1088.49 41.7883 1086.67 42.07 1084.98 42.46V83.67ZM1163.5 128V31.41H1178.84V73.4H1222.91V31.41H1238.12V128H1222.91V85.1H1178.84V128H1163.5ZM1303.7 80.095C1303.7 72.0783 1304.89 64.9933 1307.27 58.84C1309.7 52.6867 1313.02 47.4867 1317.22 43.24C1321.42 38.9933 1326.23 35.7867 1331.65 33.62C1337.11 31.4533 1342.85 30.37 1348.87 30.37C1353.73 30.37 1357.8 30.63 1361.09 31.15C1364.43 31.6267 1367.16 32.1467 1369.28 32.71C1371.41 33.2733 1373.12 33.7067 1374.42 34.01L1372.21 47.595C1371.52 47.1617 1370.32 46.555 1368.63 45.775C1366.94 44.995 1364.58 44.28 1361.55 43.63C1358.52 42.9367 1354.62 42.59 1349.85 42.59C1343.61 42.59 1338.17 44.085 1333.53 47.075C1328.9 50.0217 1325.3 54.2467 1322.74 59.75C1320.23 65.21 1318.97 71.6883 1318.97 79.185C1318.97 86.5517 1320.21 93.095 1322.68 98.815C1325.19 104.492 1328.79 108.955 1333.47 112.205C1338.15 115.455 1343.72 117.08 1350.17 117.08C1353.38 117.08 1356.57 116.777 1359.73 116.17C1362.94 115.563 1365.77 114.805 1368.24 113.895C1370.76 112.985 1372.58 112.053 1373.7 111.1V123.97C1371.84 124.707 1369.78 125.465 1367.53 126.245C1365.28 127.025 1362.68 127.675 1359.73 128.195C1356.83 128.758 1353.38 129.04 1349.39 129.04C1340.16 129.04 1332.13 127.003 1325.28 122.93C1318.43 118.813 1313.12 113.093 1309.35 105.77C1305.58 98.4033 1303.7 89.845 1303.7 80.095ZM1443.08 129.04C1434.11 129.213 1426.35 127.177 1419.81 122.93C1413.27 118.64 1408.26 112.703 1404.79 105.12C1401.33 97.4933 1399.7 88.7833 1399.92 78.99C1400.14 68.2 1402.26 59.2083 1406.29 52.015C1410.36 44.8217 1415.76 39.4267 1422.47 35.83C1429.23 32.2333 1436.75 30.4133 1445.03 30.37C1453.61 30.3267 1461.08 32.3417 1467.45 36.415C1473.82 40.445 1478.72 46.165 1482.14 53.575C1485.61 60.985 1487.24 69.6733 1487.02 79.64C1486.8 90.43 1484.77 99.465 1480.91 106.745C1477.05 113.982 1471.85 119.463 1465.31 123.19C1458.77 126.917 1451.36 128.867 1443.08 129.04ZM1443.47 117.34C1452.05 117.34 1458.87 114.112 1463.94 107.655C1469.01 101.155 1471.55 91.6 1471.55 78.99C1471.55 72.3167 1470.53 66.185 1468.49 60.595C1466.5 54.9617 1463.49 50.455 1459.46 47.075C1455.47 43.6517 1450.49 41.94 1444.51 41.94C1439.27 41.94 1434.43 43.2833 1430.01 45.97C1425.59 48.6567 1422.04 52.795 1419.35 58.385C1416.71 63.975 1415.39 71.1467 1415.39 79.9C1415.39 86.53 1416.43 92.705 1418.51 98.425C1420.63 104.102 1423.77 108.673 1427.93 112.14C1432.09 115.607 1437.27 117.34 1443.47 117.34ZM1517.53 128V31.41C1518.39 31.41 1519.24 31.41 1520.06 31.41C1520.93 31.41 1521.77 31.41 1522.6 31.41C1523.42 31.41 1524.24 31.41 1525.07 31.41C1527.1 31.41 1529.36 31.3233 1531.83 31.15C1534.3 30.9767 1536.9 30.8033 1539.63 30.63C1542.4 30.4567 1545.22 30.37 1548.08 30.37C1563.76 30.37 1575.38 34.465 1582.92 42.655C1590.46 50.8017 1594.23 62.22 1594.23 76.91C1594.23 87.9167 1592.28 97.3417 1588.38 105.185C1584.52 113.028 1579.02 119.008 1571.87 123.125C1564.72 127.242 1556.27 129.213 1546.52 129.04C1543.09 128.953 1539.28 128.758 1535.08 128.455C1530.87 128.152 1527.1 128 1523.77 128C1523.07 128 1522.38 128 1521.69 128C1520.99 128 1520.3 128 1519.61 128C1518.91 128 1518.22 128 1517.53 128ZM1532.87 116.43C1534.95 116.863 1537.44 117.188 1540.34 117.405C1543.29 117.578 1546.08 117.643 1548.73 117.6C1554.49 117.513 1559.58 116.148 1564 113.505C1568.46 110.862 1571.95 106.723 1574.47 101.09C1576.98 95.4567 1578.24 88.1333 1578.24 79.12C1578.24 69.8033 1577 62.415 1574.53 56.955C1572.06 51.4517 1568.36 47.5083 1563.42 45.125C1558.52 42.7417 1552.41 41.55 1545.09 41.55C1542.57 41.55 1540.25 41.6367 1538.13 41.81C1536.01 41.9833 1534.25 42.2 1532.87 42.46V116.43ZM1624.09 128V31.41H1680.25V43.11H1639.43V72.49H1669.72V84.06H1639.43V116.04H1684.8V128H1624.09Z" fill="#B88F8F"/>
</g>
<path d="M434.719 247.223C430.156 249.577 425.177 250.755 419.781 250.755C412.594 250.755 407.042 248.65 403.125 244.442C399.208 240.234 397.25 234.255 397.25 226.505C397.25 218.775 399.24 212.796 403.219 208.567C407.219 204.317 412.854 202.192 420.125 202.192C424.25 202.192 429.094 202.869 434.656 204.223V210.38C428.323 208.192 423.438 207.098 420 207.098C414.979 207.098 411.094 208.796 408.344 212.192C405.594 215.588 404.219 220.38 404.219 226.567C404.219 232.484 405.688 237.14 408.625 240.536C411.562 243.932 415.583 245.63 420.688 245.63C425.042 245.63 429.719 244.286 434.719 241.598V247.223ZM453.506 203.348H460.069V232.536C460.069 237.182 460.923 240.567 462.631 242.692C464.36 244.796 467.1 245.848 470.85 245.848C474.517 245.848 477.11 244.859 478.631 242.88C480.173 240.88 480.944 237.505 480.944 232.755V203.348H486.694V232.661C486.694 236.702 486.298 239.807 485.506 241.973C484.715 244.14 483.287 246.046 481.225 247.692C478.642 249.734 475.09 250.755 470.569 250.755C464.715 250.755 460.402 249.275 457.631 246.317C454.881 243.359 453.506 238.744 453.506 232.473V203.348ZM505.012 248.723V242.223C510.221 244.64 514.512 245.848 517.887 245.848C520.45 245.848 522.512 245.171 524.075 243.817C525.658 242.442 526.45 240.661 526.45 238.473C526.45 236.661 525.929 235.119 524.887 233.848C523.867 232.577 521.971 231.161 519.2 229.598L516.012 227.755C512.075 225.505 509.294 223.39 507.669 221.411C506.065 219.411 505.262 217.098 505.262 214.473C505.262 210.89 506.554 207.952 509.137 205.661C511.721 203.348 515.012 202.192 519.012 202.192C522.575 202.192 526.335 202.786 530.294 203.973V209.973C525.419 208.057 521.783 207.098 519.387 207.098C517.117 207.098 515.242 207.702 513.762 208.911C512.283 210.119 511.544 211.64 511.544 213.473C511.544 215.015 512.085 216.38 513.169 217.567C514.252 218.755 516.231 220.171 519.106 221.817L522.419 223.692C526.419 225.963 529.21 228.109 530.794 230.13C532.377 232.15 533.169 234.577 533.169 237.411C533.169 241.432 531.69 244.661 528.731 247.098C525.773 249.536 521.846 250.755 516.95 250.755C513.825 250.755 509.846 250.077 505.012 248.723ZM562.956 249.598V208.255H546.55V203.348H585.925V208.255H569.519V249.598H562.956ZM620.962 250.755C614.4 250.755 609.15 248.557 605.212 244.161C601.296 239.744 599.337 233.848 599.337 226.473C599.337 219.098 601.296 213.213 605.212 208.817C609.15 204.4 614.4 202.192 620.962 202.192C627.525 202.192 632.765 204.4 636.681 208.817C640.619 213.213 642.587 219.098 642.587 226.473C642.587 233.848 640.619 239.744 636.681 244.161C632.765 248.557 627.525 250.755 620.962 250.755ZM620.962 245.848C625.567 245.848 629.16 244.14 631.744 240.723C634.327 237.286 635.619 232.515 635.619 226.411C635.619 220.348 634.327 215.619 631.744 212.223C629.16 208.807 625.567 207.098 620.962 207.098C616.358 207.098 612.765 208.807 610.181 212.223C607.598 215.619 606.306 220.348 606.306 226.411C606.306 232.515 607.598 237.286 610.181 240.723C612.765 244.14 616.358 245.848 620.962 245.848ZM661.406 249.598V203.348H670.5L683.312 239.13L696.5 203.348H704.625V249.598H698.5V211.973L685.75 246.505H679.406L667.031 211.88V249.598H661.406ZM753.138 248.723V242.223C758.346 244.64 762.638 245.848 766.013 245.848C768.575 245.848 770.638 245.171 772.2 243.817C773.783 242.442 774.575 240.661 774.575 238.473C774.575 236.661 774.054 235.119 773.013 233.848C771.992 232.577 770.096 231.161 767.325 229.598L764.138 227.755C760.2 225.505 757.419 223.39 755.794 221.411C754.19 219.411 753.388 217.098 753.388 214.473C753.388 210.89 754.679 207.952 757.263 205.661C759.846 203.348 763.138 202.192 767.138 202.192C770.7 202.192 774.46 202.786 778.419 203.973V209.973C773.544 208.057 769.908 207.098 767.513 207.098C765.242 207.098 763.367 207.702 761.888 208.911C760.408 210.119 759.669 211.64 759.669 213.473C759.669 215.015 760.21 216.38 761.294 217.567C762.377 218.755 764.356 220.171 767.231 221.817L770.544 223.692C774.544 225.963 777.335 228.109 778.919 230.13C780.502 232.15 781.294 234.577 781.294 237.411C781.294 241.432 779.815 244.661 776.856 247.098C773.898 249.536 769.971 250.755 765.075 250.755C761.95 250.755 757.971 250.077 753.138 248.723ZM818.987 250.755C812.425 250.755 807.175 248.557 803.237 244.161C799.321 239.744 797.362 233.848 797.362 226.473C797.362 219.098 799.321 213.213 803.237 208.817C807.175 204.4 812.425 202.192 818.987 202.192C825.55 202.192 830.79 204.4 834.706 208.817C838.644 213.213 840.612 219.098 840.612 226.473C840.612 233.848 838.644 239.744 834.706 244.161C830.79 248.557 825.55 250.755 818.987 250.755ZM818.987 245.848C823.592 245.848 827.185 244.14 829.769 240.723C832.352 237.286 833.644 232.515 833.644 226.411C833.644 220.348 832.352 215.619 829.769 212.223C827.185 208.807 823.592 207.098 818.987 207.098C814.383 207.098 810.79 208.807 808.206 212.223C805.623 215.619 804.331 220.348 804.331 226.411C804.331 232.515 805.623 237.286 808.206 240.723C810.79 244.14 814.383 245.848 818.987 245.848ZM859.431 249.598V203.348H885.275V208.255H865.994V223.755H882.181V228.598H865.994V249.598H859.431ZM914.344 249.598V208.255H897.938V203.348H937.312V208.255H920.906V249.598H914.344ZM959.444 249.598L947.537 203.348H953.85L963.319 239.88L972.037 203.348H978.35L986.6 239.38L996.787 203.348H1002.13L989.162 249.598H982.631L974.475 213.942L965.944 249.598H959.444ZM1012.36 249.598L1030.7 203.348H1037.2L1055.26 249.598H1048.17L1043.14 236.786H1023.54L1018.45 249.598H1012.36ZM1025.45 231.911H1041.23L1033.36 211.973L1025.45 231.911ZM1071.58 249.598V203.348H1085.58C1090.02 203.348 1093.41 204.327 1095.77 206.286C1098.14 208.244 1099.33 211.088 1099.33 214.817C1099.33 217.755 1098.51 220.369 1096.86 222.661C1095.24 224.952 1092.95 226.713 1089.99 227.942L1105.42 249.598H1097.36L1084.21 230.036H1078.08V249.598H1071.58ZM1078.08 225.13H1080.21C1084.25 225.13 1087.32 224.307 1089.42 222.661C1091.53 221.015 1092.58 218.609 1092.58 215.442C1092.58 210.65 1089.12 208.255 1082.21 208.255H1078.08V225.13ZM1121.68 249.598V203.348H1147.53V208.255H1128.24V223.098H1144.4V227.942H1128.24V244.692H1148.87V249.598H1121.68ZM1192.97 248.723V242.223C1198.18 244.64 1202.47 245.848 1205.85 245.848C1208.41 245.848 1210.47 245.171 1212.04 243.817C1213.62 242.442 1214.41 240.661 1214.41 238.473C1214.41 236.661 1213.89 235.119 1212.85 233.848C1211.83 232.577 1209.93 231.161 1207.16 229.598L1203.97 227.755C1200.04 225.505 1197.26 223.39 1195.63 221.411C1194.03 219.411 1193.22 217.098 1193.22 214.473C1193.22 210.89 1194.52 207.952 1197.1 205.661C1199.68 203.348 1202.97 202.192 1206.97 202.192C1210.54 202.192 1214.3 202.786 1218.26 203.973V209.973C1213.38 208.057 1209.75 207.098 1207.35 207.098C1205.08 207.098 1203.2 207.702 1201.72 208.911C1200.25 210.119 1199.51 211.64 1199.51 213.473C1199.51 215.015 1200.05 216.38 1201.13 217.567C1202.21 218.755 1204.19 220.171 1207.07 221.817L1210.38 223.692C1214.38 225.963 1217.17 228.109 1218.76 230.13C1220.34 232.15 1221.13 234.577 1221.13 237.411C1221.13 241.432 1219.65 244.661 1216.69 247.098C1213.74 249.536 1209.81 250.755 1204.91 250.755C1201.79 250.755 1197.81 250.077 1192.97 248.723ZM1258.83 250.755C1252.26 250.755 1247.01 248.557 1243.08 244.161C1239.16 239.744 1237.2 233.848 1237.2 226.473C1237.2 219.098 1239.16 213.213 1243.08 208.817C1247.01 204.4 1252.26 202.192 1258.83 202.192C1265.39 202.192 1270.63 204.4 1274.54 208.817C1278.48 213.213 1280.45 219.098 1280.45 226.473C1280.45 233.848 1278.48 239.744 1274.54 244.161C1270.63 248.557 1265.39 250.755 1258.83 250.755ZM1258.83 245.848C1263.43 245.848 1267.02 244.14 1269.61 240.723C1272.19 237.286 1273.48 232.515 1273.48 226.411C1273.48 220.348 1272.19 215.619 1269.61 212.223C1267.02 208.807 1263.43 207.098 1258.83 207.098C1254.22 207.098 1250.63 208.807 1248.04 212.223C1245.46 215.619 1244.17 220.348 1244.17 226.411C1244.17 232.515 1245.46 237.286 1248.04 240.723C1250.63 244.14 1254.22 245.848 1258.83 245.848ZM1299.27 249.598V203.348H1305.83V244.692H1326.64V249.598H1299.27ZM1342.62 203.348H1349.18V232.536C1349.18 237.182 1350.04 240.567 1351.74 242.692C1353.47 244.796 1356.21 245.848 1359.96 245.848C1363.63 245.848 1366.22 244.859 1367.74 242.88C1369.29 240.88 1370.06 237.505 1370.06 232.755V203.348H1375.81V232.661C1375.81 236.702 1375.41 239.807 1374.62 241.973C1373.83 244.14 1372.4 246.046 1370.34 247.692C1367.75 249.734 1364.2 250.755 1359.68 250.755C1353.83 250.755 1349.51 249.275 1346.74 246.317C1343.99 243.359 1342.62 238.744 1342.62 232.473V203.348ZM1407.97 249.598V208.255H1391.56V203.348H1430.94V208.255H1414.53V249.598H1407.97ZM1447.04 249.598V203.348H1453.6V249.598H1447.04ZM1494.01 250.755C1487.45 250.755 1482.2 248.557 1478.26 244.161C1474.35 239.744 1472.39 233.848 1472.39 226.473C1472.39 219.098 1474.35 213.213 1478.26 208.817C1482.2 204.4 1487.45 202.192 1494.01 202.192C1500.57 202.192 1505.81 204.4 1509.73 208.817C1513.67 213.213 1515.64 219.098 1515.64 226.473C1515.64 233.848 1513.67 239.744 1509.73 244.161C1505.81 248.557 1500.57 250.755 1494.01 250.755ZM1494.01 245.848C1498.62 245.848 1502.21 244.14 1504.79 240.723C1507.38 237.286 1508.67 232.515 1508.67 226.411C1508.67 220.348 1507.38 215.619 1504.79 212.223C1502.21 208.807 1498.62 207.098 1494.01 207.098C1489.41 207.098 1485.81 208.807 1483.23 212.223C1480.65 215.619 1479.36 220.348 1479.36 226.411C1479.36 232.515 1480.65 237.286 1483.23 240.723C1485.81 244.14 1489.41 245.848 1494.01 245.848ZM1534.46 249.598V203.348H1540.89L1564.18 239.067V203.348H1569.8V249.598H1563.39L1540.08 213.88V249.598H1534.46ZM1588.53 248.723V242.223C1593.73 244.64 1598.03 245.848 1601.4 245.848C1603.96 245.848 1606.03 245.171 1607.59 243.817C1609.17 242.442 1609.96 240.661 1609.96 238.473C1609.96 236.661 1609.44 235.119 1608.4 233.848C1607.38 232.577 1605.48 231.161 1602.71 229.598L1599.53 227.755C1595.59 225.505 1592.81 223.39 1591.18 221.411C1589.58 219.411 1588.78 217.098 1588.78 214.473C1588.78 210.89 1590.07 207.952 1592.65 205.661C1595.23 203.348 1598.53 202.192 1602.53 202.192C1606.09 202.192 1609.85 202.786 1613.81 203.973V209.973C1608.93 208.057 1605.3 207.098 1602.9 207.098C1600.63 207.098 1598.75 207.702 1597.28 208.911C1595.8 210.119 1595.06 211.64 1595.06 213.473C1595.06 215.015 1595.6 216.38 1596.68 217.567C1597.76 218.755 1599.74 220.171 1602.62 221.817L1605.93 223.692C1609.93 225.963 1612.72 228.109 1614.31 230.13C1615.89 232.15 1616.68 234.577 1616.68 237.411C1616.68 241.432 1615.2 244.661 1612.24 247.098C1609.29 249.536 1605.36 250.755 1600.46 250.755C1597.34 250.755 1593.36 250.077 1588.53 248.723Z" fill="#B19B9B"/>
<path d="M84.2748 4.05898C87.8909 2.95198 93.7209 1.69739 97.1895 1.10699C100.658 0.590397 105.233 0.147599 107.374 0.0737996C110.547 0 111.506 0.295199 114.901 3.68998V30.6268C114.901 57.5637 114.901 57.5637 113.277 59.3349C111.802 60.8847 110.326 61.3275 102.724 62.4345C97.8537 63.0987 89.5882 64.7223 84.2748 66.0507C79.0351 67.379 72.0243 69.5192 62.8733 73.0616L64.6444 79.187C65.6038 82.508 66.637 85.5338 66.8584 85.8289C67.0798 86.1979 69.1461 85.8289 71.3601 85.0172C73.574 84.2054 78.0757 83.1722 81.3228 82.6556C84.939 82.0652 90.2524 81.8438 94.9755 82.139C99.7724 82.3604 104.717 83.0984 107.89 84.1316C110.768 85.0172 115.344 86.8621 123.388 90.8473L128.037 88.6333C130.546 87.3787 135.491 85.46 139.107 84.353C144.863 82.5818 146.708 82.3604 156.597 82.3604C166.707 82.3604 168.183 82.508 173.571 84.353C176.818 85.46 179.696 86.3455 180.065 86.3455C180.36 86.3455 181.393 83.615 182.426 80.294C183.46 76.8992 184.271 73.9472 184.271 73.652C184.271 73.283 183.017 72.545 181.541 71.8808C179.991 71.2904 175.785 69.7406 172.095 68.5598C168.479 67.379 160.656 65.3865 154.752 64.2057C148.848 63.0249 142.206 61.9179 139.992 61.6227C137.779 61.4013 135.343 60.8109 134.605 60.2943C133.72 59.7777 132.982 57.9327 132.613 55.7187C132.244 53.7261 131.948 41.254 131.875 28.0439C131.801 5.01837 131.875 3.98518 133.351 1.99259C134.679 0.147599 135.269 0 139.623 0C142.28 0 147.815 0.664196 152.022 1.54979C156.154 2.36159 162.206 3.91138 165.453 4.94457C168.7 5.97777 174.53 8.41316 178.368 10.3319C182.205 12.3245 187.814 15.5717 190.766 17.6381C193.644 19.7045 198.146 23.4683 205.378 30.6268L210.396 46.8628C213.127 55.7925 218.735 73.5782 222.794 86.3455C226.927 99.1129 232.388 116.382 234.971 124.721C237.554 133.061 241.318 144.795 243.31 150.92C245.376 156.972 247 163.097 247 164.352C247 166.566 242.129 171.658 188.995 224.498C157.04 256.306 130.104 282.874 128.997 283.538C127.89 284.35 125.676 284.866 123.757 284.866C121.838 284.866 119.624 284.35 118.517 283.538C117.484 282.874 90.4738 256.38 58.593 224.72C15.052 181.473 0.439918 166.64 0.0709261 164.942C-0.298065 163.319 0.735111 159.26 4.05603 149.075C6.49138 141.548 12.0262 124.5 16.2327 111.068C20.5131 97.6369 26.8597 77.5634 30.402 66.4196C33.8705 55.2759 37.9294 42.6562 39.2578 38.3758C41.6932 30.7744 41.9146 30.4792 47.1542 25.4609C50.1062 22.5827 55.1982 18.4499 58.4454 16.2359C61.6925 14.0957 67.375 10.8485 70.9911 9.07735C74.6072 7.37996 80.6587 5.09217 84.2748 4.05898Z" fill="#4F6BD0"/>
<path fill-rule="evenodd" clip-rule="evenodd" d="M104.207 10.6643C104.65 10.8857 104.945 18.7822 104.798 51.4755L102.067 51.9183C100.517 52.1397 98.5248 52.4349 97.6392 52.6563C96.3108 52.8776 95.7204 52.4349 94.9087 50.5161C94.3921 49.2615 91.3663 40.9221 88.2668 32.14C85.1673 23.284 82.6581 15.904 82.6581 15.6826C82.6581 15.4612 84.5769 14.7971 86.9384 14.1329C89.2262 13.4687 93.9493 12.2879 97.344 11.6237C100.739 10.8857 103.838 10.5167 104.207 10.6643ZM142.656 10.0001L145.313 10.4429C146.789 10.7381 151.438 11.7713 155.718 12.8045C159.999 13.8377 163.762 14.9446 164.058 15.166C164.427 15.4612 161.991 23.8744 158.744 33.9111C155.423 44.0217 152.545 52.361 152.25 52.5086C151.881 52.6562 149.593 52.4349 142.435 51.1065L142.656 10.0001ZM72.474 19.7416C72.843 19.7416 73.2858 20.332 73.5071 21.07C73.7285 21.7342 76.3853 29.3356 79.411 37.8225C82.4367 46.3833 84.9459 53.837 85.0935 54.3536C85.1673 55.0916 83.4699 55.7558 79.3372 56.7152C76.0901 57.4532 70.4076 59.0768 66.7915 60.3314C63.1016 61.586 60.0021 62.3978 59.7807 62.1026C59.5593 61.8812 57.6405 55.6082 51.7367 34.8705L55.2052 31.6972C57.1239 29.926 61.6256 26.5312 65.3155 24.1696C68.9317 21.7342 72.1788 19.7416 72.474 19.7416ZM174.685 19.7416C175.054 19.7416 178.744 22.0294 183.024 24.9076C187.304 27.712 191.88 31.033 193.134 32.2876C194.463 33.5422 195.57 34.9443 195.57 35.4609C195.57 35.9775 194.02 42.0291 192.027 49.0401C190.108 55.9772 188.411 61.8074 188.19 62.0288C187.968 62.324 184.5 61.3646 180.441 59.9624C176.382 58.634 170.7 57.0104 167.895 56.42C164.205 55.682 162.803 55.0916 162.951 54.3536C163.098 53.7632 165.681 46.1619 168.707 37.4535C171.659 28.7452 174.168 21.2176 174.168 20.701C174.168 20.1844 174.389 19.7416 174.685 19.7416ZM46.2018 52.3611C46.2756 52.5087 47.6777 57.2318 49.3013 62.9144C50.9249 68.597 52.4746 73.8367 52.696 74.5747C53.065 75.7555 52.4746 75.8293 45.759 75.8293C40.2241 75.8293 38.453 75.6079 38.6744 74.9437C38.822 74.4271 40.5193 69.1136 42.5119 63.062C44.5044 57.0842 46.128 52.2873 46.2018 52.3611ZM201.695 53.3204L205.237 64.0214C207.156 69.9254 208.779 75.0175 208.779 75.3127C208.853 75.6079 205.68 75.8293 201.842 75.8293C198.005 75.8293 194.832 75.7555 194.832 75.6817C194.832 75.5341 195.274 73.9843 195.865 72.1393C196.455 70.2944 198.005 65.3498 199.333 61.0694L201.695 53.3204ZM34.9106 86.1613H56.4597L58.2309 92.6556C59.1903 96.198 60.0759 99.519 60.2235 100.036C60.4449 100.7 57.1977 100.921 45.759 100.921C37.6412 100.921 30.9993 100.7 30.9993 100.405C30.9993 100.109 31.8849 96.7884 32.9181 93.0246L34.9106 86.1613ZM191.363 86.1613H201.99C207.82 86.1613 212.543 86.2351 212.543 86.3089C212.543 86.4565 213.576 89.7774 216.971 100.921H202.211C188.559 100.921 187.526 100.774 187.747 99.5928C187.894 98.9286 188.78 95.6076 189.739 92.2128L191.363 86.1613ZM93.3589 91.6224C97.713 91.8438 102.141 92.6556 106.274 93.9102C109.742 95.0172 112.768 96.1242 113.063 96.4194C113.358 96.6408 109.964 107.489 105.462 120.478C100.96 133.467 96.4584 146.529 95.499 149.481C94.0969 153.614 93.8755 155.238 94.4659 156.64C94.8349 157.673 96.0894 159.739 97.1964 161.289C98.3772 162.839 104.06 170.145 109.964 177.599C116.31 185.717 121.402 191.473 122.509 191.842C123.69 192.285 125.018 192.211 126.199 191.695C127.232 191.326 128.856 189.702 129.889 188.226C130.922 186.75 136.014 180.034 141.254 173.319C146.494 166.603 151.438 160.108 152.176 158.854C152.914 157.673 153.504 155.976 153.504 155.164C153.504 154.352 149.815 143.061 145.387 130.072C140.885 117.083 136.457 104.39 135.424 101.881C134.022 98.3382 133.8 97.1574 134.465 96.7146C134.981 96.4932 137.712 95.46 140.59 94.5006C143.394 93.5412 148.56 92.4342 152.029 91.9914C157.194 91.2534 159.261 91.3272 163.836 92.2866C166.862 92.877 171.142 94.1316 173.282 95.091C175.57 96.1242 177.194 97.3788 177.12 97.9692C177.12 98.5596 174.611 107.047 171.659 116.788C168.633 126.53 164.427 140.183 162.36 147.046C160.294 153.983 157.932 162.249 157.121 165.496C156.383 168.743 155.645 173.392 155.571 175.828C155.423 178.263 155.571 186.012 156.456 205.717H90.776L91.2925 189.702C91.5877 177.894 91.5139 172.285 90.776 168.448C90.2594 165.643 88.0454 157.009 85.8315 149.26C83.6175 141.585 79.7062 128.448 77.1233 120.109C74.5403 111.77 71.9574 103.283 70.1124 97.2312L73.212 95.6814C74.9831 94.7958 78.673 93.4674 81.5512 92.7294C85.4625 91.6963 88.3406 91.401 93.3589 91.6224ZM124.133 100.921C124.576 100.921 125.314 102.545 125.83 104.464C126.347 106.382 128.487 112.655 130.553 118.485C132.62 124.242 134.096 129.113 133.8 129.334C133.579 129.555 128.93 129.703 123.469 129.703C117.417 129.703 113.653 129.408 113.653 128.965C113.653 128.596 115.129 124.02 116.974 118.854C118.819 113.689 121.033 107.489 121.845 105.202C122.731 102.84 123.69 100.921 124.133 100.921ZM26.7928 111.253H64.2086L65.0203 114.427C65.4631 116.124 66.4963 119.445 68.6365 126.013H45.759C33.1395 126.013 22.8815 125.792 22.8815 125.496C22.8815 125.201 23.7671 121.88 24.8741 118.117L26.7928 111.253ZM220.661 111.253L221.694 115.091C222.358 117.231 223.318 120.552 225.089 126.013H202.211C180.736 126.013 179.334 125.939 179.703 124.685C179.924 124.02 180.81 121.068 181.622 118.264C182.433 115.386 183.245 112.655 183.393 112.139C183.614 111.475 188.042 111.253 220.661 111.253ZM192.175 135.828C200.293 136.124 211.805 136.345 228.41 136.345L230.624 143.356C231.804 147.267 232.69 150.588 232.469 150.736C232.321 150.957 218.595 151.105 202.064 151.105C185.459 151.105 171.954 150.81 171.954 150.515C171.954 150.219 172.84 147.12 173.947 143.725C175.127 140.256 176.308 136.935 176.677 136.419C177.268 135.533 179.924 135.459 192.175 135.828ZM19.2654 136.345L71.2194 136.271L73.212 143.282C74.3189 147.194 75.2783 150.515 75.2783 150.736C75.2783 150.884 61.6256 151.105 45.021 151.105C28.3426 151.105 14.7637 150.81 14.7637 150.515C14.7637 150.219 15.7231 146.898 16.9777 143.135L19.2654 136.345ZM109.521 138.559L112.842 139.076C114.687 139.445 119.852 139.666 124.354 139.666C128.782 139.666 133.727 139.445 138.007 138.559L139.852 144.315C140.885 147.415 141.697 150.293 141.697 150.588C141.697 150.884 133.579 151.105 123.616 151.105C109.521 151.105 105.609 150.884 105.831 150.219C105.978 149.703 106.864 146.825 107.823 143.873L109.521 138.559ZM78.5254 160.773L79.9276 167.193C80.6656 170.809 81.4036 174.13 81.625 174.647C81.8464 175.311 75.7211 175.533 23.9147 175.533L17.4942 169.038C13.9519 165.496 11 162.175 11 161.732C11 160.994 18.306 160.773 78.5254 160.773ZM123.469 160.773C131.439 160.773 136.605 161.068 136.826 161.511C137.047 161.953 135.94 163.798 134.465 165.791C132.915 167.71 129.963 171.474 127.97 174.204C125.978 176.935 124.133 179.149 123.911 179.149C123.764 179.149 120.812 175.533 117.491 171.031C114.17 166.603 111.144 162.47 110.923 161.88C110.48 160.92 112.177 160.773 123.469 160.773ZM168.486 160.773H198.817C215.495 160.773 230.698 160.994 232.616 161.289C234.535 161.658 236.159 162.101 236.159 162.47C236.159 162.765 233.28 165.791 223.539 175.533H194.389C171.437 175.533 165.312 175.311 165.534 174.647C165.681 174.13 166.419 170.809 167.157 167.267L168.486 160.773ZM34.763 185.865H81.8464L81.4774 187.488C81.256 188.374 81.1084 191.547 81.1084 199.886H48.6371L34.763 185.865ZM165.607 185.865H212.322L199.555 199.665L183.098 199.739C174.094 199.813 166.641 199.591 166.641 199.296C166.567 199.001 166.345 195.827 166.05 192.285L165.607 185.865ZM59.4855 210.218H80.3704L80.0752 212.285C79.8538 213.392 79.5586 217.156 79.3372 220.772C78.9682 226.823 78.8206 227.192 77.2709 227.192C76.0901 227.192 73.1382 224.536 67.5295 218.705L59.4855 210.218ZM167.305 210.218H188.485L179.629 219.074C174.758 223.945 170.404 227.93 169.888 227.93C169.371 227.93 168.781 226.971 168.633 225.864C168.412 224.757 168.043 220.772 167.821 217.008L167.305 210.218ZM90.1118 216.122H157.859L158.08 221.51C158.154 224.462 157.932 227.119 157.49 227.414C157.121 227.709 142.066 227.93 124.133 227.93C106.126 227.93 90.9235 227.783 90.3332 227.561C89.7428 227.34 89.2262 226.307 89.2262 225.2C89.2262 224.093 89.4476 221.584 89.669 219.665L90.1118 216.122ZM123.911 237.672C141.992 237.598 157.342 237.819 158.08 238.115C159.261 238.557 158.892 239.222 150.848 248.447L97.344 248.594L93.0637 244.092C90.776 241.583 88.7834 239.295 88.6358 238.926C88.562 238.557 89.0786 238.115 89.7428 237.967C90.4808 237.819 105.831 237.672 123.911 237.672ZM139.778 258.926L123.911 274.793L116.532 267.413C112.473 263.354 109.152 259.738 109.152 259.443C109.152 259.148 116.015 258.926 139.778 258.926Z" fill="#FCC997"/>
<defs>
<filter id="filter0_d_57_103" x="331.44" y="30.305" width="1357.36" height="106.995" filterUnits="userSpaceOnUse" color-interpolation-filters="sRGB">
<feFlood flood-opacity="0" result="BackgroundImageFix"/>
<feColorMatrix in="SourceAlpha" type="matrix" values="0 0 0 0 0 0 0 0 0 0 0 0 0 0 0 0 0 0 127 0" result="hardAlpha"/>
<feOffset dy="4"/>
<feGaussianBlur stdDeviation="2"/>
<feComposite in2="hardAlpha" operator="out"/>
<feColorMatrix type="matrix" values="0 0 0 0 0 0 0 0 0 0 0 0 0 0 0 0 0 0 0.25 0"/>
<feBlend mode="normal" in2="BackgroundImageFix" result="effect1_dropShadow_57_103"/>
<feBlend mode="normal" in="SourceGraphic" in2="effect1_dropShadow_57_103" result="shape"/>
</filter>
</defs>
</svg>
