<svg width="2751" height="495" viewBox="0 0 2751 495" fill="none" xmlns="http://www.w3.org/2000/svg">
<path d="M666.848 122.059H702.128C703.448 122.059 704.588 122.539 705.548 123.499C706.508 124.459 706.988 125.599 706.988 126.919V243.199C706.988 244.519 706.508 245.659 705.548 246.619C704.588 247.579 703.448 248.059 702.128 248.059H666.848C665.528 248.059 664.388 247.579 663.428 246.619C662.468 245.659 661.988 244.519 661.988 243.199V204.319H632.828V243.199C632.828 244.519 632.348 245.659 631.388 246.619C630.428 247.579 629.288 248.059 627.968 248.059H592.688C591.368 248.059 590.228 247.639 589.268 246.799C588.308 245.839 587.828 244.639 587.828 243.199V126.919C587.828 125.599 588.308 124.459 589.268 123.499C590.228 122.539 591.368 122.059 592.688 122.059H627.968C629.288 122.059 630.428 122.539 631.388 123.499C632.348 124.459 632.828 125.599 632.828 126.919V164.719H661.988V126.919C661.988 125.599 662.468 124.459 663.428 123.499C664.388 122.539 665.528 122.059 666.848 122.059ZM789.966 248.059H753.246C751.926 248.059 750.786 247.579 749.826 246.619C748.866 245.659 748.386 244.519 748.386 243.199V126.919C748.386 125.599 748.866 124.459 749.826 123.499C750.786 122.539 751.926 122.059 753.246 122.059H789.966C791.286 122.059 792.426 122.539 793.386 123.499C794.346 124.459 794.826 125.599 794.826 126.919V243.199C794.826 244.519 794.346 245.659 793.386 246.619C792.426 247.579 791.286 248.059 789.966 248.059ZM879.371 212.959H934.811C936.131 212.959 937.271 213.439 938.231 214.399C939.191 215.359 939.671 216.499 939.671 217.819V243.199C939.671 244.519 939.191 245.659 938.231 246.619C937.271 247.579 936.131 248.059 934.811 248.059H841.031C839.711 248.059 838.571 247.579 837.611 246.619C836.651 245.659 836.171 244.519 836.171 243.199V126.919C836.171 125.599 836.651 124.459 837.611 123.499C838.571 122.539 839.711 122.059 841.031 122.059H933.371C934.691 122.059 935.831 122.539 936.791 123.499C937.751 124.459 938.231 125.599 938.231 126.919V152.299C938.231 153.619 937.751 154.759 936.791 155.719C935.831 156.679 934.691 157.159 933.371 157.159H879.371V168.499H929.411C930.731 168.499 931.871 168.979 932.831 169.939C933.791 170.899 934.271 172.039 934.271 173.359V196.759C934.271 198.079 933.791 199.219 932.831 200.179C931.871 201.139 930.731 201.619 929.411 201.619H879.371V212.959ZM1095.25 242.119C1095.61 242.839 1095.79 243.619 1095.79 244.459C1095.79 245.299 1095.37 246.139 1094.53 246.979C1093.81 247.699 1092.91 248.059 1091.83 248.059H1054.93C1051.21 248.059 1048.63 246.439 1047.19 243.199L1031.71 208.819H1024.33V243.199C1024.33 244.519 1023.85 245.659 1022.89 246.619C1021.93 247.579 1020.79 248.059 1019.47 248.059H984.188C982.868 248.059 981.728 247.579 980.768 246.619C979.808 245.659 979.328 244.519 979.328 243.199V126.919C979.328 125.599 979.808 124.459 980.768 123.499C981.728 122.539 982.868 122.059 984.188 122.059H1037.47C1054.75 122.059 1068.25 125.959 1077.97 133.759C1087.69 141.439 1092.55 152.539 1092.55 167.059C1092.55 181.459 1086.07 192.799 1073.11 201.079L1095.25 242.119ZM1024.33 155.539V174.619H1037.47C1040.11 174.619 1042.15 173.779 1043.59 172.099C1045.03 170.299 1045.75 168.079 1045.75 165.439C1045.75 162.799 1045.03 160.519 1043.59 158.599C1042.27 156.559 1040.23 155.539 1037.47 155.539H1024.33ZM1143.7 133.579C1154.74 124.699 1169.32 120.259 1187.44 120.259C1205.56 120.259 1220.08 124.759 1231 133.759C1242.04 142.639 1247.56 155.179 1247.56 171.379V199.459C1247.56 215.899 1242.1 228.439 1231.18 237.079C1220.38 245.599 1205.8 249.859 1187.44 249.859C1169.08 249.859 1154.44 245.599 1143.52 237.079C1132.72 228.439 1127.32 215.899 1127.32 199.459V171.379C1127.32 155.059 1132.78 142.459 1143.7 133.579ZM1177.72 211.159C1180.12 213.559 1183.36 214.759 1187.44 214.759C1191.52 214.759 1194.76 213.559 1197.16 211.159C1199.56 208.759 1200.76 205.099 1200.76 200.179V169.939C1200.76 165.139 1199.56 161.539 1197.16 159.139C1194.76 156.619 1191.52 155.359 1187.44 155.359C1183.36 155.359 1180.12 156.619 1177.72 159.139C1175.32 161.539 1174.12 165.139 1174.12 169.939V200.179C1174.12 205.099 1175.32 208.759 1177.72 211.159ZM1349.95 172.099H1399.45C1400.77 172.099 1401.91 172.579 1402.87 173.539C1403.83 174.499 1404.31 175.639 1404.31 176.959V200.359C1404.31 216.199 1398.67 228.439 1387.39 237.079C1376.11 245.599 1361.05 249.859 1342.21 249.859C1323.49 249.859 1308.73 245.719 1297.93 237.439C1287.13 229.039 1281.73 216.499 1281.73 199.819V169.579C1281.73 153.619 1287.25 141.439 1298.29 133.039C1309.33 124.519 1324.03 120.259 1342.39 120.259C1360.87 120.259 1375.81 124.159 1387.21 131.959C1398.61 139.639 1404.31 149.119 1404.31 160.399C1404.31 161.479 1403.89 162.439 1403.05 163.279C1402.33 163.999 1401.43 164.359 1400.35 164.359H1360.57C1358.17 164.359 1356.43 163.699 1355.35 162.379C1352.95 159.259 1351.15 157.459 1349.95 156.979C1347.19 155.899 1344.67 155.359 1342.39 155.359C1333.15 155.359 1328.53 159.859 1328.53 168.859V199.459C1328.53 209.659 1333.45 214.759 1343.29 214.759C1353.37 214.759 1358.41 210.439 1358.41 201.799H1349.95C1348.63 201.799 1347.49 201.319 1346.53 200.359C1345.57 199.399 1345.09 198.259 1345.09 196.939V176.959C1345.09 175.639 1345.57 174.499 1346.53 173.539C1347.49 172.579 1348.63 172.099 1349.95 172.099ZM1487.91 211.159H1537.77C1539.09 211.159 1540.23 211.639 1541.19 212.599C1542.15 213.559 1542.63 214.699 1542.63 216.019V243.199C1542.63 244.519 1542.15 245.659 1541.19 246.619C1540.23 247.579 1539.09 248.059 1537.77 248.059H1447.05C1445.73 248.059 1444.59 247.579 1443.63 246.619C1442.67 245.659 1442.19 244.519 1442.19 243.199V126.919C1442.19 125.599 1442.67 124.459 1443.63 123.499C1444.59 122.539 1445.73 122.059 1447.05 122.059H1483.05C1484.37 122.059 1485.51 122.539 1486.47 123.499C1487.43 124.459 1487.91 125.599 1487.91 126.919V211.159ZM1648.01 248.059H1612.73C1611.41 248.059 1610.27 247.579 1609.31 246.619C1608.35 245.659 1607.87 244.519 1607.87 243.199V207.739L1567.37 127.639C1567.13 127.159 1567.01 126.499 1567.01 125.659C1567.01 124.819 1567.37 124.039 1568.09 123.319C1568.93 122.479 1569.89 122.059 1570.97 122.059H1604.81C1608.41 122.059 1610.93 123.559 1612.37 126.559L1630.37 162.739L1648.37 126.559C1649.81 123.559 1652.33 122.059 1655.93 122.059H1689.77C1690.85 122.059 1691.75 122.479 1692.47 123.319C1693.31 124.039 1693.73 124.819 1693.73 125.659C1693.73 126.499 1693.61 127.159 1693.37 127.639L1652.87 207.739V243.199C1652.87 244.519 1652.39 245.659 1651.43 246.619C1650.47 247.579 1649.33 248.059 1648.01 248.059ZM1730.03 122.059H1783.67C1800.95 122.059 1814.45 125.779 1824.17 133.219C1833.89 140.659 1838.75 151.639 1838.75 166.159C1838.75 180.679 1833.89 191.419 1824.17 198.379C1814.57 205.339 1801.07 208.819 1783.67 208.819H1771.97V243.199C1771.97 244.519 1771.49 245.659 1770.53 246.619C1769.57 247.579 1768.43 248.059 1767.11 248.059H1730.03C1728.71 248.059 1727.57 247.579 1726.61 246.619C1725.65 245.659 1725.17 244.519 1725.17 243.199V126.919C1725.17 125.599 1725.65 124.459 1726.61 123.499C1727.57 122.539 1728.71 122.059 1730.03 122.059ZM1771.07 155.539V175.519H1783.67C1785.83 175.519 1787.75 174.739 1789.43 173.179C1791.11 171.499 1791.95 169.159 1791.95 166.159C1791.95 163.159 1791.29 160.639 1789.97 158.599C1788.65 156.559 1786.55 155.539 1783.67 155.539H1771.07ZM1952.79 122.059H1988.07C1989.39 122.059 1990.53 122.539 1991.49 123.499C1992.45 124.459 1992.93 125.599 1992.93 126.919V243.199C1992.93 244.519 1992.45 245.659 1991.49 246.619C1990.53 247.579 1989.39 248.059 1988.07 248.059H1952.79C1951.47 248.059 1950.33 247.579 1949.37 246.619C1948.41 245.659 1947.93 244.519 1947.93 243.199V204.319H1918.77V243.199C1918.77 244.519 1918.29 245.659 1917.33 246.619C1916.37 247.579 1915.23 248.059 1913.91 248.059H1878.63C1877.31 248.059 1876.17 247.639 1875.21 246.799C1874.25 245.839 1873.77 244.639 1873.77 243.199V126.919C1873.77 125.599 1874.25 124.459 1875.21 123.499C1876.17 122.539 1877.31 122.059 1878.63 122.059H1913.91C1915.23 122.059 1916.37 122.539 1917.33 123.499C1918.29 124.459 1918.77 125.599 1918.77 126.919V164.719H1947.93V126.919C1947.93 125.599 1948.41 124.459 1949.37 123.499C1950.33 122.539 1951.47 122.059 1952.79 122.059ZM2147.74 169.939V200.179C2147.74 209.899 2152.18 214.759 2161.06 214.759C2167.9 214.759 2172.4 211.519 2174.56 205.039C2175.16 202.999 2175.88 201.619 2176.72 200.899C2177.68 200.179 2179.18 199.819 2181.22 199.819H2217.94C2219.02 199.819 2219.92 200.239 2220.64 201.079C2221.48 201.799 2221.9 202.699 2221.9 203.779C2221.9 214.219 2218.9 222.979 2212.9 230.059C2201.86 243.259 2184.64 249.859 2161.24 249.859C2142.88 249.859 2128.24 245.839 2117.32 237.799C2106.4 229.639 2100.94 217.159 2100.94 200.359V169.759C2100.94 153.319 2106.52 140.959 2117.68 132.679C2128.84 124.399 2143.36 120.259 2161.24 120.259C2184.64 120.259 2201.86 126.859 2212.9 140.059C2218.9 147.139 2221.9 155.899 2221.9 166.339C2221.9 167.419 2221.48 168.379 2220.64 169.219C2219.92 169.939 2219.02 170.299 2217.94 170.299H2181.22C2179.3 170.299 2177.86 169.939 2176.9 169.219C2176.06 168.499 2175.28 167.119 2174.56 165.079C2172.28 158.599 2167.78 155.359 2161.06 155.359C2152.18 155.359 2147.74 160.219 2147.74 169.939ZM2269.79 133.579C2280.83 124.699 2295.41 120.259 2313.53 120.259C2331.65 120.259 2346.17 124.759 2357.09 133.759C2368.13 142.639 2373.65 155.179 2373.65 171.379V199.459C2373.65 215.899 2368.19 228.439 2357.27 237.079C2346.47 245.599 2331.89 249.859 2313.53 249.859C2295.17 249.859 2280.53 245.599 2269.61 237.079C2258.81 228.439 2253.41 215.899 2253.41 199.459V171.379C2253.41 155.059 2258.87 142.459 2269.79 133.579ZM2303.81 211.159C2306.21 213.559 2309.45 214.759 2313.53 214.759C2317.61 214.759 2320.85 213.559 2323.25 211.159C2325.65 208.759 2326.85 205.099 2326.85 200.179V169.939C2326.85 165.139 2325.65 161.539 2323.25 159.139C2320.85 156.619 2317.61 155.359 2313.53 155.359C2309.45 155.359 2306.21 156.619 2303.81 159.139C2301.41 161.539 2300.21 165.139 2300.21 169.939V200.179C2300.21 205.099 2301.41 208.759 2303.81 211.159ZM2416.28 122.059H2468.12C2485.64 122.059 2500.04 126.439 2511.32 135.199C2522.72 143.839 2528.42 155.959 2528.42 171.559V198.379C2528.42 214.699 2522.9 227.059 2511.86 235.459C2500.82 243.859 2486.3 248.059 2468.3 248.059H2416.28C2414.96 248.059 2413.82 247.579 2412.86 246.619C2411.9 245.659 2411.42 244.519 2411.42 243.199V126.919C2411.42 125.599 2411.9 124.459 2412.86 123.499C2413.82 122.539 2414.96 122.059 2416.28 122.059ZM2456.42 157.159V212.959H2468.12C2472.2 212.959 2475.44 211.759 2477.84 209.359C2480.36 206.839 2481.62 203.179 2481.62 198.379V171.559C2481.62 161.959 2477.12 157.159 2468.12 157.159H2456.42ZM2609.38 212.959H2664.82C2666.14 212.959 2667.28 213.439 2668.24 214.399C2669.2 215.359 2669.68 216.499 2669.68 217.819V243.199C2669.68 244.519 2669.2 245.659 2668.24 246.619C2667.28 247.579 2666.14 248.059 2664.82 248.059H2571.04C2569.72 248.059 2568.58 247.579 2567.62 246.619C2566.66 245.659 2566.18 244.519 2566.18 243.199V126.919C2566.18 125.599 2566.66 124.459 2567.62 123.499C2568.58 122.539 2569.72 122.059 2571.04 122.059H2663.38C2664.7 122.059 2665.84 122.539 2666.8 123.499C2667.76 124.459 2668.24 125.599 2668.24 126.919V152.299C2668.24 153.619 2667.76 154.759 2666.8 155.719C2665.84 156.679 2664.7 157.159 2663.38 157.159H2609.38V168.499H2659.42C2660.74 168.499 2661.88 168.979 2662.84 169.939C2663.8 170.899 2664.28 172.039 2664.28 173.359V196.759C2664.28 198.079 2663.8 199.219 2662.84 200.179C2661.88 201.139 2660.74 201.619 2659.42 201.619H2609.38V212.959Z" fill="#505461"/>
<path d="M786.078 443.438C779.234 446.969 771.766 448.734 763.672 448.734C752.891 448.734 744.562 445.578 738.688 439.266C732.812 432.953 729.875 423.984 729.875 412.359C729.875 400.766 732.859 391.797 738.828 385.453C744.828 379.078 753.281 375.891 764.188 375.891C770.375 375.891 777.641 376.906 785.984 378.938V388.172C776.484 384.891 769.156 383.25 764 383.25C756.469 383.25 750.641 385.797 746.516 390.891C742.391 395.984 740.328 403.172 740.328 412.453C740.328 421.328 742.531 428.312 746.938 433.406C751.344 438.5 757.375 441.047 765.031 441.047C771.562 441.047 778.578 439.031 786.078 435V443.438ZM814.259 377.625H824.103V421.406C824.103 428.375 825.384 433.453 827.947 436.641C830.541 439.797 834.65 441.375 840.275 441.375C845.775 441.375 849.666 439.891 851.947 436.922C854.259 433.922 855.416 428.859 855.416 421.734V377.625H864.041V421.594C864.041 427.656 863.447 432.312 862.259 435.562C861.072 438.812 858.931 441.672 855.838 444.141C851.963 447.203 846.634 448.734 839.853 448.734C831.072 448.734 824.603 446.516 820.447 442.078C816.322 437.641 814.259 430.719 814.259 421.312V377.625ZM891.519 445.688V435.938C899.331 439.562 905.769 441.375 910.831 441.375C914.675 441.375 917.769 440.359 920.113 438.328C922.488 436.266 923.675 433.594 923.675 430.312C923.675 427.594 922.894 425.281 921.331 423.375C919.8 421.469 916.956 419.344 912.8 417L908.019 414.234C902.113 410.859 897.941 407.688 895.503 404.719C893.097 401.719 891.894 398.25 891.894 394.312C891.894 388.938 893.831 384.531 897.706 381.094C901.581 377.625 906.519 375.891 912.519 375.891C917.863 375.891 923.503 376.781 929.441 378.562V387.562C922.128 384.688 916.675 383.25 913.081 383.25C909.675 383.25 906.863 384.156 904.644 385.969C902.425 387.781 901.316 390.062 901.316 392.812C901.316 395.125 902.128 397.172 903.753 398.953C905.378 400.734 908.347 402.859 912.659 405.328L917.628 408.141C923.628 411.547 927.816 414.766 930.191 417.797C932.566 420.828 933.753 424.469 933.753 428.719C933.753 434.75 931.534 439.594 927.097 443.25C922.659 446.906 916.769 448.734 909.425 448.734C904.738 448.734 898.769 447.719 891.519 445.688ZM978.434 447V384.984H953.825V377.625H1012.89V384.984H988.278V447H978.434ZM1065.44 448.734C1055.6 448.734 1047.73 445.438 1041.82 438.844C1035.94 432.219 1033.01 423.375 1033.01 412.312C1033.01 401.25 1035.94 392.422 1041.82 385.828C1047.73 379.203 1055.6 375.891 1065.44 375.891C1075.29 375.891 1083.15 379.203 1089.02 385.828C1094.93 392.422 1097.88 401.25 1097.88 412.312C1097.88 423.375 1094.93 432.219 1089.02 438.844C1083.15 445.438 1075.29 448.734 1065.44 448.734ZM1065.44 441.375C1072.35 441.375 1077.74 438.812 1081.62 433.688C1085.49 428.531 1087.43 421.375 1087.43 412.219C1087.43 403.125 1085.49 396.031 1081.62 390.938C1077.74 385.812 1072.35 383.25 1065.44 383.25C1058.54 383.25 1053.15 385.812 1049.27 390.938C1045.4 396.031 1043.46 403.125 1043.46 412.219C1043.46 421.375 1045.4 428.531 1049.27 433.688C1053.15 438.812 1058.54 441.375 1065.44 441.375ZM1126.11 447V377.625H1139.75L1158.97 431.297L1178.75 377.625H1190.94V447H1181.75V390.562L1162.62 442.359H1153.11L1134.55 390.422V447H1126.11ZM1263.71 445.688V435.938C1271.52 439.562 1277.96 441.375 1283.02 441.375C1286.86 441.375 1289.96 440.359 1292.3 438.328C1294.67 436.266 1295.86 433.594 1295.86 430.312C1295.86 427.594 1295.08 425.281 1293.52 423.375C1291.99 421.469 1289.14 419.344 1284.99 417L1280.21 414.234C1274.3 410.859 1270.13 407.688 1267.69 404.719C1265.28 401.719 1264.08 398.25 1264.08 394.312C1264.08 388.938 1266.02 384.531 1269.89 381.094C1273.77 377.625 1278.71 375.891 1284.71 375.891C1290.05 375.891 1295.69 376.781 1301.63 378.562V387.562C1294.32 384.688 1288.86 383.25 1285.27 383.25C1281.86 383.25 1279.05 384.156 1276.83 385.969C1274.61 387.781 1273.5 390.062 1273.5 392.812C1273.5 395.125 1274.32 397.172 1275.94 398.953C1277.57 400.734 1280.53 402.859 1284.85 405.328L1289.82 408.141C1295.82 411.547 1300 414.766 1302.38 417.797C1304.75 420.828 1305.94 424.469 1305.94 428.719C1305.94 434.75 1303.72 439.594 1299.28 443.25C1294.85 446.906 1288.96 448.734 1281.61 448.734C1276.92 448.734 1270.96 447.719 1263.71 445.688ZM1362.48 448.734C1352.64 448.734 1344.76 445.438 1338.86 438.844C1332.98 432.219 1330.04 423.375 1330.04 412.312C1330.04 401.25 1332.98 392.422 1338.86 385.828C1344.76 379.203 1352.64 375.891 1362.48 375.891C1372.33 375.891 1380.18 379.203 1386.06 385.828C1391.97 392.422 1394.92 401.25 1394.92 412.312C1394.92 423.375 1391.97 432.219 1386.06 438.844C1380.18 445.438 1372.33 448.734 1362.48 448.734ZM1362.48 441.375C1369.39 441.375 1374.78 438.812 1378.65 433.688C1382.53 428.531 1384.47 421.375 1384.47 412.219C1384.47 403.125 1382.53 396.031 1378.65 390.938C1374.78 385.812 1369.39 383.25 1362.48 383.25C1355.58 383.25 1350.18 385.812 1346.31 390.938C1342.43 396.031 1340.5 403.125 1340.5 412.219C1340.5 421.375 1342.43 428.531 1346.31 433.688C1350.18 438.812 1355.58 441.375 1362.48 441.375ZM1423.15 447V377.625H1461.91V384.984H1432.99V408.234H1457.27V415.5H1432.99V447H1423.15ZM1505.52 447V384.984H1480.91V377.625H1539.97V384.984H1515.36V447H1505.52ZM1573.17 447L1555.31 377.625H1564.78L1578.98 432.422L1592.06 377.625H1601.53L1613.9 431.672L1629.18 377.625H1637.2L1617.74 447H1607.95L1595.71 393.516L1582.92 447H1573.17ZM1652.53 447L1680.05 377.625H1689.8L1716.89 447H1706.25L1698.71 427.781H1669.32L1661.67 447H1652.53ZM1672.17 420.469H1695.85L1684.03 390.562L1672.17 420.469ZM1741.37 447V377.625H1762.37C1769.03 377.625 1774.12 379.094 1777.65 382.031C1781.22 384.969 1783 389.234 1783 394.828C1783 399.234 1781.76 403.156 1779.29 406.594C1776.86 410.031 1773.42 412.672 1768.98 414.516L1792.14 447H1780.04L1760.31 417.656H1751.12V447H1741.37ZM1751.12 410.297H1754.31C1760.37 410.297 1764.98 409.062 1768.14 406.594C1771.29 404.125 1772.87 400.516 1772.87 395.766C1772.87 388.578 1767.68 384.984 1757.31 384.984H1751.12V410.297ZM1816.52 447V377.625H1855.29V384.984H1826.37V407.25H1850.6V414.516H1826.37V439.641H1857.3V447H1816.52ZM1923.46 445.688V435.938C1931.28 439.562 1937.71 441.375 1942.78 441.375C1946.62 441.375 1949.71 440.359 1952.06 438.328C1954.43 436.266 1955.62 433.594 1955.62 430.312C1955.62 427.594 1954.84 425.281 1953.28 423.375C1951.74 421.469 1948.9 419.344 1944.74 417L1939.96 414.234C1934.06 410.859 1929.88 407.688 1927.45 404.719C1925.04 401.719 1923.84 398.25 1923.84 394.312C1923.84 388.938 1925.78 384.531 1929.65 381.094C1933.53 377.625 1938.46 375.891 1944.46 375.891C1949.81 375.891 1955.45 376.781 1961.38 378.562V387.562C1954.07 384.688 1948.62 383.25 1945.03 383.25C1941.62 383.25 1938.81 384.156 1936.59 385.969C1934.37 387.781 1933.26 390.062 1933.26 392.812C1933.26 395.125 1934.07 397.172 1935.7 398.953C1937.32 400.734 1940.29 402.859 1944.6 405.328L1949.57 408.141C1955.57 411.547 1959.76 414.766 1962.13 417.797C1964.51 420.828 1965.7 424.469 1965.7 428.719C1965.7 434.75 1963.48 439.594 1959.04 443.25C1954.6 446.906 1948.71 448.734 1941.37 448.734C1936.68 448.734 1930.71 447.719 1923.46 445.688ZM2022.24 448.734C2012.39 448.734 2004.52 445.438 1998.61 438.844C1992.74 432.219 1989.8 423.375 1989.8 412.312C1989.8 401.25 1992.74 392.422 1998.61 385.828C2004.52 379.203 2012.39 375.891 2022.24 375.891C2032.08 375.891 2039.94 379.203 2045.82 385.828C2051.72 392.422 2054.68 401.25 2054.68 412.312C2054.68 423.375 2051.72 432.219 2045.82 438.844C2039.94 445.438 2032.08 448.734 2022.24 448.734ZM2022.24 441.375C2029.14 441.375 2034.53 438.812 2038.41 433.688C2042.28 428.531 2044.22 421.375 2044.22 412.219C2044.22 403.125 2042.28 396.031 2038.41 390.938C2034.53 385.812 2029.14 383.25 2022.24 383.25C2015.33 383.25 2009.94 385.812 2006.07 390.938C2002.19 396.031 2000.25 403.125 2000.25 412.219C2000.25 421.375 2002.19 428.531 2006.07 433.688C2009.94 438.812 2015.33 441.375 2022.24 441.375ZM2082.9 447V377.625H2092.75V439.641H2123.97V447H2082.9ZM2147.93 377.625H2157.77V421.406C2157.77 428.375 2159.05 433.453 2161.62 436.641C2164.21 439.797 2168.32 441.375 2173.94 441.375C2179.44 441.375 2183.33 439.891 2185.62 436.922C2187.93 433.922 2189.08 428.859 2189.08 421.734V377.625H2197.71V421.594C2197.71 427.656 2197.12 432.312 2195.93 435.562C2194.74 438.812 2192.6 441.672 2189.51 444.141C2185.63 447.203 2180.3 448.734 2173.52 448.734C2164.74 448.734 2158.27 446.516 2154.12 442.078C2149.99 437.641 2147.93 430.719 2147.93 421.312V377.625ZM2245.95 447V384.984H2221.34V377.625H2280.41V384.984H2255.8V447H2245.95ZM2304.56 447V377.625H2314.4V447H2304.56ZM2375.02 448.734C2365.18 448.734 2357.3 445.438 2351.39 438.844C2345.52 432.219 2342.58 423.375 2342.58 412.312C2342.58 401.25 2345.52 392.422 2351.39 385.828C2357.3 379.203 2365.18 375.891 2375.02 375.891C2384.86 375.891 2392.72 379.203 2398.6 385.828C2404.5 392.422 2407.46 401.25 2407.46 412.312C2407.46 423.375 2404.5 432.219 2398.6 438.844C2392.72 445.438 2384.86 448.734 2375.02 448.734ZM2375.02 441.375C2381.93 441.375 2387.32 438.812 2391.19 433.688C2395.07 428.531 2397 421.375 2397 412.219C2397 403.125 2395.07 396.031 2391.19 390.938C2387.32 385.812 2381.93 383.25 2375.02 383.25C2368.11 383.25 2362.72 385.812 2358.85 390.938C2354.97 396.031 2353.03 403.125 2353.03 412.219C2353.03 421.375 2354.97 428.531 2358.85 433.688C2362.72 438.812 2368.11 441.375 2375.02 441.375ZM2435.68 447V377.625H2445.34L2480.26 431.203V377.625H2488.7V447H2479.09L2444.12 393.422V447H2435.68ZM2516.79 445.688V435.938C2524.6 439.562 2531.04 441.375 2536.1 441.375C2539.94 441.375 2543.04 440.359 2545.38 438.328C2547.76 436.266 2548.94 433.594 2548.94 430.312C2548.94 427.594 2548.16 425.281 2546.6 423.375C2545.07 421.469 2542.22 419.344 2538.07 417L2533.29 414.234C2527.38 410.859 2523.21 407.688 2520.77 404.719C2518.37 401.719 2517.16 398.25 2517.16 394.312C2517.16 388.938 2519.1 384.531 2522.97 381.094C2526.85 377.625 2531.79 375.891 2537.79 375.891C2543.13 375.891 2548.77 376.781 2554.71 378.562V387.562C2547.4 384.688 2541.94 383.25 2538.35 383.25C2534.94 383.25 2532.13 384.156 2529.91 385.969C2527.69 387.781 2526.58 390.062 2526.58 392.812C2526.58 395.125 2527.4 397.172 2529.02 398.953C2530.65 400.734 2533.62 402.859 2537.93 405.328L2542.9 408.141C2548.9 411.547 2553.08 414.766 2555.46 417.797C2557.83 420.828 2559.02 424.469 2559.02 428.719C2559.02 434.75 2556.8 439.594 2552.37 443.25C2547.93 446.906 2542.04 448.734 2534.69 448.734C2530.01 448.734 2524.04 447.719 2516.79 445.688Z" fill="#3C3E46"/>
<path fill-rule="evenodd" clip-rule="evenodd" d="M163.859 2.87554C132.234 9.47181 105.848 22.7307 84.433 42.7862C79.3662 47.532 74.1903 53.7222 72.9317 56.5418C71.6718 59.3628 61.7168 89.6911 50.8073 123.938C39.8992 158.185 24.5951 206.002 16.7985 230.199C9.00329 254.395 2.033 276.835 1.3117 280.068L0 285.944L9.306 296.312C18.2302 306.255 122.745 409.832 181.113 466.579C210.069 494.729 212.252 496.248 221.277 494.511C224.311 493.928 245.031 474.33 305.133 415.2C414.464 307.637 432 289.556 432 284.389C432 282.155 422.423 250.318 410.716 213.64C384.607 131.835 364.409 68.0478 361.677 58.7726C359.874 52.6555 358.138 50.5236 347.347 41.1753C319.875 17.3743 284.383 2.44237 250.652 0.494491C230.929 -0.645272 232.222 -4.18639 232.35 50.6562C232.466 100.26 232.823 102.651 240.426 104.568C242.676 105.135 253.107 107.111 263.606 108.957C282.973 112.366 299.908 116.739 313.418 121.822C325.209 126.258 324.833 125.45 320.882 137.87C318.956 143.92 316.895 149.171 316.3 149.535C315.706 149.899 310.486 148.706 304.701 146.882C295.493 143.979 291.679 143.569 274.121 143.59C252.89 143.616 249.478 144.373 221.817 155.181L215.479 157.659L204.773 152.729C187.231 144.65 179.901 143.064 159.979 143.037C145.764 143.018 140.157 143.604 131.671 145.997C116.125 150.379 116.523 150.526 113.132 139.166C111.521 133.77 110.203 128.374 110.206 127.179C110.214 123.142 146.817 112.549 179.615 107.091C190.225 105.326 195.934 103.722 197.603 102.039C199.807 99.8176 200.144 95.3398 201.007 56.8775C202.256 1.24846 201.909 -0.002294 185.284 0.176386C180.365 0.229178 170.724 1.44339 163.859 2.87554ZM249.289 52.462V88.8383L256.889 90.2203C262.17 91.1814 265.032 91.1665 266.266 90.173C268.759 88.1682 287.402 32.9777 287.452 27.4576C287.461 26.5087 285.876 25.132 283.932 24.3984C278.944 22.5155 261.972 18.1906 255.084 17.0481L249.289 16.0857V52.462ZM168.16 19.2342C155 22.4667 144.298 25.9672 144.298 27.038C144.298 28.5635 157.582 67.264 159.902 72.4999C160.892 74.7334 162.468 78.9973 163.404 81.9753C164.34 84.9533 165.715 88.152 166.459 89.0819C167.937 90.931 172.921 91.2505 179.601 89.9239L183.885 89.0724L183.521 53.7141L183.158 18.3544L178.386 18.1243C175.761 17.9984 171.159 18.4979 168.16 19.2342ZM113.619 41.1469C107.62 45.1469 99.7003 51.1286 96.0215 54.4396L89.3321 60.4606L94.4889 77.3093C97.325 86.5763 100.488 95.3601 101.519 96.8288C102.55 98.2961 103.393 100.507 103.393 101.738C103.393 102.97 104.334 104.754 105.484 105.703C107.208 107.122 110.158 106.686 122.187 103.234C130.224 100.929 139.406 98.3773 142.594 97.5638C146.617 96.5364 148.389 95.3655 148.389 93.7317C148.389 89.0508 128.262 34.5967 126.399 34.2366C125.37 34.0376 119.619 37.1469 113.619 41.1469ZM303.83 35.865C303.83 36.9358 299.476 50.6833 294.154 66.418C288.832 82.1527 284.691 95.2166 284.95 95.4494C285.209 95.6823 290.331 97.1374 296.33 98.6819C302.33 100.228 311.966 102.984 317.743 104.807C326.403 107.54 328.512 107.805 329.758 106.315C330.589 105.322 333.993 94.5993 337.322 82.4884L343.376 60.4687L339.623 56.5757C334.615 51.3777 308.688 33.9212 305.976 33.9212C304.795 33.9212 303.83 34.7957 303.83 35.865ZM72.8881 110.689C69.5257 120.896 67.0727 129.729 67.4381 130.316C68.2849 131.677 90.7529 131.726 91.5751 130.368C91.9132 129.81 91.0897 125.698 89.7439 121.231C88.3981 116.764 85.9206 108.389 84.238 102.618C82.5554 96.8477 80.6901 92.1276 80.0916 92.1276C79.493 92.1276 76.2519 100.48 72.8881 110.689ZM352.304 94.7225C351.817 95.5036 349.072 103.92 346.205 113.424L340.991 130.706L347.68 131.116C351.36 131.342 357.08 131.342 360.392 131.116L366.414 130.706L360.441 112.638C357.155 102.701 354.18 94.2853 353.828 93.9361C353.476 93.5868 352.791 93.9401 352.304 94.7225ZM56.6254 161.483C54.7029 168.358 53.323 174.176 53.5589 174.408C54.5938 175.437 92.5405 176.352 98.3368 175.489C105.912 174.361 105.941 174.226 101.703 159.551L98.6517 148.98H79.3853H60.1201L56.6254 161.483ZM334.739 149.996C333.553 151.965 329.355 168.653 329.206 171.992L329.055 175.376L352.916 175.735C366.04 175.931 377.593 175.562 378.588 174.912C380.051 173.959 379.659 171.357 376.543 161.377L372.687 149.021L354.019 149.001C343.752 148.99 335.076 149.438 334.739 149.996ZM142.253 160.358C133.091 162.605 122.482 167.418 122.482 169.327C122.482 170.18 125.919 181.939 130.122 195.462C144.17 240.67 147.477 252.03 154.615 279.606L159.52 298.557L159.12 327.543C158.735 355.279 158.833 356.571 161.394 357.565C164.631 358.821 266.33 359.12 270.973 357.887L274.249 357.017L273.375 331.1C272.276 298.502 272.846 294.755 284.931 255.241C287.891 245.562 294.956 222.441 300.629 203.861L310.946 170.078L307.121 167.051C302.35 163.273 284.727 158.45 275.785 158.473C262.9 158.507 234.29 165.867 234.29 169.148C234.29 169.798 237.38 179.079 241.157 189.774C255.746 231.084 267.015 266.477 267.015 270.995C267.015 273.589 265.941 276.892 264.628 278.335C263.315 279.78 257.353 287.356 251.378 295.173C245.401 302.99 239.879 310.073 239.106 310.912C238.332 311.753 236.779 313.806 235.654 315.478C234.529 317.149 232.987 319.203 232.226 320.044C231.465 320.883 228.863 324.086 226.445 327.161C220.153 335.16 217.553 335.386 210.099 328.584C202.721 321.849 169.469 280.187 166.339 273.755C164.2 269.358 164.3 268.819 170.734 250.066C192.443 186.786 197.475 171.587 197.475 169.311C197.475 167.485 195.444 166.017 190.24 164.084C175.171 158.487 155.963 156.995 142.253 160.358ZM215.647 176.335C214.112 178.33 207.575 195.73 202.104 212.386C198.993 221.856 198.707 223.87 200.322 224.886C201.38 225.552 209.456 226.105 218.269 226.117C232.087 226.135 234.29 225.839 234.29 223.961C234.29 221.351 219.373 177.192 217.973 175.658C217.434 175.068 216.389 175.372 215.647 176.335ZM43.3489 201.936C41.759 207.237 40.3519 213.175 40.2237 215.134L39.9892 218.693L78.7594 219.053C100.083 219.25 117.986 218.946 118.545 218.376C119.103 217.806 117.917 211.708 115.908 204.826L112.256 192.313L79.2475 192.305L46.2409 192.297L43.3489 201.936ZM332.594 193.564L321.137 194.327L317.737 204.68C315.868 210.373 314.716 216.008 315.177 217.201C315.918 219.12 320.496 219.37 354.919 219.37C385.129 219.37 393.823 218.992 393.826 217.677C393.832 214.905 388.018 195.819 386.61 193.989C385.242 192.213 356.3 191.985 332.594 193.564ZM308.164 238.442C307.493 240.236 305.631 245.229 304.024 249.539C298.615 264.042 293.415 262.686 354.45 262.686H407.798L406.971 258.582C405.72 252.373 402.105 240.574 400.853 238.617C400.006 237.294 389.044 236.681 354.563 236.031L309.382 235.18L308.164 238.442ZM32.0358 237.982C31.6977 238.54 30.1092 243.261 28.507 248.473C26.9063 253.684 25.2646 259.013 24.8596 260.317C24.1683 262.545 27.3303 262.686 78.2222 262.686C122.969 262.686 132.197 262.372 131.615 260.865C131.227 259.865 129.561 254.078 127.91 248.006L124.91 236.967H78.7799C53.4089 236.967 32.374 237.424 32.0358 237.982ZM191.046 242.131C190.595 243.386 189.096 247.328 187.715 250.892C182.835 263.485 180.881 262.686 216.564 262.686C238.373 262.686 247.925 262.235 247.925 261.204C247.925 260.389 246.667 255.61 245.13 250.586L242.335 241.45L222.291 242.081C210.306 242.459 200.161 242.136 197.058 241.281C192.609 240.054 191.75 240.176 191.046 242.131ZM21.9226 279.991C20.2346 280.255 18.8547 280.998 18.8547 281.641C18.8547 282.284 23.8302 288.029 29.9114 294.407L40.9682 306.002H87.6904C137.862 306.002 143.366 305.61 142.406 302.104C142.076 300.898 140.784 295.164 139.537 289.362L137.268 278.813L81.1292 279.162C50.2537 279.353 23.6106 279.727 21.9226 279.991ZM194.066 280.283C193.025 281.958 193.018 281.948 205.31 298.148C210.849 305.446 215.907 311.417 216.554 311.417C217.672 311.417 232.759 292.696 237.818 285.03C239.849 281.954 239.917 281.223 238.273 280.188C235.576 278.494 195.127 278.58 194.066 280.283ZM292.985 285.956C292.128 289.909 291.077 295.647 290.651 298.709C289.949 303.743 290.185 304.348 293.103 305.034C294.878 305.451 317.825 305.866 344.096 305.955L391.861 306.117L403.354 294.429C414.007 283.593 414.652 282.625 412.174 281.173C410.297 280.072 392.406 279.482 352.023 279.188L294.545 278.77L292.985 285.956ZM66.2369 323.192C63.4253 323.506 61.1237 323.993 61.1237 324.276C61.1237 324.558 66.4932 329.99 73.0545 336.348L84.9852 347.907L113.108 347.937L141.229 347.965L141.893 336.121C142.258 329.607 142.286 323.972 141.953 323.6C141.208 322.766 73.319 322.4 66.2369 323.192ZM292.581 323.179C290.606 323.692 290.197 325.357 290.213 332.835C290.248 349.34 287.481 347.965 320.635 347.965H349.393L360.567 336.121C371.55 324.479 371.679 324.262 368.123 323.421C364.01 322.449 296.232 322.231 292.581 323.179ZM113.806 365.562L103.083 366.239L117.828 380.849C136.984 399.83 137.791 399.819 139.177 380.558C139.736 372.799 140.043 366.326 139.859 366.174C138.859 365.347 123.086 364.976 113.806 365.562ZM292.931 371.315C292.953 383.887 294.698 395.585 296.663 396.333C297.909 396.808 304.045 391.716 313.498 382.36C321.679 374.263 328.373 367.172 328.373 366.601C328.373 366.029 320.396 365.562 310.647 365.562H292.921L292.931 371.315ZM155.876 384.635C155.322 390.113 155.444 394.766 156.161 395.478C156.9 396.211 181.832 396.58 216.648 396.372L275.877 396.019L276.274 386.416L276.67 376.815L259.23 375.931C249.638 375.447 222.677 375.046 199.317 375.043L156.847 375.038L155.876 384.635ZM156.155 413.802C154.154 415.79 155.456 418.07 162.852 425.531L170.498 433.244H217.169H263.84L268.989 427.549C275.778 420.044 278.513 415.782 277.313 414.59C276.045 413.329 157.408 412.558 156.155 413.802ZM200.543 450.402C195.105 450.709 190.658 451.402 190.658 451.943C190.658 452.483 196.491 458.693 203.621 465.741L216.582 478.556L229.807 465.427C237.08 458.207 242.653 451.924 242.19 451.465C241.105 450.387 213.337 449.677 200.543 450.402Z" fill="#F16C24"/>
</svg>
