<svg width="2709" height="495" viewBox="0 0 2709 495" fill="none" xmlns="http://www.w3.org/2000/svg">
<path d="M624.848 122.059H660.128C661.448 122.059 662.588 122.539 663.548 123.499C664.508 124.459 664.988 125.599 664.988 126.919V243.199C664.988 244.519 664.508 245.659 663.548 246.619C662.588 247.579 661.448 248.059 660.128 248.059H624.848C623.528 248.059 622.388 247.579 621.428 246.619C620.468 245.659 619.988 244.519 619.988 243.199V204.319H590.828V243.199C590.828 244.519 590.348 245.659 589.388 246.619C588.428 247.579 587.288 248.059 585.968 248.059H550.688C549.368 248.059 548.228 247.639 547.268 246.799C546.308 245.839 545.828 244.639 545.828 243.199V126.919C545.828 125.599 546.308 124.459 547.268 123.499C548.228 122.539 549.368 122.059 550.688 122.059H585.968C587.288 122.059 588.428 122.539 589.388 123.499C590.348 124.459 590.828 125.599 590.828 126.919V164.719H619.988V126.919C619.988 125.599 620.468 124.459 621.428 123.499C622.388 122.539 623.528 122.059 624.848 122.059ZM747.966 248.059H711.246C709.926 248.059 708.786 247.579 707.826 246.619C706.866 245.659 706.386 244.519 706.386 243.199V126.919C706.386 125.599 706.866 124.459 707.826 123.499C708.786 122.539 709.926 122.059 711.246 122.059H747.966C749.286 122.059 750.426 122.539 751.386 123.499C752.346 124.459 752.826 125.599 752.826 126.919V243.199C752.826 244.519 752.346 245.659 751.386 246.619C750.426 247.579 749.286 248.059 747.966 248.059ZM837.371 212.959H892.811C894.131 212.959 895.271 213.439 896.231 214.399C897.191 215.359 897.671 216.499 897.671 217.819V243.199C897.671 244.519 897.191 245.659 896.231 246.619C895.271 247.579 894.131 248.059 892.811 248.059H799.031C797.711 248.059 796.571 247.579 795.611 246.619C794.651 245.659 794.171 244.519 794.171 243.199V126.919C794.171 125.599 794.651 124.459 795.611 123.499C796.571 122.539 797.711 122.059 799.031 122.059H891.371C892.691 122.059 893.831 122.539 894.791 123.499C895.751 124.459 896.231 125.599 896.231 126.919V152.299C896.231 153.619 895.751 154.759 894.791 155.719C893.831 156.679 892.691 157.159 891.371 157.159H837.371V168.499H887.411C888.731 168.499 889.871 168.979 890.831 169.939C891.791 170.899 892.271 172.039 892.271 173.359V196.759C892.271 198.079 891.791 199.219 890.831 200.179C889.871 201.139 888.731 201.619 887.411 201.619H837.371V212.959ZM1053.25 242.119C1053.61 242.839 1053.79 243.619 1053.79 244.459C1053.79 245.299 1053.37 246.139 1052.53 246.979C1051.81 247.699 1050.91 248.059 1049.83 248.059H1012.93C1009.21 248.059 1006.63 246.439 1005.19 243.199L989.708 208.819H982.328V243.199C982.328 244.519 981.848 245.659 980.888 246.619C979.928 247.579 978.788 248.059 977.468 248.059H942.188C940.868 248.059 939.728 247.579 938.768 246.619C937.808 245.659 937.328 244.519 937.328 243.199V126.919C937.328 125.599 937.808 124.459 938.768 123.499C939.728 122.539 940.868 122.059 942.188 122.059H995.468C1012.75 122.059 1026.25 125.959 1035.97 133.759C1045.69 141.439 1050.55 152.539 1050.55 167.059C1050.55 181.459 1044.07 192.799 1031.11 201.079L1053.25 242.119ZM982.328 155.539V174.619H995.468C998.108 174.619 1000.15 173.779 1001.59 172.099C1003.03 170.299 1003.75 168.079 1003.75 165.439C1003.75 162.799 1003.03 160.519 1001.59 158.599C1000.27 156.559 998.228 155.539 995.468 155.539H982.328ZM1101.7 133.579C1112.74 124.699 1127.32 120.259 1145.44 120.259C1163.56 120.259 1178.08 124.759 1189 133.759C1200.04 142.639 1205.56 155.179 1205.56 171.379V199.459C1205.56 215.899 1200.1 228.439 1189.18 237.079C1178.38 245.599 1163.8 249.859 1145.44 249.859C1127.08 249.859 1112.44 245.599 1101.52 237.079C1090.72 228.439 1085.32 215.899 1085.32 199.459V171.379C1085.32 155.059 1090.78 142.459 1101.7 133.579ZM1135.72 211.159C1138.12 213.559 1141.36 214.759 1145.44 214.759C1149.52 214.759 1152.76 213.559 1155.16 211.159C1157.56 208.759 1158.76 205.099 1158.76 200.179V169.939C1158.76 165.139 1157.56 161.539 1155.16 159.139C1152.76 156.619 1149.52 155.359 1145.44 155.359C1141.36 155.359 1138.12 156.619 1135.72 159.139C1133.32 161.539 1132.12 165.139 1132.12 169.939V200.179C1132.12 205.099 1133.32 208.759 1135.72 211.159ZM1307.95 172.099H1357.45C1358.77 172.099 1359.91 172.579 1360.87 173.539C1361.83 174.499 1362.31 175.639 1362.31 176.959V200.359C1362.31 216.199 1356.67 228.439 1345.39 237.079C1334.11 245.599 1319.05 249.859 1300.21 249.859C1281.49 249.859 1266.73 245.719 1255.93 237.439C1245.13 229.039 1239.73 216.499 1239.73 199.819V169.579C1239.73 153.619 1245.25 141.439 1256.29 133.039C1267.33 124.519 1282.03 120.259 1300.39 120.259C1318.87 120.259 1333.81 124.159 1345.21 131.959C1356.61 139.639 1362.31 149.119 1362.31 160.399C1362.31 161.479 1361.89 162.439 1361.05 163.279C1360.33 163.999 1359.43 164.359 1358.35 164.359H1318.57C1316.17 164.359 1314.43 163.699 1313.35 162.379C1310.95 159.259 1309.15 157.459 1307.95 156.979C1305.19 155.899 1302.67 155.359 1300.39 155.359C1291.15 155.359 1286.53 159.859 1286.53 168.859V199.459C1286.53 209.659 1291.45 214.759 1301.29 214.759C1311.37 214.759 1316.41 210.439 1316.41 201.799H1307.95C1306.63 201.799 1305.49 201.319 1304.53 200.359C1303.57 199.399 1303.09 198.259 1303.09 196.939V176.959C1303.09 175.639 1303.57 174.499 1304.53 173.539C1305.49 172.579 1306.63 172.099 1307.95 172.099ZM1445.91 211.159H1495.77C1497.09 211.159 1498.23 211.639 1499.19 212.599C1500.15 213.559 1500.63 214.699 1500.63 216.019V243.199C1500.63 244.519 1500.15 245.659 1499.19 246.619C1498.23 247.579 1497.09 248.059 1495.77 248.059H1405.05C1403.73 248.059 1402.59 247.579 1401.63 246.619C1400.67 245.659 1400.19 244.519 1400.19 243.199V126.919C1400.19 125.599 1400.67 124.459 1401.63 123.499C1402.59 122.539 1403.73 122.059 1405.05 122.059H1441.05C1442.37 122.059 1443.51 122.539 1444.47 123.499C1445.43 124.459 1445.91 125.599 1445.91 126.919V211.159ZM1606.01 248.059H1570.73C1569.41 248.059 1568.27 247.579 1567.31 246.619C1566.35 245.659 1565.87 244.519 1565.87 243.199V207.739L1525.37 127.639C1525.13 127.159 1525.01 126.499 1525.01 125.659C1525.01 124.819 1525.37 124.039 1526.09 123.319C1526.93 122.479 1527.89 122.059 1528.97 122.059H1562.81C1566.41 122.059 1568.93 123.559 1570.37 126.559L1588.37 162.739L1606.37 126.559C1607.81 123.559 1610.33 122.059 1613.93 122.059H1647.77C1648.85 122.059 1649.75 122.479 1650.47 123.319C1651.31 124.039 1651.73 124.819 1651.73 125.659C1651.73 126.499 1651.61 127.159 1651.37 127.639L1610.87 207.739V243.199C1610.87 244.519 1610.39 245.659 1609.43 246.619C1608.47 247.579 1607.33 248.059 1606.01 248.059ZM1688.03 122.059H1741.67C1758.95 122.059 1772.45 125.779 1782.17 133.219C1791.89 140.659 1796.75 151.639 1796.75 166.159C1796.75 180.679 1791.89 191.419 1782.17 198.379C1772.57 205.339 1759.07 208.819 1741.67 208.819H1729.97V243.199C1729.97 244.519 1729.49 245.659 1728.53 246.619C1727.57 247.579 1726.43 248.059 1725.11 248.059H1688.03C1686.71 248.059 1685.57 247.579 1684.61 246.619C1683.65 245.659 1683.17 244.519 1683.17 243.199V126.919C1683.17 125.599 1683.65 124.459 1684.61 123.499C1685.57 122.539 1686.71 122.059 1688.03 122.059ZM1729.07 155.539V175.519H1741.67C1743.83 175.519 1745.75 174.739 1747.43 173.179C1749.11 171.499 1749.95 169.159 1749.95 166.159C1749.95 163.159 1749.29 160.639 1747.97 158.599C1746.65 156.559 1744.55 155.539 1741.67 155.539H1729.07ZM1910.79 122.059H1946.07C1947.39 122.059 1948.53 122.539 1949.49 123.499C1950.45 124.459 1950.93 125.599 1950.93 126.919V243.199C1950.93 244.519 1950.45 245.659 1949.49 246.619C1948.53 247.579 1947.39 248.059 1946.07 248.059H1910.79C1909.47 248.059 1908.33 247.579 1907.37 246.619C1906.41 245.659 1905.93 244.519 1905.93 243.199V204.319H1876.77V243.199C1876.77 244.519 1876.29 245.659 1875.33 246.619C1874.37 247.579 1873.23 248.059 1871.91 248.059H1836.63C1835.31 248.059 1834.17 247.639 1833.21 246.799C1832.25 245.839 1831.77 244.639 1831.77 243.199V126.919C1831.77 125.599 1832.25 124.459 1833.21 123.499C1834.17 122.539 1835.31 122.059 1836.63 122.059H1871.91C1873.23 122.059 1874.37 122.539 1875.33 123.499C1876.29 124.459 1876.77 125.599 1876.77 126.919V164.719H1905.93V126.919C1905.93 125.599 1906.41 124.459 1907.37 123.499C1908.33 122.539 1909.47 122.059 1910.79 122.059ZM2105.74 169.939V200.179C2105.74 209.899 2110.18 214.759 2119.06 214.759C2125.9 214.759 2130.4 211.519 2132.56 205.039C2133.16 202.999 2133.88 201.619 2134.72 200.899C2135.68 200.179 2137.18 199.819 2139.22 199.819H2175.94C2177.02 199.819 2177.92 200.239 2178.64 201.079C2179.48 201.799 2179.9 202.699 2179.9 203.779C2179.9 214.219 2176.9 222.979 2170.9 230.059C2159.86 243.259 2142.64 249.859 2119.24 249.859C2100.88 249.859 2086.24 245.839 2075.32 237.799C2064.4 229.639 2058.94 217.159 2058.94 200.359V169.759C2058.94 153.319 2064.52 140.959 2075.68 132.679C2086.84 124.399 2101.36 120.259 2119.24 120.259C2142.64 120.259 2159.86 126.859 2170.9 140.059C2176.9 147.139 2179.9 155.899 2179.9 166.339C2179.9 167.419 2179.48 168.379 2178.64 169.219C2177.92 169.939 2177.02 170.299 2175.94 170.299H2139.22C2137.3 170.299 2135.86 169.939 2134.9 169.219C2134.06 168.499 2133.28 167.119 2132.56 165.079C2130.28 158.599 2125.78 155.359 2119.06 155.359C2110.18 155.359 2105.74 160.219 2105.74 169.939ZM2227.79 133.579C2238.83 124.699 2253.41 120.259 2271.53 120.259C2289.65 120.259 2304.17 124.759 2315.09 133.759C2326.13 142.639 2331.65 155.179 2331.65 171.379V199.459C2331.65 215.899 2326.19 228.439 2315.27 237.079C2304.47 245.599 2289.89 249.859 2271.53 249.859C2253.17 249.859 2238.53 245.599 2227.61 237.079C2216.81 228.439 2211.41 215.899 2211.41 199.459V171.379C2211.41 155.059 2216.87 142.459 2227.79 133.579ZM2261.81 211.159C2264.21 213.559 2267.45 214.759 2271.53 214.759C2275.61 214.759 2278.85 213.559 2281.25 211.159C2283.65 208.759 2284.85 205.099 2284.85 200.179V169.939C2284.85 165.139 2283.65 161.539 2281.25 159.139C2278.85 156.619 2275.61 155.359 2271.53 155.359C2267.45 155.359 2264.21 156.619 2261.81 159.139C2259.41 161.539 2258.21 165.139 2258.21 169.939V200.179C2258.21 205.099 2259.41 208.759 2261.81 211.159ZM2374.28 122.059H2426.12C2443.64 122.059 2458.04 126.439 2469.32 135.199C2480.72 143.839 2486.42 155.959 2486.42 171.559V198.379C2486.42 214.699 2480.9 227.059 2469.86 235.459C2458.82 243.859 2444.3 248.059 2426.3 248.059H2374.28C2372.96 248.059 2371.82 247.579 2370.86 246.619C2369.9 245.659 2369.42 244.519 2369.42 243.199V126.919C2369.42 125.599 2369.9 124.459 2370.86 123.499C2371.82 122.539 2372.96 122.059 2374.28 122.059ZM2414.42 157.159V212.959H2426.12C2430.2 212.959 2433.44 211.759 2435.84 209.359C2438.36 206.839 2439.62 203.179 2439.62 198.379V171.559C2439.62 161.959 2435.12 157.159 2426.12 157.159H2414.42ZM2567.38 212.959H2622.82C2624.14 212.959 2625.28 213.439 2626.24 214.399C2627.2 215.359 2627.68 216.499 2627.68 217.819V243.199C2627.68 244.519 2627.2 245.659 2626.24 246.619C2625.28 247.579 2624.14 248.059 2622.82 248.059H2529.04C2527.72 248.059 2526.58 247.579 2525.62 246.619C2524.66 245.659 2524.18 244.519 2524.18 243.199V126.919C2524.18 125.599 2524.66 124.459 2525.62 123.499C2526.58 122.539 2527.72 122.059 2529.04 122.059H2621.38C2622.7 122.059 2623.84 122.539 2624.8 123.499C2625.76 124.459 2626.24 125.599 2626.24 126.919V152.299C2626.24 153.619 2625.76 154.759 2624.8 155.719C2623.84 156.679 2622.7 157.159 2621.38 157.159H2567.38V168.499H2617.42C2618.74 168.499 2619.88 168.979 2620.84 169.939C2621.8 170.899 2622.28 172.039 2622.28 173.359V196.759C2622.28 198.079 2621.8 199.219 2620.84 200.179C2619.88 201.139 2618.74 201.619 2617.42 201.619H2567.38V212.959Z" fill="#3C3E46"/>
<path d="M744.078 443.438C737.234 446.969 729.766 448.734 721.672 448.734C710.891 448.734 702.562 445.578 696.688 439.266C690.812 432.953 687.875 423.984 687.875 412.359C687.875 400.766 690.859 391.797 696.828 385.453C702.828 379.078 711.281 375.891 722.188 375.891C728.375 375.891 735.641 376.906 743.984 378.938V388.172C734.484 384.891 727.156 383.25 722 383.25C714.469 383.25 708.641 385.797 704.516 390.891C700.391 395.984 698.328 403.172 698.328 412.453C698.328 421.328 700.531 428.312 704.938 433.406C709.344 438.5 715.375 441.047 723.031 441.047C729.562 441.047 736.578 439.031 744.078 435V443.438ZM772.259 377.625H782.103V421.406C782.103 428.375 783.384 433.453 785.947 436.641C788.541 439.797 792.65 441.375 798.275 441.375C803.775 441.375 807.666 439.891 809.947 436.922C812.259 433.922 813.416 428.859 813.416 421.734V377.625H822.041V421.594C822.041 427.656 821.447 432.312 820.259 435.562C819.072 438.812 816.931 441.672 813.838 444.141C809.963 447.203 804.634 448.734 797.853 448.734C789.072 448.734 782.603 446.516 778.447 442.078C774.322 437.641 772.259 430.719 772.259 421.312V377.625ZM849.519 445.688V435.938C857.331 439.562 863.769 441.375 868.831 441.375C872.675 441.375 875.769 440.359 878.113 438.328C880.488 436.266 881.675 433.594 881.675 430.312C881.675 427.594 880.894 425.281 879.331 423.375C877.8 421.469 874.956 419.344 870.8 417L866.019 414.234C860.113 410.859 855.941 407.688 853.503 404.719C851.097 401.719 849.894 398.25 849.894 394.312C849.894 388.938 851.831 384.531 855.706 381.094C859.581 377.625 864.519 375.891 870.519 375.891C875.863 375.891 881.503 376.781 887.441 378.562V387.562C880.128 384.688 874.675 383.25 871.081 383.25C867.675 383.25 864.863 384.156 862.644 385.969C860.425 387.781 859.316 390.062 859.316 392.812C859.316 395.125 860.128 397.172 861.753 398.953C863.378 400.734 866.347 402.859 870.659 405.328L875.628 408.141C881.628 411.547 885.816 414.766 888.191 417.797C890.566 420.828 891.753 424.469 891.753 428.719C891.753 434.75 889.534 439.594 885.097 443.25C880.659 446.906 874.769 448.734 867.425 448.734C862.738 448.734 856.769 447.719 849.519 445.688ZM936.434 447V384.984H911.825V377.625H970.887V384.984H946.278V447H936.434ZM1023.44 448.734C1013.6 448.734 1005.73 445.438 999.819 438.844C993.944 432.219 991.006 423.375 991.006 412.312C991.006 401.25 993.944 392.422 999.819 385.828C1005.73 379.203 1013.6 375.891 1023.44 375.891C1033.29 375.891 1041.15 379.203 1047.02 385.828C1052.93 392.422 1055.88 401.25 1055.88 412.312C1055.88 423.375 1052.93 432.219 1047.02 438.844C1041.15 445.438 1033.29 448.734 1023.44 448.734ZM1023.44 441.375C1030.35 441.375 1035.74 438.812 1039.62 433.688C1043.49 428.531 1045.43 421.375 1045.43 412.219C1045.43 403.125 1043.49 396.031 1039.62 390.938C1035.74 385.812 1030.35 383.25 1023.44 383.25C1016.54 383.25 1011.15 385.812 1007.27 390.938C1003.4 396.031 1001.46 403.125 1001.46 412.219C1001.46 421.375 1003.4 428.531 1007.27 433.688C1011.15 438.812 1016.54 441.375 1023.44 441.375ZM1084.11 447V377.625H1097.75L1116.97 431.297L1136.75 377.625H1148.94V447H1139.75V390.562L1120.62 442.359H1111.11L1092.55 390.422V447H1084.11ZM1221.71 445.688V435.938C1229.52 439.562 1235.96 441.375 1241.02 441.375C1244.86 441.375 1247.96 440.359 1250.3 438.328C1252.67 436.266 1253.86 433.594 1253.86 430.312C1253.86 427.594 1253.08 425.281 1251.52 423.375C1249.99 421.469 1247.14 419.344 1242.99 417L1238.21 414.234C1232.3 410.859 1228.13 407.688 1225.69 404.719C1223.28 401.719 1222.08 398.25 1222.08 394.312C1222.08 388.938 1224.02 384.531 1227.89 381.094C1231.77 377.625 1236.71 375.891 1242.71 375.891C1248.05 375.891 1253.69 376.781 1259.63 378.562V387.562C1252.32 384.688 1246.86 383.25 1243.27 383.25C1239.86 383.25 1237.05 384.156 1234.83 385.969C1232.61 387.781 1231.5 390.062 1231.5 392.812C1231.5 395.125 1232.32 397.172 1233.94 398.953C1235.57 400.734 1238.53 402.859 1242.85 405.328L1247.82 408.141C1253.82 411.547 1258 414.766 1260.38 417.797C1262.75 420.828 1263.94 424.469 1263.94 428.719C1263.94 434.75 1261.72 439.594 1257.28 443.25C1252.85 446.906 1246.96 448.734 1239.61 448.734C1234.92 448.734 1228.96 447.719 1221.71 445.688ZM1320.48 448.734C1310.64 448.734 1302.76 445.438 1296.86 438.844C1290.98 432.219 1288.04 423.375 1288.04 412.312C1288.04 401.25 1290.98 392.422 1296.86 385.828C1302.76 379.203 1310.64 375.891 1320.48 375.891C1330.33 375.891 1338.18 379.203 1344.06 385.828C1349.97 392.422 1352.92 401.25 1352.92 412.312C1352.92 423.375 1349.97 432.219 1344.06 438.844C1338.18 445.438 1330.33 448.734 1320.48 448.734ZM1320.48 441.375C1327.39 441.375 1332.78 438.812 1336.65 433.688C1340.53 428.531 1342.47 421.375 1342.47 412.219C1342.47 403.125 1340.53 396.031 1336.65 390.938C1332.78 385.812 1327.39 383.25 1320.48 383.25C1313.58 383.25 1308.18 385.812 1304.31 390.938C1300.43 396.031 1298.5 403.125 1298.5 412.219C1298.5 421.375 1300.43 428.531 1304.31 433.688C1308.18 438.812 1313.58 441.375 1320.48 441.375ZM1381.15 447V377.625H1419.91V384.984H1390.99V408.234H1415.27V415.5H1390.99V447H1381.15ZM1463.52 447V384.984H1438.91V377.625H1497.97V384.984H1473.36V447H1463.52ZM1531.17 447L1513.31 377.625H1522.78L1536.98 432.422L1550.06 377.625H1559.53L1571.9 431.672L1587.18 377.625H1595.2L1575.74 447H1565.95L1553.71 393.516L1540.92 447H1531.17ZM1610.53 447L1638.05 377.625H1647.8L1674.89 447H1664.25L1656.71 427.781H1627.32L1619.67 447H1610.53ZM1630.17 420.469H1653.85L1642.03 390.562L1630.17 420.469ZM1699.37 447V377.625H1720.37C1727.03 377.625 1732.12 379.094 1735.65 382.031C1739.22 384.969 1741 389.234 1741 394.828C1741 399.234 1739.76 403.156 1737.29 406.594C1734.86 410.031 1731.42 412.672 1726.98 414.516L1750.14 447H1738.04L1718.31 417.656H1709.12V447H1699.37ZM1709.12 410.297H1712.31C1718.37 410.297 1722.98 409.062 1726.14 406.594C1729.29 404.125 1730.87 400.516 1730.87 395.766C1730.87 388.578 1725.68 384.984 1715.31 384.984H1709.12V410.297ZM1774.52 447V377.625H1813.29V384.984H1784.37V407.25H1808.6V414.516H1784.37V439.641H1815.3V447H1774.52ZM1881.46 445.688V435.938C1889.28 439.562 1895.71 441.375 1900.78 441.375C1904.62 441.375 1907.71 440.359 1910.06 438.328C1912.43 436.266 1913.62 433.594 1913.62 430.312C1913.62 427.594 1912.84 425.281 1911.28 423.375C1909.74 421.469 1906.9 419.344 1902.74 417L1897.96 414.234C1892.06 410.859 1887.88 407.688 1885.45 404.719C1883.04 401.719 1881.84 398.25 1881.84 394.312C1881.84 388.938 1883.78 384.531 1887.65 381.094C1891.53 377.625 1896.46 375.891 1902.46 375.891C1907.81 375.891 1913.45 376.781 1919.38 378.562V387.562C1912.07 384.688 1906.62 383.25 1903.03 383.25C1899.62 383.25 1896.81 384.156 1894.59 385.969C1892.37 387.781 1891.26 390.062 1891.26 392.812C1891.26 395.125 1892.07 397.172 1893.7 398.953C1895.32 400.734 1898.29 402.859 1902.6 405.328L1907.57 408.141C1913.57 411.547 1917.76 414.766 1920.13 417.797C1922.51 420.828 1923.7 424.469 1923.7 428.719C1923.7 434.75 1921.48 439.594 1917.04 443.25C1912.6 446.906 1906.71 448.734 1899.37 448.734C1894.68 448.734 1888.71 447.719 1881.46 445.688ZM1980.24 448.734C1970.39 448.734 1962.52 445.438 1956.61 438.844C1950.74 432.219 1947.8 423.375 1947.8 412.312C1947.8 401.25 1950.74 392.422 1956.61 385.828C1962.52 379.203 1970.39 375.891 1980.24 375.891C1990.08 375.891 1997.94 379.203 2003.82 385.828C2009.72 392.422 2012.68 401.25 2012.68 412.312C2012.68 423.375 2009.72 432.219 2003.82 438.844C1997.94 445.438 1990.08 448.734 1980.24 448.734ZM1980.24 441.375C1987.14 441.375 1992.53 438.812 1996.41 433.688C2000.28 428.531 2002.22 421.375 2002.22 412.219C2002.22 403.125 2000.28 396.031 1996.41 390.938C1992.53 385.812 1987.14 383.25 1980.24 383.25C1973.33 383.25 1967.94 385.812 1964.07 390.938C1960.19 396.031 1958.25 403.125 1958.25 412.219C1958.25 421.375 1960.19 428.531 1964.07 433.688C1967.94 438.812 1973.33 441.375 1980.24 441.375ZM2040.9 447V377.625H2050.75V439.641H2081.97V447H2040.9ZM2105.93 377.625H2115.77V421.406C2115.77 428.375 2117.05 433.453 2119.62 436.641C2122.21 439.797 2126.32 441.375 2131.94 441.375C2137.44 441.375 2141.33 439.891 2143.62 436.922C2145.93 433.922 2147.08 428.859 2147.08 421.734V377.625H2155.71V421.594C2155.71 427.656 2155.12 432.312 2153.93 435.562C2152.74 438.812 2150.6 441.672 2147.51 444.141C2143.63 447.203 2138.3 448.734 2131.52 448.734C2122.74 448.734 2116.27 446.516 2112.12 442.078C2107.99 437.641 2105.93 430.719 2105.93 421.312V377.625ZM2203.95 447V384.984H2179.34V377.625H2238.41V384.984H2213.8V447H2203.95ZM2262.56 447V377.625H2272.4V447H2262.56ZM2333.02 448.734C2323.18 448.734 2315.3 445.438 2309.39 438.844C2303.52 432.219 2300.58 423.375 2300.58 412.312C2300.58 401.25 2303.52 392.422 2309.39 385.828C2315.3 379.203 2323.18 375.891 2333.02 375.891C2342.86 375.891 2350.72 379.203 2356.6 385.828C2362.5 392.422 2365.46 401.25 2365.46 412.312C2365.46 423.375 2362.5 432.219 2356.6 438.844C2350.72 445.438 2342.86 448.734 2333.02 448.734ZM2333.02 441.375C2339.93 441.375 2345.32 438.812 2349.19 433.688C2353.07 428.531 2355 421.375 2355 412.219C2355 403.125 2353.07 396.031 2349.19 390.938C2345.32 385.812 2339.93 383.25 2333.02 383.25C2326.11 383.25 2320.72 385.812 2316.85 390.938C2312.97 396.031 2311.03 403.125 2311.03 412.219C2311.03 421.375 2312.97 428.531 2316.85 433.688C2320.72 438.812 2326.11 441.375 2333.02 441.375ZM2393.68 447V377.625H2403.34L2438.26 431.203V377.625H2446.7V447H2437.09L2402.12 393.422V447H2393.68ZM2474.79 445.688V435.938C2482.6 439.562 2489.04 441.375 2494.1 441.375C2497.94 441.375 2501.04 440.359 2503.38 438.328C2505.76 436.266 2506.94 433.594 2506.94 430.312C2506.94 427.594 2506.16 425.281 2504.6 423.375C2503.07 421.469 2500.22 419.344 2496.07 417L2491.29 414.234C2485.38 410.859 2481.21 407.688 2478.77 404.719C2476.37 401.719 2475.16 398.25 2475.16 394.312C2475.16 388.938 2477.1 384.531 2480.97 381.094C2484.85 377.625 2489.79 375.891 2495.79 375.891C2501.13 375.891 2506.77 376.781 2512.71 378.562V387.562C2505.4 384.688 2499.94 383.25 2496.35 383.25C2492.94 383.25 2490.13 384.156 2487.91 385.969C2485.69 387.781 2484.58 390.062 2484.58 392.812C2484.58 395.125 2485.4 397.172 2487.02 398.953C2488.65 400.734 2491.62 402.859 2495.93 405.328L2500.9 408.141C2506.9 411.547 2511.08 414.766 2513.46 417.797C2515.83 420.828 2517.02 424.469 2517.02 428.719C2517.02 434.75 2514.8 439.594 2510.37 443.25C2505.93 446.906 2500.04 448.734 2492.69 448.734C2488.01 448.734 2482.04 447.719 2474.79 445.688Z" fill="#3C3E46"/>
<path fill-rule="evenodd" clip-rule="evenodd" d="M163.859 2.87554C132.234 9.47181 105.848 22.7307 84.433 42.7862C79.3662 47.532 74.1903 53.7222 72.9317 56.5418C71.6718 59.3628 61.7168 89.6911 50.8073 123.938C39.8992 158.185 24.5951 206.002 16.7985 230.199C9.00329 254.395 2.033 276.835 1.3117 280.068L0 285.944L9.306 296.312C18.2302 306.255 122.745 409.832 181.113 466.579C210.069 494.729 212.252 496.248 221.277 494.511C224.311 493.928 245.031 474.33 305.133 415.2C414.464 307.637 432 289.556 432 284.389C432 282.155 422.423 250.318 410.716 213.64C384.607 131.835 364.409 68.0478 361.677 58.7726C359.874 52.6555 358.138 50.5236 347.347 41.1753C319.875 17.3743 284.383 2.44237 250.652 0.494491C230.929 -0.645272 232.222 -4.18639 232.35 50.6562C232.466 100.26 232.823 102.651 240.426 104.568C242.676 105.135 253.107 107.111 263.606 108.957C282.973 112.366 299.908 116.739 313.418 121.822C325.209 126.258 324.833 125.45 320.882 137.87C318.956 143.92 316.895 149.171 316.3 149.535C315.706 149.899 310.486 148.706 304.701 146.882C295.493 143.979 291.679 143.569 274.121 143.59C252.89 143.616 249.478 144.373 221.817 155.181L215.479 157.659L204.773 152.729C187.231 144.65 179.901 143.064 159.979 143.037C145.764 143.018 140.157 143.604 131.671 145.997C116.125 150.379 116.523 150.526 113.132 139.166C111.521 133.77 110.203 128.374 110.206 127.179C110.214 123.142 146.817 112.549 179.615 107.091C190.225 105.326 195.934 103.722 197.603 102.039C199.807 99.8176 200.144 95.3398 201.007 56.8775C202.256 1.24846 201.909 -0.002294 185.284 0.176386C180.365 0.229178 170.724 1.44339 163.859 2.87554ZM249.289 52.462V88.8383L256.889 90.2203C262.17 91.1814 265.032 91.1665 266.266 90.173C268.759 88.1682 287.402 32.9777 287.452 27.4576C287.461 26.5087 285.876 25.132 283.932 24.3984C278.944 22.5155 261.972 18.1906 255.084 17.0481L249.289 16.0857V52.462ZM168.16 19.2342C155 22.4667 144.298 25.9672 144.298 27.038C144.298 28.5635 157.582 67.264 159.902 72.4999C160.892 74.7334 162.468 78.9973 163.404 81.9753C164.34 84.9533 165.715 88.152 166.459 89.0819C167.937 90.931 172.921 91.2505 179.601 89.9239L183.885 89.0724L183.521 53.7141L183.158 18.3544L178.386 18.1243C175.761 17.9984 171.159 18.4979 168.16 19.2342ZM113.619 41.1469C107.62 45.1469 99.7003 51.1286 96.0215 54.4396L89.3321 60.4606L94.4889 77.3093C97.325 86.5763 100.488 95.3601 101.519 96.8288C102.55 98.2961 103.393 100.507 103.393 101.738C103.393 102.97 104.334 104.754 105.484 105.703C107.208 107.122 110.158 106.686 122.187 103.234C130.224 100.929 139.406 98.3773 142.594 97.5638C146.617 96.5364 148.389 95.3655 148.389 93.7317C148.389 89.0508 128.262 34.5967 126.399 34.2366C125.37 34.0376 119.619 37.1469 113.619 41.1469ZM303.83 35.865C303.83 36.9358 299.476 50.6833 294.154 66.418C288.832 82.1527 284.691 95.2166 284.95 95.4494C285.209 95.6823 290.331 97.1374 296.33 98.6819C302.33 100.228 311.966 102.984 317.743 104.807C326.403 107.54 328.512 107.805 329.758 106.315C330.589 105.322 333.993 94.5993 337.322 82.4884L343.376 60.4687L339.623 56.5757C334.615 51.3777 308.688 33.9212 305.976 33.9212C304.795 33.9212 303.83 34.7957 303.83 35.865ZM72.8881 110.689C69.5257 120.896 67.0727 129.729 67.4381 130.316C68.2849 131.677 90.7529 131.726 91.5751 130.368C91.9132 129.81 91.0897 125.698 89.7439 121.231C88.3981 116.764 85.9206 108.389 84.238 102.618C82.5554 96.8477 80.6901 92.1276 80.0916 92.1276C79.493 92.1276 76.2519 100.48 72.8881 110.689ZM352.304 94.7225C351.817 95.5036 349.072 103.92 346.205 113.424L340.991 130.706L347.68 131.116C351.36 131.342 357.08 131.342 360.392 131.116L366.414 130.706L360.441 112.638C357.155 102.701 354.18 94.2853 353.828 93.9361C353.476 93.5868 352.791 93.9401 352.304 94.7225ZM56.6254 161.483C54.7029 168.358 53.323 174.176 53.5589 174.408C54.5938 175.437 92.5405 176.352 98.3368 175.489C105.912 174.361 105.941 174.226 101.703 159.551L98.6517 148.98H79.3853H60.1201L56.6254 161.483ZM334.739 149.996C333.553 151.965 329.355 168.653 329.206 171.992L329.055 175.376L352.916 175.735C366.04 175.931 377.593 175.562 378.588 174.912C380.051 173.959 379.659 171.357 376.543 161.377L372.687 149.021L354.019 149.001C343.752 148.99 335.076 149.438 334.739 149.996ZM142.253 160.358C133.091 162.605 122.482 167.418 122.482 169.327C122.482 170.18 125.919 181.939 130.122 195.462C144.17 240.67 147.477 252.03 154.615 279.606L159.52 298.557L159.12 327.543C158.735 355.279 158.833 356.571 161.394 357.565C164.631 358.821 266.33 359.12 270.973 357.887L274.249 357.017L273.375 331.1C272.276 298.502 272.846 294.755 284.931 255.241C287.891 245.562 294.956 222.441 300.629 203.861L310.946 170.078L307.121 167.051C302.35 163.273 284.727 158.45 275.785 158.473C262.9 158.507 234.29 165.867 234.29 169.148C234.29 169.798 237.38 179.079 241.157 189.774C255.746 231.084 267.015 266.477 267.015 270.995C267.015 273.589 265.941 276.892 264.628 278.335C263.315 279.78 257.353 287.356 251.378 295.173C245.401 302.99 239.879 310.073 239.106 310.912C238.332 311.753 236.779 313.806 235.654 315.478C234.529 317.149 232.987 319.203 232.226 320.044C231.465 320.883 228.863 324.086 226.445 327.161C220.153 335.16 217.553 335.386 210.099 328.584C202.721 321.849 169.469 280.187 166.339 273.755C164.2 269.358 164.3 268.819 170.734 250.066C192.443 186.786 197.475 171.587 197.475 169.311C197.475 167.485 195.444 166.017 190.24 164.084C175.171 158.487 155.963 156.995 142.253 160.358ZM215.647 176.335C214.112 178.33 207.575 195.73 202.104 212.386C198.993 221.856 198.707 223.87 200.322 224.886C201.38 225.552 209.456 226.105 218.269 226.117C232.087 226.135 234.29 225.839 234.29 223.961C234.29 221.351 219.373 177.192 217.973 175.658C217.434 175.068 216.389 175.372 215.647 176.335ZM43.3489 201.936C41.759 207.237 40.3519 213.175 40.2237 215.134L39.9892 218.693L78.7594 219.053C100.083 219.25 117.986 218.946 118.545 218.376C119.103 217.806 117.917 211.708 115.908 204.826L112.256 192.313L79.2475 192.305L46.2409 192.297L43.3489 201.936ZM332.594 193.564L321.137 194.327L317.737 204.68C315.868 210.373 314.716 216.008 315.177 217.201C315.918 219.12 320.496 219.37 354.919 219.37C385.129 219.37 393.823 218.992 393.826 217.677C393.832 214.905 388.018 195.819 386.61 193.989C385.242 192.213 356.3 191.985 332.594 193.564ZM308.164 238.442C307.493 240.236 305.631 245.229 304.024 249.539C298.615 264.042 293.415 262.686 354.45 262.686H407.798L406.971 258.582C405.72 252.373 402.105 240.574 400.853 238.617C400.006 237.294 389.044 236.681 354.563 236.031L309.382 235.18L308.164 238.442ZM32.0358 237.982C31.6977 238.54 30.1092 243.261 28.507 248.473C26.9063 253.684 25.2646 259.013 24.8596 260.317C24.1683 262.545 27.3303 262.686 78.2222 262.686C122.969 262.686 132.197 262.372 131.615 260.865C131.227 259.865 129.561 254.078 127.91 248.006L124.91 236.967H78.7799C53.4089 236.967 32.374 237.424 32.0358 237.982ZM191.046 242.131C190.595 243.386 189.096 247.328 187.715 250.892C182.835 263.485 180.881 262.686 216.564 262.686C238.373 262.686 247.925 262.235 247.925 261.204C247.925 260.389 246.667 255.61 245.13 250.586L242.335 241.45L222.291 242.081C210.306 242.459 200.161 242.136 197.058 241.281C192.609 240.054 191.75 240.176 191.046 242.131ZM21.9226 279.991C20.2346 280.255 18.8547 280.998 18.8547 281.641C18.8547 282.284 23.8302 288.029 29.9114 294.407L40.9682 306.002H87.6904C137.862 306.002 143.366 305.61 142.406 302.104C142.076 300.898 140.784 295.164 139.537 289.362L137.268 278.813L81.1292 279.162C50.2537 279.353 23.6106 279.727 21.9226 279.991ZM194.066 280.283C193.025 281.958 193.018 281.948 205.31 298.148C210.849 305.446 215.907 311.417 216.554 311.417C217.672 311.417 232.759 292.696 237.818 285.03C239.849 281.954 239.917 281.223 238.273 280.188C235.576 278.494 195.127 278.58 194.066 280.283ZM292.985 285.956C292.128 289.909 291.077 295.647 290.651 298.709C289.949 303.743 290.185 304.348 293.103 305.034C294.878 305.451 317.825 305.866 344.096 305.955L391.861 306.117L403.354 294.429C414.007 283.593 414.652 282.625 412.174 281.173C410.297 280.072 392.406 279.482 352.023 279.188L294.545 278.77L292.985 285.956ZM66.2369 323.192C63.4253 323.506 61.1237 323.993 61.1237 324.276C61.1237 324.558 66.4932 329.99 73.0545 336.348L84.9852 347.907L113.108 347.937L141.229 347.965L141.893 336.121C142.258 329.607 142.286 323.972 141.953 323.6C141.208 322.766 73.319 322.4 66.2369 323.192ZM292.581 323.179C290.606 323.692 290.197 325.357 290.213 332.835C290.248 349.34 287.481 347.965 320.635 347.965H349.393L360.567 336.121C371.55 324.479 371.679 324.262 368.123 323.421C364.01 322.449 296.232 322.231 292.581 323.179ZM113.806 365.562L103.083 366.239L117.828 380.849C136.984 399.83 137.791 399.819 139.177 380.558C139.736 372.799 140.043 366.326 139.859 366.174C138.859 365.347 123.086 364.976 113.806 365.562ZM292.931 371.315C292.953 383.887 294.698 395.585 296.663 396.333C297.909 396.808 304.045 391.716 313.498 382.36C321.679 374.263 328.373 367.172 328.373 366.601C328.373 366.029 320.396 365.562 310.647 365.562H292.921L292.931 371.315ZM155.876 384.635C155.322 390.113 155.444 394.766 156.161 395.478C156.9 396.211 181.832 396.58 216.648 396.372L275.877 396.019L276.274 386.416L276.67 376.815L259.23 375.931C249.638 375.447 222.677 375.046 199.317 375.043L156.847 375.038L155.876 384.635ZM156.155 413.802C154.154 415.79 155.456 418.07 162.852 425.531L170.498 433.244H217.169H263.84L268.989 427.549C275.778 420.044 278.513 415.782 277.313 414.59C276.045 413.329 157.408 412.558 156.155 413.802ZM200.543 450.402C195.105 450.709 190.658 451.402 190.658 451.943C190.658 452.483 196.491 458.693 203.621 465.741L216.582 478.556L229.807 465.427C237.08 458.207 242.653 451.924 242.19 451.465C241.105 450.387 213.337 449.677 200.543 450.402Z" fill="#F16C24"/>
</svg>
